<?xml version="1.0" encoding="utf-8"?>
<!-- Generator: Adobe Illustrator 21.0.0, SVG Export Plug-In . SVG Version: 6.00 Build 0)  -->
<svg version="1.1" id="Layer_3" xmlns="http://www.w3.org/2000/svg" xmlns:xlink="http://www.w3.org/1999/xlink" x="0px" y="0px"
	 viewBox="0 0 27.5 27.5" style="enable-background:new 0 0 27.5 27.5;" xml:space="preserve">
<style type="text/css">
	.st0{display:none;}
	.st1{display:inline;}
	.st2{fill:#2539CC;}
	.st3{fill:none;stroke:#2539CC;stroke-width:1.0171;stroke-miterlimit:10;}
</style>
<g class="st0">
	<g class="st1">
		<path class="st2" d="M13.6,25.5c-6.4,0-11.7-5.2-11.7-11.7c0-6.4,5.2-11.7,11.7-11.7c6.4,0,11.7,5.2,11.7,11.7
			C25.2,20.3,20,25.5,13.6,25.5L13.6,25.5z M13.6,4.2c-5.3,0-9.7,4.3-9.7,9.7s4.3,9.7,9.7,9.7c5.3,0,9.7-4.3,9.7-9.7
			S18.9,4.2,13.6,4.2L13.6,4.2z"/>
	</g>
	<g class="st1">
		<path class="st2" d="M13.6,14.8c-0.6,0-1-0.4-1-1V6.6c0-0.6,0.4-1,1-1s1,0.4,1,1v7.2C14.6,14.4,14.1,14.8,13.6,14.8L13.6,14.8z"/>
	</g>
	<g class="st1">
		<path class="st2" d="M13.6,4.8c-0.6,0-1-0.4-1-1V3.2c0-0.6,0.4-1,1-1s1,0.4,1,1v0.6C14.6,4.4,14.1,4.8,13.6,4.8L13.6,4.8z"/>
	</g>
	<g class="st1">
		<path class="st2" d="M13.6,25.5c-0.6,0-1-0.4-1-1v-0.6c0-0.6,0.4-1,1-1s1,0.4,1,1v0.6C14.6,25,14.1,25.5,13.6,25.5L13.6,25.5z"/>
	</g>
	<g class="st1">
		<path class="st2" d="M24.2,14.8h-0.6c-0.6,0-1-0.4-1-1c0-0.6,0.4-1,1-1h0.6c0.6,0,1,0.4,1,1C25.2,14.4,24.8,14.8,24.2,14.8
			L24.2,14.8z"/>
	</g>
	<g class="st1">
		<path class="st2" d="M3.5,14.8H2.9c-0.6,0-1-0.4-1-1c0-0.6,0.4-1,1-1h0.6c0.6,0,1,0.4,1,1C4.5,14.4,4.1,14.8,3.5,14.8L3.5,14.8z"
			/>
	</g>
	<g class="st1">
		<g>
			<g>
				<path class="st2" d="M18.1,6.5c-0.1,0-0.2,0-0.2-0.1c-0.2-0.1-0.3-0.4-0.2-0.7L18,5.2C18.1,5,18.4,4.9,18.7,5
					c0.2,0.1,0.3,0.4,0.2,0.7l-0.3,0.5C18.5,6.4,18.3,6.5,18.1,6.5L18.1,6.5z"/>
			</g>
			<g>
				<path class="st2" d="M8.7,22.7c-0.1,0-0.2,0-0.2-0.1c-0.2-0.1-0.3-0.4-0.2-0.7l0.3-0.5c0.1-0.2,0.4-0.3,0.7-0.2
					c0.2,0.1,0.3,0.4,0.2,0.7l-0.3,0.5C9.1,22.6,8.9,22.7,8.7,22.7L8.7,22.7z"/>
			</g>
			<g>
				<path class="st2" d="M21.9,19.2c-0.1,0-0.2,0-0.2-0.1l-0.5-0.3c-0.2-0.1-0.3-0.4-0.2-0.7c0.1-0.2,0.4-0.3,0.7-0.2l0.5,0.3
					c0.2,0.1,0.3,0.4,0.2,0.7C22.3,19.1,22.1,19.2,21.9,19.2L21.9,19.2z"/>
			</g>
			<g>
				<path class="st2" d="M5.7,9.8c-0.1,0-0.2,0-0.2-0.1L4.9,9.4C4.7,9.3,4.6,9,4.7,8.7c0.1-0.2,0.4-0.3,0.7-0.2l0.5,0.3
					C6.2,9,6.3,9.3,6.1,9.5C6,9.7,5.9,9.8,5.7,9.8L5.7,9.8z"/>
			</g>
		</g>
		<g>
			<g>
				<path class="st2" d="M9,6.5c-0.2,0-0.3-0.1-0.4-0.3L8.3,5.7C8.1,5.5,8.2,5.1,8.5,5C8.7,4.9,9,5,9.2,5.2l0.3,0.5
					c0.1,0.2,0.1,0.5-0.2,0.7C9.2,6.4,9.1,6.5,9,6.5L9,6.5z"/>
			</g>
			<g>
				<path class="st2" d="M18.4,22.7c-0.2,0-0.3-0.1-0.4-0.2L17.7,22c-0.1-0.2-0.1-0.5,0.2-0.7c0.2-0.1,0.5-0.1,0.7,0.2l0.3,0.5
					c0.1,0.2,0.1,0.5-0.2,0.7C18.6,22.7,18.5,22.7,18.4,22.7L18.4,22.7z"/>
			</g>
			<g>
				<path class="st2" d="M5.2,19.2c-0.2,0-0.3-0.1-0.4-0.3c-0.1-0.2-0.1-0.5,0.2-0.7l0.5-0.3c0.2-0.1,0.5-0.1,0.7,0.2
					c0.1,0.2,0.1,0.5-0.2,0.7l-0.5,0.3C5.3,19.1,5.3,19.2,5.2,19.2L5.2,19.2z"/>
			</g>
			<g>
				<path class="st2" d="M21.4,9.8c-0.2,0-0.3-0.1-0.4-0.2C20.9,9.3,21,9,21.2,8.8l0.5-0.3c0.2-0.1,0.5-0.1,0.7,0.2
					c0.1,0.2,0.1,0.5-0.2,0.7l-0.5,0.3C21.6,9.8,21.5,9.8,21.4,9.8L21.4,9.8z"/>
			</g>
		</g>
	</g>
	<g class="st1">
		<path class="st2" d="M10.5,17.8c-0.3,0-0.5-0.1-0.7-0.3c-0.4-0.4-0.4-1,0-1.4l2.9-2.9c0.4-0.4,1-0.4,1.4,0c0.4,0.4,0.4,1,0,1.4
			l-2.9,2.9C11.1,17.8,10.8,17.8,10.5,17.8L10.5,17.8z"/>
	</g>
</g>
<g class="st0">
	<g class="st1">
		<path class="st2" d="M15.7,24.6c-0.3,0-0.5-0.2-0.5-0.5v-6c0-0.3,0.2-0.5,0.5-0.5h6c0.3,0,0.5,0.2,0.5,0.5c0,0.3-0.2,0.5-0.5,0.5
			h-5.5v5.5C16.2,24.4,16,24.6,15.7,24.6L15.7,24.6z"/>
	</g>
	<g class="st1">
		<path class="st2" d="M15.7,25.1H5.4c-0.6,0-1-0.4-1-1V3.6c0-0.6,0.4-1,1-1h16.3c0.6,0,1,0.4,1,1v14.5c0,0.3-0.1,0.5-0.3,0.7l-6,6
			C16.2,25,16,25.1,15.7,25.1L15.7,25.1z M6.4,23.1h8.9l5.4-5.4V4.6H6.4V23.1L6.4,23.1z"/>
	</g>
	<g class="st1">
		<path class="st2" d="M14.6,7.9H8.8c-0.3,0-0.5-0.2-0.5-0.5s0.2-0.5,0.5-0.5h5.9c0.3,0,0.5,0.2,0.5,0.5S14.9,7.9,14.6,7.9L14.6,7.9
			z"/>
	</g>
	<g class="st1">
		<path class="st2" d="M18.5,10.3H8.8c-0.3,0-0.5-0.2-0.5-0.5c0-0.3,0.2-0.5,0.5-0.5h9.8c0.3,0,0.5,0.2,0.5,0.5
			C19,10.1,18.8,10.3,18.5,10.3L18.5,10.3z"/>
	</g>
	<g class="st1">
		<path class="st2" d="M18.5,12.7H8.8c-0.3,0-0.5-0.2-0.5-0.5c0-0.3,0.2-0.5,0.5-0.5h9.8c0.3,0,0.5,0.2,0.5,0.5
			C19,12.5,18.8,12.7,18.5,12.7L18.5,12.7z"/>
	</g>
	<g class="st1">
		<path class="st2" d="M12.9,15.1H8.8c-0.3,0-0.5-0.2-0.5-0.5c0-0.3,0.2-0.5,0.5-0.5h4.1c0.3,0,0.5,0.2,0.5,0.5
			C13.4,14.9,13.1,15.1,12.9,15.1L12.9,15.1z"/>
	</g>
	<g class="st1">
		<path class="st2" d="M11.6,4.4H5.8c-0.3,0-0.5-0.2-0.5-0.5s0.2-0.5,0.5-0.5h5.9c0.3,0,0.5,0.2,0.5,0.5S11.9,4.4,11.6,4.4L11.6,4.4
			z"/>
	</g>
</g>
<g class="st0">
	<g class="st1">
		<path class="st2" d="M13.6,13.1c-2.1,0-3.8-1.9-3.8-4.2c0-2.3,1.7-4.2,3.8-4.2c2.1,0,3.8,1.9,3.8,4.2
			C17.4,11.3,15.7,13.1,13.6,13.1L13.6,13.1z M13.6,6.7c-1,0-1.8,1-1.8,2.2c0,1.2,0.8,2.2,1.8,2.2c1,0,1.8-1,1.8-2.2
			C15.4,7.7,14.6,6.7,13.6,6.7L13.6,6.7z"/>
	</g>
	<g class="st1">
		<path class="st2" d="M18.9,22.9H8.2c-0.5,0-1-0.4-1-0.9c-0.1-1.2-0.2-2.3-0.2-3.5c-0.1-1.4,1-3,2.3-3.5c2.8-1,5.8-1,8.5,0
			c1.4,0.5,2.4,2.1,2.3,3.5L19.9,22C19.9,22.5,19.5,22.9,18.9,22.9L18.9,22.9z M9.1,20.9H18l0.2-2.5c0-0.4-0.4-1.2-1-1.5
			c-2.3-0.8-4.8-0.8-7.1,0c-0.6,0.2-1,1-1,1.5C9,19.2,9.1,20.1,9.1,20.9L9.1,20.9z"/>
	</g>
	<g class="st1">
		<path class="st2" d="M18.9,22.9H8.2c-0.5,0-1-0.4-1-0.9c-0.1-1.2-0.2-2.3-0.2-3.5c-0.1-1.4,1-3,2.3-3.5c2.8-1,5.8-1,8.5,0
			c1.4,0.5,2.4,2.1,2.3,3.5L19.9,22C19.9,22.5,19.5,22.9,18.9,22.9L18.9,22.9z M9.1,20.9H18l0.2-2.5c0-0.4-0.4-1.2-1-1.5
			c-2.3-0.8-4.8-0.8-7.1,0c-0.6,0.2-1,1-1,1.5C9,19.2,9.1,20.1,9.1,20.9L9.1,20.9z"/>
	</g>
	<g class="st1">
		<path class="st2" d="M25.4,21.3h-4.3c-0.3,0-0.5-0.2-0.5-0.5c0-0.3,0.2-0.5,0.5-0.5h3.8l0.2-2.5c0-0.5-0.4-1.4-1.1-1.6
			c-1-0.3-2-0.5-3-0.6c-0.3,0-0.5-0.2-0.5-0.5c0-0.3,0.2-0.5,0.5-0.5c0,0,0,0,0,0c1.1,0,2.3,0.2,3.4,0.6c1,0.4,1.9,1.6,1.8,2.6
			l-0.2,3C25.9,21.1,25.7,21.3,25.4,21.3L25.4,21.3z"/>
	</g>
	<g class="st1">
		<path class="st2" d="M22.1,13.5c-1.5,0-2.7-1.3-2.7-3c0-1.7,1.2-3,2.7-3c1.5,0,2.7,1.3,2.7,3C24.8,12.2,23.6,13.5,22.1,13.5
			L22.1,13.5z M22.1,8.5c-0.9,0-1.7,0.9-1.7,2c0,1.1,0.8,2,1.7,2c0.9,0,1.7-0.9,1.7-2C23.8,9.4,23,8.5,22.1,8.5L22.1,8.5z"/>
	</g>
	<g class="st1">
		<path class="st2" d="M6,21.3H1.7c-0.3,0-0.5-0.2-0.5-0.5l-0.2-3c-0.1-1,0.7-2.3,1.8-2.6c1.1-0.4,2.2-0.6,3.4-0.6
			c0.3,0,0.5,0.2,0.5,0.5c0,0.3-0.2,0.5-0.5,0.5c-1,0-2.1,0.2-3,0.6C2.4,16.4,2,17.2,2,17.8l0.2,2.5H6c0.3,0,0.5,0.2,0.5,0.5
			C6.5,21.1,6.3,21.3,6,21.3L6,21.3z"/>
	</g>
	<g class="st1">
		<path class="st2" d="M5,13.5c-1.5,0-2.7-1.3-2.7-3c0-1.7,1.2-3,2.7-3c1.5,0,2.7,1.3,2.7,3C7.7,12.2,6.5,13.5,5,13.5L5,13.5z
			 M5,8.5c-0.9,0-1.7,0.9-1.7,2c0,1.1,0.7,2,1.7,2c0.9,0,1.7-0.9,1.7-2C6.7,9.4,5.9,8.5,5,8.5L5,8.5z"/>
	</g>
</g>
<g>
	<circle class="st2" cx="8.2" cy="14" r="0.9"/>
	<g>
		<path class="st3" d="M16,10.6c-2.6,0-4.6-2.1-4.6-4.6c0-2.6,2.1-4.6,4.6-4.6s4.6,2.1,4.6,4.6C20.6,8.5,18.6,10.6,16,10.6L16,10.6z
			"/>
	</g>
	<g>
		<path class="st2" d="M16,8.5c-1.4,0-2.6-1.2-2.6-2.6s1.2-2.6,2.6-2.6s2.6,1.2,2.6,2.6S17.4,8.5,16,8.5L16,8.5z M16,4.3
			c-0.9,0-1.6,0.7-1.6,1.6s0.7,1.6,1.6,1.6c0.9,0,1.6-0.7,1.6-1.6S16.9,4.3,16,4.3L16,4.3z"/>
	</g>
	<g>
		<path class="st2" d="M19.3,26.3h-1.5c-1.1,0-2-0.8-2.2-1.8c-1.2,0.2-2.5,0.2-3.8,0.1c-0.2,1-1.1,1.7-2.2,1.7H8.2
			c-1.2,0-2.2-1-2.2-2.2v-2c-1-0.9-1.8-1.9-2.3-3.1c-1.2,0-2.1-1-2.1-2.2v-1.5c0-1.2,1-2.2,2.1-2.2C4.1,12,4.9,10.9,5.9,10V8.5
			c0-0.4,0.2-0.7,0.5-0.8C7.6,7.1,8.9,7.2,9.8,8c0.8-0.2,1.6-0.4,2.4-0.5l0.2,1.9c-0.9,0.1-1.7,0.3-2.5,0.6c-0.4,0.1-0.8,0-1.1-0.3
			c-0.2-0.3-0.6-0.5-1-0.5v1.3c0,0.3-0.1,0.6-0.4,0.8c-1.1,0.9-1.9,1.9-2.3,3.1C5,14.7,4.6,15,4.2,15H3.7c-0.2,0-0.3,0.1-0.3,0.3
			v1.5c0,0.2,0.1,0.3,0.3,0.3h0.6c0.4,0,0.8,0.3,0.9,0.6c0.4,1.2,1.2,2.2,2.3,3.1c0.2,0.2,0.4,0.5,0.4,0.8v2.4
			c0,0.2,0.1,0.3,0.3,0.3h1.5c0.2,0,0.3-0.1,0.3-0.3v-0.6c0-0.3,0.1-0.6,0.4-0.7c0.2-0.2,0.5-0.2,0.8-0.2c1.7,0.4,3.5,0.3,5.1-0.1
			c0.3-0.1,0.6,0,0.8,0.2c0.2,0.2,0.4,0.5,0.4,0.8v0.7c0,0.2,0.1,0.3,0.3,0.3h1.5c0.2,0,0.3-0.1,0.3-0.3v-2.8c0-0.3,0.1-0.5,0.3-0.7
			c1.4-1.2,2.2-2.8,2.2-4.5c0-0.2,0.1-0.4,0.2-0.6c-0.2-0.1-0.3-0.3-0.3-0.5c-0.4-1.9-1.8-3.5-3.9-4.5L19,8.7
			c1.8,0.9,3.3,2.3,4.2,3.8c0-0.4,0.2-0.7,0.5-0.9c0.4-0.2,0.8-0.1,1.1,0.2c0.6,0.6,0.9,1.3,0.9,2.2c0,1.1-0.6,2.2-1.6,2.7
			c-0.2,1.9-1,3.7-2.5,5.1v2.4C21.5,25.3,20.5,26.3,19.3,26.3L19.3,26.3z"/>
	</g>
</g>
</svg>
