<?xml version="1.0" encoding="utf-8"?>
<!-- Generator: Adobe Illustrator 22.0.0, SVG Export Plug-In . SVG Version: 6.00 Build 0)  -->
<svg version="1.1" id="Layer_1" xmlns="http://www.w3.org/2000/svg" xmlns:xlink="http://www.w3.org/1999/xlink" x="0px" y="0px"
	 viewBox="0 0 62 32.7" style="enable-background:new 0 0 62 32.7;" xml:space="preserve">
<style type="text/css">
	.st0{fill:#2539CC;}
</style>
<g>
	<path class="st0" d="M54.1,18.6H7.6c-0.8,0-1.5-0.7-1.5-1.5s0.7-1.5,1.5-1.5h46.5c0.8,0,1.5,0.7,1.5,1.5S54.9,18.6,54.1,18.6z"/>
	<g>
		<path class="st0" d="M54.5,18.7c-0.4,0-0.8-0.1-1.1-0.4L43.1,8c-0.6-0.6-0.6-1.5,0-2.1s1.5-0.6,2.1,0l10.3,10.3
			c0.6,0.6,0.6,1.5,0,2.1C55.3,18.5,54.9,18.7,54.5,18.7z"/>
		<path class="st0" d="M44.7,28.7c-0.4,0-0.8-0.1-1.1-0.4c-0.6-0.6-0.6-1.5,0-2.1l9.4-9.4c0.6-0.6,1.5-0.6,2.1,0s0.6,1.5,0,2.1
			l-9.4,9.4C45.4,28.6,45.1,28.7,44.7,28.7z"/>
	</g>
</g>
</svg>
