<?xml version="1.0" encoding="utf-8"?>
<!-- Generator: Adobe Illustrator 22.0.0, SVG Export Plug-In . SVG Version: 6.00 Build 0)  -->
<svg version="1.1" id="Layer_1" xmlns="http://www.w3.org/2000/svg" xmlns:xlink="http://www.w3.org/1999/xlink" x="0px" y="0px"
	 viewBox="0 0 76.3 70.2" style="enable-background:new 0 0 76.3 70.2;" xml:space="preserve">
<style type="text/css">
	.st0{fill:url(#SVGID_1_);}
	.st1{fill:url(#SVGID_2_);}
	.st2{fill:url(#SVGID_3_);}
	.st3{fill:url(#SVGID_4_);}
	.st4{fill:url(#SVGID_5_);}
	.st5{fill:url(#SVGID_6_);}
	.st6{fill:url(#SVGID_7_);}
	.st7{fill:url(#SVGID_8_);}
</style>
<g>
	
		<linearGradient id="SVGID_1_" gradientUnits="userSpaceOnUse" x1="4" y1="247.5" x2="68.5" y2="247.5" gradientTransform="matrix(1 0 0 -1 0 281)">
		<stop  offset="0" style="stop-color:#72FFC9"/>
		<stop  offset="0.1817" style="stop-color:#74FFC0"/>
		<stop  offset="0.4797" style="stop-color:#79FFA7"/>
		<stop  offset="0.8549" style="stop-color:#81FF7F"/>
		<stop  offset="1" style="stop-color:#84FF6E"/>
	</linearGradient>
	<path class="st0" d="M36.3,1.3C18.5,1.3,4,15.8,4,33.5s14.5,32.2,32.3,32.2s32.2-14.5,32.2-32.2S54.1,1.3,36.3,1.3z M66,32.3h-5.5
		c-0.3-6-2.8-11.6-7.1-15.9c-4.3-4.3-9.9-6.8-15.9-7.1V3.8C45,4.1,52,7.2,57.3,12.5S65.7,24.8,66,32.3z M54.3,49.7
		c3.7-4.1,5.9-9.4,6.2-15H66c-0.3,7-3.1,13.7-7.8,18.9L54.3,49.7z M18.3,17.3c-4,4.5-6.2,10.2-6.2,16.2s2.2,11.8,6.2,16.2l-3.9,3.9
		c-5.1-5.5-7.9-12.7-7.9-20.1s2.8-14.6,7.9-20.1L18.3,17.3z M35,9.3c-5.5,0.3-10.9,2.5-15,6.2l-3.9-3.9C21.3,6.8,28,4.1,35,3.8V9.3z
		 M36.3,55.3c-12,0-21.8-9.8-21.8-21.8s9.8-21.8,21.8-21.8S58,21.5,58,33.5S48.3,55.3,36.3,55.3z M20.1,51.5
		c4.5,4,10.2,6.2,16.2,6.2s11.8-2.2,16.2-6.2l3.9,3.9c-5.5,5.1-12.7,7.9-20.1,7.9s-14.6-2.8-20.1-7.9L20.1,51.5z"/>
	
		<linearGradient id="SVGID_2_" gradientUnits="userSpaceOnUse" x1="13.0498" y1="263.45" x2="15.5498" y2="263.45" gradientTransform="matrix(1 0 0 -1 0 281)">
		<stop  offset="0" style="stop-color:#72FFC9"/>
		<stop  offset="0.1817" style="stop-color:#74FFC0"/>
		<stop  offset="0.4797" style="stop-color:#79FFA7"/>
		<stop  offset="0.8549" style="stop-color:#81FF7F"/>
		<stop  offset="1" style="stop-color:#84FF6E"/>
	</linearGradient>
	<rect x="13" y="16.3" class="st1" width="2.5" height="2.5"/>
	
		<linearGradient id="SVGID_3_" gradientUnits="userSpaceOnUse" x1="9.0498" y1="255.45" x2="11.5498" y2="255.45" gradientTransform="matrix(1 0 0 -1 0 281)">
		<stop  offset="0" style="stop-color:#72FFC9"/>
		<stop  offset="0.1817" style="stop-color:#74FFC0"/>
		<stop  offset="0.4797" style="stop-color:#79FFA7"/>
		<stop  offset="0.8549" style="stop-color:#81FF7F"/>
		<stop  offset="1" style="stop-color:#84FF6E"/>
	</linearGradient>
	<rect x="9" y="24.3" class="st2" width="2.5" height="2.5"/>
	
		<linearGradient id="SVGID_4_" gradientUnits="userSpaceOnUse" x1="8.0498" y1="247.45" x2="10.5498" y2="247.45" gradientTransform="matrix(1 0 0 -1 0 281)">
		<stop  offset="0" style="stop-color:#72FFC9"/>
		<stop  offset="0.1817" style="stop-color:#74FFC0"/>
		<stop  offset="0.4797" style="stop-color:#79FFA7"/>
		<stop  offset="0.8549" style="stop-color:#81FF7F"/>
		<stop  offset="1" style="stop-color:#84FF6E"/>
	</linearGradient>
	<rect x="8" y="32.3" class="st3" width="2.5" height="2.5"/>
	
		<linearGradient id="SVGID_5_" gradientUnits="userSpaceOnUse" x1="9.0498" y1="239.45" x2="11.5498" y2="239.45" gradientTransform="matrix(1 0 0 -1 0 281)">
		<stop  offset="0" style="stop-color:#72FFC9"/>
		<stop  offset="0.1817" style="stop-color:#74FFC0"/>
		<stop  offset="0.4797" style="stop-color:#79FFA7"/>
		<stop  offset="0.8549" style="stop-color:#81FF7F"/>
		<stop  offset="1" style="stop-color:#84FF6E"/>
	</linearGradient>
	<rect x="9" y="40.3" class="st4" width="2.5" height="2.5"/>
	
		<linearGradient id="SVGID_6_" gradientUnits="userSpaceOnUse" x1="13.0498" y1="231.45" x2="15.5498" y2="231.45" gradientTransform="matrix(1 0 0 -1 0 281)">
		<stop  offset="0" style="stop-color:#72FFC9"/>
		<stop  offset="0.1817" style="stop-color:#74FFC0"/>
		<stop  offset="0.4797" style="stop-color:#79FFA7"/>
		<stop  offset="0.8549" style="stop-color:#81FF7F"/>
		<stop  offset="1" style="stop-color:#84FF6E"/>
	</linearGradient>
	<rect x="13" y="48.3" class="st5" width="2.5" height="2.5"/>
	
		<linearGradient id="SVGID_7_" gradientUnits="userSpaceOnUse" x1="26.0498" y1="247.5" x2="46.5498" y2="247.5" gradientTransform="matrix(1 0 0 -1 0 281)">
		<stop  offset="0" style="stop-color:#72FFC9"/>
		<stop  offset="0.1817" style="stop-color:#74FFC0"/>
		<stop  offset="0.4797" style="stop-color:#79FFA7"/>
		<stop  offset="0.8549" style="stop-color:#81FF7F"/>
		<stop  offset="1" style="stop-color:#84FF6E"/>
	</linearGradient>
	<path class="st6" d="M36.3,23.3c-5.7,0-10.3,4.6-10.3,10.2s4.6,10.2,10.3,10.2s10.2-4.6,10.2-10.2S42,23.3,36.3,23.3z M36.3,41.3
		c-4.3,0-7.8-3.5-7.8-7.8s3.5-7.8,7.8-7.8s7.7,3.5,7.7,7.8S40.6,41.3,36.3,41.3z"/>
	
		<linearGradient id="SVGID_8_" gradientUnits="userSpaceOnUse" x1="18.1997" y1="247.3625" x2="54.4067" y2="247.3625" gradientTransform="matrix(1 0 0 -1 0 281)">
		<stop  offset="0" style="stop-color:#72FFC9"/>
		<stop  offset="0.1817" style="stop-color:#74FFC0"/>
		<stop  offset="0.4797" style="stop-color:#79FFA7"/>
		<stop  offset="0.8549" style="stop-color:#81FF7F"/>
		<stop  offset="1" style="stop-color:#84FF6E"/>
	</linearGradient>
	<path class="st7" d="M48.7,23.1l0.8-2.1l-0.6-0.6c-1.2-1.2-2.6-2.2-4.1-3L44.1,17l-1.7,1.5c-0.7-0.3-1.5-0.5-2.2-0.7l-0.5-2.2
		l-0.8-0.1c-1.9-0.3-3.2-0.3-5.1,0L33,15.6l-0.5,2.2c-0.7,0.2-1.5,0.4-2.2,0.7l-1.7-1.4h-0.1l-0.7,0.4c-1.5,0.8-2.9,1.8-4.1,3
		l-0.6,0.6l0.8,2.1c-0.5,0.6-1,1.2-1.4,1.9l-2.2-0.2l-0.4,0.8c-0.7,1.5-1.3,3.1-1.6,4.8l-0.1,0.8l1.9,1.2c0,0.4,0,0.8,0,1.2
		s0,0.8,0,1.2l-1.9,1.2l0.1,0.8c0.3,1.7,0.8,3.3,1.6,4.8l0.4,0.8l2.2-0.2c0.4,0.6,0.9,1.3,1.4,1.9l-0.8,2.1l0.6,0.6
		c1.2,1.2,2.6,2.2,4.1,3l0.7,0.4l1.7-1.5c0.7,0.3,1.5,0.5,2.2,0.7l0.5,2.2l0.8,0.1c0.9,0.1,1.8,0.2,2.5,0.2c0.8,0,1.6-0.1,2.5-0.2
		l0.8-0.1l0.5-2.2c0.7-0.2,1.5-0.4,2.2-0.7l1.7,1.4H44l0.7-0.4c1.5-0.8,2.9-1.8,4.1-3l0.6-0.6l-0.8-2.1c0.5-0.6,1-1.2,1.4-1.9
		l2.2,0.2l0.4-0.8c0.7-1.5,1.3-3.1,1.6-4.8l0.1-0.8l-1.9-1.2c0-0.4,0-0.8,0-1.2s0-0.8,0-1.2l1.9-1.2l-0.1-0.8
		c-0.3-1.7-0.8-3.3-1.6-4.8l-0.4-0.8L50,25C49.7,24.3,49.2,23.6,48.7,23.1z M49.9,31.8c0.1,0.6,0.1,1.1,0.1,1.7s0,1-0.1,1.7L49.8,36
		l1.8,1.1c-0.2,0.9-0.5,1.7-0.8,2.6l-2-0.1h-0.1l-0.4,0.7c-0.5,0.9-1.2,1.8-2,2.7l-0.5,0.6l0.8,2c-0.7,0.6-1.4,1.1-2.2,1.6l-1.6-1.4
		l-0.7,0.3c-1,0.5-2.1,0.8-3.1,1l-0.8,0.2l-0.5,2c-1,0.1-1.7,0.1-2.7,0l-0.5-2l-0.8-0.2c-1.1-0.2-2.1-0.6-3.1-1l-0.7-0.3l-1.6,1.4
		c-0.8-0.5-1.5-1-2.2-1.6l0.8-2L26.4,43c-0.8-0.8-1.4-1.7-2-2.7L24,39.6l-2.1,0.1c-0.4-0.8-0.6-1.7-0.8-2.6l1.8-1.1l-0.1-0.8
		c-0.1-0.6-0.1-1.1-0.1-1.7s0-1,0.1-1.7l0.1-0.8l-1.8-1.1c0.2-0.9,0.5-1.7,0.8-2.6l2,0.1H24l0.4-0.7c0.5-0.9,1.2-1.8,2-2.7l0.5-0.6
		l-0.8-2c0.7-0.6,1.4-1.1,2.2-1.6l1.6,1.4l0.7-0.3c1-0.5,2.1-0.8,3.1-1l0.8-0.2l0.5-2c1-0.1,1.7-0.1,2.7,0l0.5,2l0.8,0.2
		c1.1,0.2,2.1,0.6,3.1,1l0.7,0.3l1.6-1.4c0.8,0.5,1.5,1,2.2,1.6l-0.8,2l0.5,0.6c0.8,0.8,1.4,1.7,2,2.7l0.4,0.7l2.1-0.1
		c0.4,0.8,0.6,1.7,0.8,2.6L49.8,31L49.9,31.8z"/>
</g>
</svg>
