<?xml version="1.0" encoding="utf-8"?>
<!-- Generator: Adobe Illustrator 22.0.0, SVG Export Plug-In . SVG Version: 6.00 Build 0)  -->
<svg version="1.1" id="Isolation_Mode" xmlns="http://www.w3.org/2000/svg" xmlns:xlink="http://www.w3.org/1999/xlink" x="0px"
	 y="0px" viewBox="0 0 70 77.4" style="enable-background:new 0 0 70 77.4;" xml:space="preserve">
<style type="text/css">
	.st0{fill:url(#SVGID_1_);}
	.st1{fill:url(#SVGID_2_);}
	.st2{fill:url(#SVGID_3_);}
	.st3{fill:url(#SVGID_4_);}
	.st4{fill:url(#SVGID_5_);}
	.st5{fill:url(#SVGID_6_);}
	.st6{fill:url(#SVGID_7_);}
	.st7{fill:url(#SVGID_8_);}
	.st8{fill:url(#SVGID_9_);}
	.st9{fill:url(#SVGID_10_);}
	.st10{fill:url(#SVGID_11_);}
	.st11{fill:url(#SVGID_12_);}
	.st12{fill:url(#SVGID_13_);}
	.st13{fill:url(#SVGID_14_);}
	.st14{fill:url(#SVGID_15_);}
	.st15{fill:url(#SVGID_16_);}
	.st16{fill:url(#SVGID_17_);}
	.st17{fill:url(#SVGID_18_);}
	.st18{fill:url(#SVGID_19_);}
	.st19{fill:url(#SVGID_20_);}
	.st20{fill:url(#SVGID_21_);}
	.st21{fill:url(#SVGID_22_);}
	.st22{fill:url(#SVGID_23_);}
	.st23{fill:url(#SVGID_24_);}
	.st24{fill:url(#SVGID_25_);}
</style>
<g>
	<g>
		<g>
			<g>
				
					<linearGradient id="SVGID_1_" gradientUnits="userSpaceOnUse" x1="-3.4158" y1="235.1352" x2="55.0842" y2="224.1352" gradientTransform="matrix(1 0 0 -1 0 286)">
					<stop  offset="0" style="stop-color:#72FFC9"/>
					<stop  offset="0.1817" style="stop-color:#74FFC0"/>
					<stop  offset="0.4797" style="stop-color:#79FFA7"/>
					<stop  offset="0.8549" style="stop-color:#81FF7F"/>
					<stop  offset="1" style="stop-color:#84FF6E"/>
				</linearGradient>
				<rect x="43.7" y="59" class="st0" width="3" height="2"/>
			</g>
		</g>
	</g>
	<g>
		<g>
			
				<linearGradient id="SVGID_2_" gradientUnits="userSpaceOnUse" x1="4.5676" y1="277.5913" x2="63.0676" y2="266.5913" gradientTransform="matrix(1 0 0 -1 0 286)">
				<stop  offset="0" style="stop-color:#72FFC9"/>
				<stop  offset="0.1817" style="stop-color:#74FFC0"/>
				<stop  offset="0.4797" style="stop-color:#79FFA7"/>
				<stop  offset="0.8549" style="stop-color:#81FF7F"/>
				<stop  offset="1" style="stop-color:#84FF6E"/>
			</linearGradient>
			<rect x="22.7" y="9" class="st1" width="2" height="6"/>
		</g>
	</g>
	<g>
		<g>
			
				<linearGradient id="SVGID_3_" gradientUnits="userSpaceOnUse" x1="1.6772" y1="262.2202" x2="60.1772" y2="251.2202" gradientTransform="matrix(1 0 0 -1 0 286)">
				<stop  offset="0" style="stop-color:#72FFC9"/>
				<stop  offset="0.1817" style="stop-color:#74FFC0"/>
				<stop  offset="0.4797" style="stop-color:#79FFA7"/>
				<stop  offset="0.8549" style="stop-color:#81FF7F"/>
				<stop  offset="1" style="stop-color:#84FF6E"/>
			</linearGradient>
			<rect x="2.7" y="24" class="st2" width="11" height="2"/>
		</g>
	</g>
	<g>
		<g>
			<g>
				
					<linearGradient id="SVGID_4_" gradientUnits="userSpaceOnUse" x1="-4.0203" y1="266.4881" x2="54.4797" y2="255.4881" gradientTransform="matrix(1 0 0 -1 0 286)">
					<stop  offset="0" style="stop-color:#72FFC9"/>
					<stop  offset="0.1817" style="stop-color:#74FFC0"/>
					<stop  offset="0.4797" style="stop-color:#79FFA7"/>
					<stop  offset="0.8549" style="stop-color:#81FF7F"/>
					<stop  offset="1" style="stop-color:#84FF6E"/>
				</linearGradient>
				<path class="st3" d="M28.2,28h-6v-6h6V28z M24.2,26h2v-2h-2V26z"/>
			</g>
		</g>
		<g>
			<g>
				
					<linearGradient id="SVGID_5_" gradientUnits="userSpaceOnUse" x1="3.3862" y1="271.3091" x2="61.8862" y2="260.3091" gradientTransform="matrix(1 0 0 -1 0 286)">
					<stop  offset="0" style="stop-color:#72FFC9"/>
					<stop  offset="0.1817" style="stop-color:#74FFC0"/>
					<stop  offset="0.4797" style="stop-color:#79FFA7"/>
					<stop  offset="0.8549" style="stop-color:#81FF7F"/>
					<stop  offset="1" style="stop-color:#84FF6E"/>
				</linearGradient>
				<path class="st4" d="M18.7,20h-6v-6h6V20z M14.7,18h2v-2h-2V18z"/>
			</g>
		</g>
		<g>
			<g>
				
					<linearGradient id="SVGID_6_" gradientUnits="userSpaceOnUse" x1="1.9334" y1="263.5823" x2="60.4333" y2="252.5823" gradientTransform="matrix(1 0 0 -1 0 286)">
					<stop  offset="0" style="stop-color:#72FFC9"/>
					<stop  offset="0.1817" style="stop-color:#74FFC0"/>
					<stop  offset="0.4797" style="stop-color:#79FFA7"/>
					<stop  offset="0.8549" style="stop-color:#81FF7F"/>
					<stop  offset="1" style="stop-color:#84FF6E"/>
				</linearGradient>
				<path class="st5" d="M18.7,28h-6v-6h6V28z M14.7,26h2v-2h-2V26z"/>
			</g>
		</g>
		<g>
			<g>
				
					<linearGradient id="SVGID_7_" gradientUnits="userSpaceOnUse" x1="0.4805" y1="255.8555" x2="58.9805" y2="244.8555" gradientTransform="matrix(1 0 0 -1 0 286)">
					<stop  offset="0" style="stop-color:#72FFC9"/>
					<stop  offset="0.1817" style="stop-color:#74FFC0"/>
					<stop  offset="0.4797" style="stop-color:#79FFA7"/>
					<stop  offset="0.8549" style="stop-color:#81FF7F"/>
					<stop  offset="1" style="stop-color:#84FF6E"/>
				</linearGradient>
				<path class="st6" d="M18.7,36h-6v-6h6V36z M14.7,34h2v-2h-2V34z"/>
			</g>
		</g>
	</g>
	<g>
		<g>
			
				<linearGradient id="SVGID_8_" gradientUnits="userSpaceOnUse" x1="6.1931" y1="248.542" x2="56.8992" y2="239.0076" gradientTransform="matrix(1 0 0 -1 0 286)">
				<stop  offset="0" style="stop-color:#72FFC9"/>
				<stop  offset="0.1817" style="stop-color:#74FFC0"/>
				<stop  offset="0.4797" style="stop-color:#79FFA7"/>
				<stop  offset="0.8549" style="stop-color:#81FF7F"/>
				<stop  offset="1" style="stop-color:#84FF6E"/>
			</linearGradient>
			<polygon class="st7" points="50.7,46 34.7,46 34.7,42 32.7,42 32.7,40 36.7,40 36.7,44 50.7,44 			"/>
		</g>
	</g>
	<g>
		<g>
			
				<linearGradient id="SVGID_9_" gradientUnits="userSpaceOnUse" x1="0.3679" y1="265.8938" x2="58.8679" y2="254.8938" gradientTransform="matrix(1 0 0 -1 0 286)">
				<stop  offset="0" style="stop-color:#72FFC9"/>
				<stop  offset="0.1817" style="stop-color:#74FFC0"/>
				<stop  offset="0.4797" style="stop-color:#79FFA7"/>
				<stop  offset="0.8549" style="stop-color:#81FF7F"/>
				<stop  offset="1" style="stop-color:#84FF6E"/>
			</linearGradient>
			<rect x="46.7" y="28" class="st8" width="2" height="2"/>
		</g>
	</g>
	<g>
		<g>
			
				<linearGradient id="SVGID_10_" gradientUnits="userSpaceOnUse" x1="-1.0588" y1="263.6236" x2="57.4412" y2="252.6236" gradientTransform="matrix(1 0 0 -1 0 286)">
				<stop  offset="0" style="stop-color:#72FFC9"/>
				<stop  offset="0.1817" style="stop-color:#74FFC0"/>
				<stop  offset="0.4797" style="stop-color:#79FFA7"/>
				<stop  offset="0.8549" style="stop-color:#81FF7F"/>
				<stop  offset="1" style="stop-color:#84FF6E"/>
			</linearGradient>
			<polygon class="st9" points="37.7,34 30.7,34 30.7,32 35.7,32 35.7,26 30.7,26 30.7,24 37.7,24 			"/>
		</g>
	</g>
	<g>
		<g>
			
				<linearGradient id="SVGID_11_" gradientUnits="userSpaceOnUse" x1="4.3425" y1="276.3943" x2="62.8425" y2="265.3943" gradientTransform="matrix(1 0 0 -1 0 286)">
				<stop  offset="0" style="stop-color:#72FFC9"/>
				<stop  offset="0.1817" style="stop-color:#74FFC0"/>
				<stop  offset="0.4797" style="stop-color:#79FFA7"/>
				<stop  offset="0.8549" style="stop-color:#81FF7F"/>
				<stop  offset="1" style="stop-color:#84FF6E"/>
			</linearGradient>
			<rect x="42.7" y="16" class="st10" width="2" height="2"/>
		</g>
	</g>
	<g>
		<g>
			
				<linearGradient id="SVGID_12_" gradientUnits="userSpaceOnUse" x1="3.616" y1="272.5309" x2="62.116" y2="261.5309" gradientTransform="matrix(1 0 0 -1 0 286)">
				<stop  offset="0" style="stop-color:#72FFC9"/>
				<stop  offset="0.1817" style="stop-color:#74FFC0"/>
				<stop  offset="0.4797" style="stop-color:#79FFA7"/>
				<stop  offset="0.8549" style="stop-color:#81FF7F"/>
				<stop  offset="1" style="stop-color:#84FF6E"/>
			</linearGradient>
			<rect x="42.7" y="20" class="st11" width="2" height="2"/>
		</g>
	</g>
	<g>
		<g>
			
				<linearGradient id="SVGID_13_" gradientUnits="userSpaceOnUse" x1="3.7527" y1="273.2573" x2="62.2527" y2="262.2573" gradientTransform="matrix(1 0 0 -1 0 286)">
				<stop  offset="0" style="stop-color:#72FFC9"/>
				<stop  offset="0.1817" style="stop-color:#74FFC0"/>
				<stop  offset="0.4797" style="stop-color:#79FFA7"/>
				<stop  offset="0.8549" style="stop-color:#81FF7F"/>
				<stop  offset="1" style="stop-color:#84FF6E"/>
			</linearGradient>
			<rect x="46.7" y="20" class="st12" width="2" height="2"/>
		</g>
	</g>
	<g>
		<g>
			
				<linearGradient id="SVGID_14_" gradientUnits="userSpaceOnUse" x1="-2.9011" y1="237.8717" x2="55.5989" y2="226.8717" gradientTransform="matrix(1 0 0 -1 0 286)">
				<stop  offset="0" style="stop-color:#72FFC9"/>
				<stop  offset="0.1817" style="stop-color:#74FFC0"/>
				<stop  offset="0.4797" style="stop-color:#79FFA7"/>
				<stop  offset="0.8549" style="stop-color:#81FF7F"/>
				<stop  offset="1" style="stop-color:#84FF6E"/>
			</linearGradient>
			<polygon class="st13" points="28.7,72 26.7,72 26.7,48 22.7,48 22.7,35 24.7,35 24.7,46 28.7,46 			"/>
		</g>
	</g>
	<g>
		<g>
			
				<linearGradient id="SVGID_15_" gradientUnits="userSpaceOnUse" x1="1.7456" y1="262.5834" x2="60.2456" y2="251.5835" gradientTransform="matrix(1 0 0 -1 0 286)">
				<stop  offset="0" style="stop-color:#72FFC9"/>
				<stop  offset="0.1817" style="stop-color:#74FFC0"/>
				<stop  offset="0.4797" style="stop-color:#79FFA7"/>
				<stop  offset="0.8549" style="stop-color:#81FF7F"/>
				<stop  offset="1" style="stop-color:#84FF6E"/>
			</linearGradient>
			<polygon class="st14" points="13.7,34 6.7,34 6.7,16 13.7,16 13.7,18 8.7,18 8.7,32 13.7,32 			"/>
		</g>
	</g>
	<g>
		<g>
			
				<linearGradient id="SVGID_16_" gradientUnits="userSpaceOnUse" x1="-3.1401" y1="236.6004" x2="55.3599" y2="225.6004" gradientTransform="matrix(1 0 0 -1 0 286)">
				<stop  offset="0" style="stop-color:#72FFC9"/>
				<stop  offset="0.1817" style="stop-color:#74FFC0"/>
				<stop  offset="0.4797" style="stop-color:#79FFA7"/>
				<stop  offset="0.8549" style="stop-color:#81FF7F"/>
				<stop  offset="1" style="stop-color:#84FF6E"/>
			</linearGradient>
			<path class="st15" d="M22.7,72h-2V57.2l-5.9-11.8c-0.1-0.1-0.1-0.3-0.1-0.4V35h2v9.8l5.9,11.8c0.1,0.1,0.1,0.3,0.1,0.4V72z"/>
		</g>
	</g>
	<g>
		<g>
			
				<linearGradient id="SVGID_17_" gradientUnits="userSpaceOnUse" x1="-1.1526" y1="247.1711" x2="57.3474" y2="236.1711" gradientTransform="matrix(1 0 0 -1 0 286)">
				<stop  offset="0" style="stop-color:#72FFC9"/>
				<stop  offset="0.1817" style="stop-color:#74FFC0"/>
				<stop  offset="0.4797" style="stop-color:#79FFA7"/>
				<stop  offset="0.8549" style="stop-color:#81FF7F"/>
				<stop  offset="1" style="stop-color:#84FF6E"/>
			</linearGradient>
			<rect x="30.7" y="44" class="st16" width="2" height="2"/>
		</g>
	</g>
	<g>
		<g>
			
				<linearGradient id="SVGID_18_" gradientUnits="userSpaceOnUse" x1="-0.1995" y1="252.2398" x2="58.3005" y2="241.2398" gradientTransform="matrix(1 0 0 -1 0 286)">
				<stop  offset="0" style="stop-color:#72FFC9"/>
				<stop  offset="0.1817" style="stop-color:#74FFC0"/>
				<stop  offset="0.4797" style="stop-color:#79FFA7"/>
				<stop  offset="0.8549" style="stop-color:#81FF7F"/>
				<stop  offset="1" style="stop-color:#84FF6E"/>
			</linearGradient>
			<rect x="26.7" y="38" class="st17" width="2" height="2"/>
		</g>
	</g>
	<g>
		<g>
			
				<linearGradient id="SVGID_19_" gradientUnits="userSpaceOnUse" x1="-0.9258" y1="248.3764" x2="57.5742" y2="237.3764" gradientTransform="matrix(1 0 0 -1 0 286)">
				<stop  offset="0" style="stop-color:#72FFC9"/>
				<stop  offset="0.1817" style="stop-color:#74FFC0"/>
				<stop  offset="0.4797" style="stop-color:#79FFA7"/>
				<stop  offset="0.8549" style="stop-color:#81FF7F"/>
				<stop  offset="1" style="stop-color:#84FF6E"/>
			</linearGradient>
			<rect x="26.7" y="42" class="st18" width="2" height="2"/>
		</g>
	</g>
	<g>
		<g>
			
				<linearGradient id="SVGID_20_" gradientUnits="userSpaceOnUse" x1="-1.8789" y1="243.3077" x2="56.6211" y2="232.3077" gradientTransform="matrix(1 0 0 -1 0 286)">
				<stop  offset="0" style="stop-color:#72FFC9"/>
				<stop  offset="0.1817" style="stop-color:#74FFC0"/>
				<stop  offset="0.4797" style="stop-color:#79FFA7"/>
				<stop  offset="0.8549" style="stop-color:#81FF7F"/>
				<stop  offset="1" style="stop-color:#84FF6E"/>
			</linearGradient>
			<rect x="30.7" y="48" class="st19" width="2" height="2"/>
		</g>
	</g>
	<g>
		<g>
			
				<linearGradient id="SVGID_21_" gradientUnits="userSpaceOnUse" x1="-1.7424" y1="244.0342" x2="56.7576" y2="233.0342" gradientTransform="matrix(1 0 0 -1 0 286)">
				<stop  offset="0" style="stop-color:#72FFC9"/>
				<stop  offset="0.1817" style="stop-color:#74FFC0"/>
				<stop  offset="0.4797" style="stop-color:#79FFA7"/>
				<stop  offset="0.8549" style="stop-color:#81FF7F"/>
				<stop  offset="1" style="stop-color:#84FF6E"/>
			</linearGradient>
			<rect x="34.7" y="48" class="st20" width="2" height="2"/>
		</g>
	</g>
	<g>
		<g>
			
				<linearGradient id="SVGID_22_" gradientUnits="userSpaceOnUse" x1="3.8425" y1="273.7362" x2="62.3425" y2="262.7362" gradientTransform="matrix(1 0 0 -1 0 286)">
				<stop  offset="0" style="stop-color:#72FFC9"/>
				<stop  offset="0.1817" style="stop-color:#74FFC0"/>
				<stop  offset="0.4797" style="stop-color:#79FFA7"/>
				<stop  offset="0.8549" style="stop-color:#81FF7F"/>
				<stop  offset="1" style="stop-color:#84FF6E"/>
			</linearGradient>
			<polygon class="st21" points="40.7,22 38.7,22 38.7,18 33.7,18 33.7,16 40.7,16 			"/>
		</g>
	</g>
	<g>
		<g>
			
				<linearGradient id="SVGID_23_" gradientUnits="userSpaceOnUse" x1="-0.354" y1="264.7133" x2="58.146" y2="253.7133" gradientTransform="matrix(1 0 0 -1 0 286)">
				<stop  offset="0" style="stop-color:#72FFC9"/>
				<stop  offset="0.1817" style="stop-color:#74FFC0"/>
				<stop  offset="0.4797" style="stop-color:#79FFA7"/>
				<stop  offset="0.8549" style="stop-color:#81FF7F"/>
				<stop  offset="1" style="stop-color:#84FF6E"/>
			</linearGradient>
			<rect x="37.2" y="28" class="st22" width="7" height="2"/>
		</g>
	</g>
	<g>
		<g>
			
				<linearGradient id="SVGID_24_" gradientUnits="userSpaceOnUse" x1="-4.24" y1="230.7517" x2="54.26" y2="219.7517" gradientTransform="matrix(1 0 0 -1 0 286)">
				<stop  offset="0" style="stop-color:#72FFC9"/>
				<stop  offset="0.1817" style="stop-color:#74FFC0"/>
				<stop  offset="0.4797" style="stop-color:#79FFA7"/>
				<stop  offset="0.8549" style="stop-color:#81FF7F"/>
				<stop  offset="1" style="stop-color:#84FF6E"/>
			</linearGradient>
			<polygon class="st23" points="32.7,72 30.7,72 30.7,54 27.7,54 27.7,52 32.7,52 			"/>
		</g>
	</g>
	<g>
		<g>
			
				<linearGradient id="SVGID_25_" gradientUnits="userSpaceOnUse" x1="3.016181e-02" y1="253.461" x2="58.5302" y2="242.461" gradientTransform="matrix(1 0 0 -1 0 286)">
				<stop  offset="0" style="stop-color:#72FFC9"/>
				<stop  offset="0.1817" style="stop-color:#74FFC0"/>
				<stop  offset="0.4797" style="stop-color:#79FFA7"/>
				<stop  offset="0.8549" style="stop-color:#81FF7F"/>
				<stop  offset="1" style="stop-color:#84FF6E"/>
			</linearGradient>
			<path class="st24" d="M44.7,72h-2V60c0-0.6,0.4-1,1-1h6c2.8,0,5-2.2,5-5v-9c0-0.6,0.4-1,1-1h5v-0.8l-5.9-12.8
				c-0.1-0.1-0.1-0.3-0.1-0.4c0-11-9-20-20-20h-16V8h16c12.1,0,21.9,9.7,22,21.8l5.9,12.8c0.1,0.1,0.1,0.3,0.1,0.4v2
				c0,0.6-0.4,1-1,1h-5v8c0,3.9-3.1,7-7,7h-5V72z"/>
		</g>
	</g>
</g>
</svg>
