<?xml version="1.0" encoding="utf-8"?>
<!-- Generator: Adobe Illustrator 22.0.0, SVG Export Plug-In . SVG Version: 6.00 Build 0)  -->
<svg version="1.1" id="Isolation_Mode" xmlns="http://www.w3.org/2000/svg" xmlns:xlink="http://www.w3.org/1999/xlink" x="0px"
	 y="0px" viewBox="0 0 80 59.4" style="enable-background:new 0 0 80 59.4;" xml:space="preserve">
<style type="text/css">
	.st0{fill:url(#SVGID_1_);}
	.st1{fill:url(#SVGID_2_);}
	.st2{fill:url(#SVGID_3_);}
	.st3{fill:url(#SVGID_4_);}
	.st4{fill:url(#SVGID_5_);}
	.st5{fill:url(#SVGID_6_);}
	.st6{fill:url(#SVGID_7_);}
	.st7{fill:url(#SVGID_8_);}
	.st8{fill:url(#SVGID_9_);}
	.st9{fill:url(#SVGID_10_);}
	.st10{fill:url(#SVGID_11_);}
	.st11{fill:url(#SVGID_12_);}
	.st12{fill:url(#SVGID_13_);}
	.st13{fill:url(#SVGID_14_);}
	.st14{fill:url(#SVGID_15_);}
	.st15{fill:url(#SVGID_16_);}
</style>
<g>
	<g>
		<g>
			
				<linearGradient id="SVGID_1_" gradientUnits="userSpaceOnUse" x1="6.5669" y1="256.1069" x2="77.0669" y2="256.6069" gradientTransform="matrix(1 0 0 -1 0 286)">
				<stop  offset="0" style="stop-color:#72FFC9"/>
				<stop  offset="0.1817" style="stop-color:#74FFC0"/>
				<stop  offset="0.4797" style="stop-color:#79FFA7"/>
				<stop  offset="0.8549" style="stop-color:#81FF7F"/>
				<stop  offset="1" style="stop-color:#84FF6E"/>
			</linearGradient>
			<path class="st0" d="M58,47.7H19c-0.6,0-1-0.4-1-1v-34c0-0.6,0.4-1,1-1h39v2H20v32h38V47.7z"/>
		</g>
	</g>
	<g>
		<g>
			
				<linearGradient id="SVGID_2_" gradientUnits="userSpaceOnUse" x1="6.554" y1="257.9117" x2="77.0539" y2="258.4117" gradientTransform="matrix(1 0 0 -1 0 286)">
				<stop  offset="0" style="stop-color:#72FFC9"/>
				<stop  offset="0.1817" style="stop-color:#74FFC0"/>
				<stop  offset="0.4797" style="stop-color:#79FFA7"/>
				<stop  offset="0.8549" style="stop-color:#81FF7F"/>
				<stop  offset="1" style="stop-color:#84FF6E"/>
			</linearGradient>
			<path class="st1" d="M66,51.7H12c-2.2,0-4-1.8-4-4v-36c0-2.2,1.8-4,4-4h46v2H12c-1.1,0-2,0.9-2,2v36c0,1.1,0.9,2,2,2h54
				c2.2,0,4-1.8,4-4s-1.8-4-4-4s-4,1.8-4,4c0,0.6-0.4,1-1,1s-1-0.4-1-1v-36c0-3.3,2.7-6,6-6s6,2.7,6,6v36C72,49,69.3,51.7,66,51.7z
				 M66,39.7c1.5,0,2.9,0.6,4,1.5V9.7c0-2.2-1.8-4-4-4s-4,1.8-4,4v31.5C63.1,40.3,64.5,39.7,66,39.7z"/>
		</g>
	</g>
	<g>
		<g>
			
				<linearGradient id="SVGID_3_" gradientUnits="userSpaceOnUse" x1="6.5657" y1="256.2806" x2="77.0657" y2="256.7806" gradientTransform="matrix(1 0 0 -1 0 286)">
				<stop  offset="0" style="stop-color:#72FFC9"/>
				<stop  offset="0.1817" style="stop-color:#74FFC0"/>
				<stop  offset="0.4797" style="stop-color:#79FFA7"/>
				<stop  offset="0.8549" style="stop-color:#81FF7F"/>
				<stop  offset="1" style="stop-color:#84FF6E"/>
			</linearGradient>
			<rect x="13" y="26.7" class="st2" width="2" height="6"/>
		</g>
	</g>
	<g>
		<g>
			
				<linearGradient id="SVGID_4_" gradientUnits="userSpaceOnUse" x1="6.4954" y1="266.195" x2="76.9954" y2="266.695" gradientTransform="matrix(1 0 0 -1 0 286)">
				<stop  offset="0" style="stop-color:#72FFC9"/>
				<stop  offset="0.1817" style="stop-color:#74FFC0"/>
				<stop  offset="0.4797" style="stop-color:#79FFA7"/>
				<stop  offset="0.8549" style="stop-color:#81FF7F"/>
				<stop  offset="1" style="stop-color:#84FF6E"/>
			</linearGradient>
			<path class="st3" d="M27,21.7h-2c-0.6,0-1-0.4-1-1v-2c0-0.6,0.4-1,1-1h2c0.6,0,1,0.4,1,1v2C28,21.3,27.6,21.7,27,21.7z"/>
		</g>
	</g>
	<g>
		<g>
			
				<linearGradient id="SVGID_5_" gradientUnits="userSpaceOnUse" x1="6.4956" y1="266.1383" x2="76.9956" y2="266.6383" gradientTransform="matrix(1 0 0 -1 0 286)">
				<stop  offset="0" style="stop-color:#72FFC9"/>
				<stop  offset="0.1817" style="stop-color:#74FFC0"/>
				<stop  offset="0.4797" style="stop-color:#79FFA7"/>
				<stop  offset="0.8549" style="stop-color:#81FF7F"/>
				<stop  offset="1" style="stop-color:#84FF6E"/>
			</linearGradient>
			<path class="st4" d="M35,21.7h-2c-0.6,0-1-0.4-1-1v-2c0-0.6,0.4-1,1-1h2c0.6,0,1,0.4,1,1v2C36,21.3,35.6,21.7,35,21.7z"/>
		</g>
	</g>
	<g>
		<g>
			
				<linearGradient id="SVGID_6_" gradientUnits="userSpaceOnUse" x1="6.4961" y1="266.0815" x2="76.9961" y2="266.5815" gradientTransform="matrix(1 0 0 -1 0 286)">
				<stop  offset="0" style="stop-color:#72FFC9"/>
				<stop  offset="0.1817" style="stop-color:#74FFC0"/>
				<stop  offset="0.4797" style="stop-color:#79FFA7"/>
				<stop  offset="0.8549" style="stop-color:#81FF7F"/>
				<stop  offset="1" style="stop-color:#84FF6E"/>
			</linearGradient>
			<path class="st5" d="M43,21.7h-2c-0.6,0-1-0.4-1-1v-2c0-0.6,0.4-1,1-1h2c0.6,0,1,0.4,1,1v2C44,21.3,43.6,21.7,43,21.7z"/>
		</g>
	</g>
	<g>
		<g>
			
				<linearGradient id="SVGID_7_" gradientUnits="userSpaceOnUse" x1="6.4966" y1="266.0248" x2="76.9966" y2="266.5248" gradientTransform="matrix(1 0 0 -1 0 286)">
				<stop  offset="0" style="stop-color:#72FFC9"/>
				<stop  offset="0.1817" style="stop-color:#74FFC0"/>
				<stop  offset="0.4797" style="stop-color:#79FFA7"/>
				<stop  offset="0.8549" style="stop-color:#81FF7F"/>
				<stop  offset="1" style="stop-color:#84FF6E"/>
			</linearGradient>
			<path class="st6" d="M51,21.7h-2c-0.6,0-1-0.4-1-1v-2c0-0.6,0.4-1,1-1h2c0.6,0,1,0.4,1,1v2C52,21.3,51.6,21.7,51,21.7z"/>
		</g>
	</g>
	<g>
		<g>
			
				<linearGradient id="SVGID_8_" gradientUnits="userSpaceOnUse" x1="6.552" y1="258.1954" x2="77.052" y2="258.6954" gradientTransform="matrix(1 0 0 -1 0 286)">
				<stop  offset="0" style="stop-color:#72FFC9"/>
				<stop  offset="0.1817" style="stop-color:#74FFC0"/>
				<stop  offset="0.4797" style="stop-color:#79FFA7"/>
				<stop  offset="0.8549" style="stop-color:#81FF7F"/>
				<stop  offset="1" style="stop-color:#84FF6E"/>
			</linearGradient>
			<path class="st7" d="M27,29.7h-2c-0.6,0-1-0.4-1-1v-2c0-0.6,0.4-1,1-1h2c0.6,0,1,0.4,1,1v2C28,29.3,27.6,29.7,27,29.7z"/>
		</g>
	</g>
	<g>
		<g>
			
				<linearGradient id="SVGID_9_" gradientUnits="userSpaceOnUse" x1="6.5525" y1="258.1387" x2="77.0525" y2="258.6387" gradientTransform="matrix(1 0 0 -1 0 286)">
				<stop  offset="0" style="stop-color:#72FFC9"/>
				<stop  offset="0.1817" style="stop-color:#74FFC0"/>
				<stop  offset="0.4797" style="stop-color:#79FFA7"/>
				<stop  offset="0.8549" style="stop-color:#81FF7F"/>
				<stop  offset="1" style="stop-color:#84FF6E"/>
			</linearGradient>
			<path class="st8" d="M35,29.7h-2c-0.6,0-1-0.4-1-1v-2c0-0.6,0.4-1,1-1h2c0.6,0,1,0.4,1,1v2C36,29.3,35.6,29.7,35,29.7z"/>
		</g>
	</g>
	<g>
		<g>
			
				<linearGradient id="SVGID_10_" gradientUnits="userSpaceOnUse" x1="6.5527" y1="258.0819" x2="77.0527" y2="258.5819" gradientTransform="matrix(1 0 0 -1 0 286)">
				<stop  offset="0" style="stop-color:#72FFC9"/>
				<stop  offset="0.1817" style="stop-color:#74FFC0"/>
				<stop  offset="0.4797" style="stop-color:#79FFA7"/>
				<stop  offset="0.8549" style="stop-color:#81FF7F"/>
				<stop  offset="1" style="stop-color:#84FF6E"/>
			</linearGradient>
			<path class="st9" d="M43,29.7h-2c-0.6,0-1-0.4-1-1v-2c0-0.6,0.4-1,1-1h2c0.6,0,1,0.4,1,1v2C44,29.3,43.6,29.7,43,29.7z"/>
		</g>
	</g>
	<g>
		<g>
			
				<linearGradient id="SVGID_11_" gradientUnits="userSpaceOnUse" x1="6.5532" y1="258.0252" x2="77.0532" y2="258.5252" gradientTransform="matrix(1 0 0 -1 0 286)">
				<stop  offset="0" style="stop-color:#72FFC9"/>
				<stop  offset="0.1817" style="stop-color:#74FFC0"/>
				<stop  offset="0.4797" style="stop-color:#79FFA7"/>
				<stop  offset="0.8549" style="stop-color:#81FF7F"/>
				<stop  offset="1" style="stop-color:#84FF6E"/>
			</linearGradient>
			<path class="st10" d="M51,29.7h-2c-0.6,0-1-0.4-1-1v-2c0-0.6,0.4-1,1-1h2c0.6,0,1,0.4,1,1v2C52,29.3,51.6,29.7,51,29.7z"/>
		</g>
	</g>
	<g>
		<g>
			
				<linearGradient id="SVGID_12_" gradientUnits="userSpaceOnUse" x1="6.6086" y1="250.1958" x2="77.1086" y2="250.6958" gradientTransform="matrix(1 0 0 -1 0 286)">
				<stop  offset="0" style="stop-color:#72FFC9"/>
				<stop  offset="0.1817" style="stop-color:#74FFC0"/>
				<stop  offset="0.4797" style="stop-color:#79FFA7"/>
				<stop  offset="0.8549" style="stop-color:#81FF7F"/>
				<stop  offset="1" style="stop-color:#84FF6E"/>
			</linearGradient>
			<path class="st11" d="M27,37.7h-2c-0.6,0-1-0.4-1-1v-2c0-0.6,0.4-1,1-1h2c0.6,0,1,0.4,1,1v2C28,37.3,27.6,37.7,27,37.7z"/>
		</g>
	</g>
	<g>
		<g>
			
				<linearGradient id="SVGID_13_" gradientUnits="userSpaceOnUse" x1="6.6091" y1="250.1391" x2="77.1091" y2="250.6391" gradientTransform="matrix(1 0 0 -1 0 286)">
				<stop  offset="0" style="stop-color:#72FFC9"/>
				<stop  offset="0.1817" style="stop-color:#74FFC0"/>
				<stop  offset="0.4797" style="stop-color:#79FFA7"/>
				<stop  offset="0.8549" style="stop-color:#81FF7F"/>
				<stop  offset="1" style="stop-color:#84FF6E"/>
			</linearGradient>
			<path class="st12" d="M35,37.7h-2c-0.6,0-1-0.4-1-1v-2c0-0.6,0.4-1,1-1h2c0.6,0,1,0.4,1,1v2C36,37.3,35.6,37.7,35,37.7z"/>
		</g>
	</g>
	<g>
		<g>
			
				<linearGradient id="SVGID_14_" gradientUnits="userSpaceOnUse" x1="6.5186" y1="262.9115" x2="77.0185" y2="263.4115" gradientTransform="matrix(1 0 0 -1 0 286)">
				<stop  offset="0" style="stop-color:#72FFC9"/>
				<stop  offset="0.1817" style="stop-color:#74FFC0"/>
				<stop  offset="0.4797" style="stop-color:#79FFA7"/>
				<stop  offset="0.8549" style="stop-color:#81FF7F"/>
				<stop  offset="1" style="stop-color:#84FF6E"/>
			</linearGradient>
			<rect x="65" y="21.7" class="st13" width="2" height="2"/>
		</g>
	</g>
	<g>
		<g>
			
				<linearGradient id="SVGID_15_" gradientUnits="userSpaceOnUse" x1="6.4902" y1="266.9113" x2="76.9902" y2="267.4113" gradientTransform="matrix(1 0 0 -1 0 286)">
				<stop  offset="0" style="stop-color:#72FFC9"/>
				<stop  offset="0.1817" style="stop-color:#74FFC0"/>
				<stop  offset="0.4797" style="stop-color:#79FFA7"/>
				<stop  offset="0.8549" style="stop-color:#81FF7F"/>
				<stop  offset="1" style="stop-color:#84FF6E"/>
			</linearGradient>
			<rect x="65" y="17.7" class="st14" width="2" height="2"/>
		</g>
	</g>
	<g>
		<g>
			
				<linearGradient id="SVGID_16_" gradientUnits="userSpaceOnUse" x1="6.5469" y1="258.9117" x2="77.0469" y2="259.4117" gradientTransform="matrix(1 0 0 -1 0 286)">
				<stop  offset="0" style="stop-color:#72FFC9"/>
				<stop  offset="0.1817" style="stop-color:#74FFC0"/>
				<stop  offset="0.4797" style="stop-color:#79FFA7"/>
				<stop  offset="0.8549" style="stop-color:#81FF7F"/>
				<stop  offset="1" style="stop-color:#84FF6E"/>
			</linearGradient>
			<rect x="65" y="25.7" class="st15" width="2" height="2"/>
		</g>
	</g>
</g>
</svg>
