<?xml version="1.0" encoding="utf-8"?>
<!-- Generator: Adobe Illustrator 22.0.0, SVG Export Plug-In . SVG Version: 6.00 Build 0)  -->
<svg version="1.1" id="Layer_1" xmlns="http://www.w3.org/2000/svg" xmlns:xlink="http://www.w3.org/1999/xlink" x="0px" y="0px"
	 viewBox="0 0 78.6 66.4" style="enable-background:new 0 0 78.6 66.4;" xml:space="preserve">
<style type="text/css">
	.st0{fill:url(#SVGID_1_);}
	.st1{fill:url(#SVGID_2_);}
	.st2{fill:url(#SVGID_3_);}
	.st3{fill:url(#SVGID_4_);}
	.st4{fill:url(#SVGID_5_);}
	.st5{fill:url(#SVGID_6_);}
	.st6{fill:url(#SVGID_7_);}
	.st7{fill:url(#SVGID_8_);}
	.st8{fill:url(#SVGID_9_);}
	.st9{fill:url(#SVGID_10_);}
	.st10{fill:url(#SVGID_11_);}
	.st11{fill:url(#SVGID_12_);}
	.st12{fill:url(#SVGID_13_);}
	.st13{fill:url(#SVGID_14_);}
	.st14{fill:url(#SVGID_15_);}
	.st15{fill:url(#SVGID_16_);}
</style>
<g>
	<g>
		<g>
			
				<linearGradient id="SVGID_1_" gradientUnits="userSpaceOnUse" x1="6.1638" y1="258.293" x2="75.4138" y2="257.043" gradientTransform="matrix(1 0 0 -1 0 274.6667)">
				<stop  offset="0" style="stop-color:#72FFC9"/>
				<stop  offset="0.1817" style="stop-color:#74FFC0"/>
				<stop  offset="0.4797" style="stop-color:#79FFA7"/>
				<stop  offset="0.8549" style="stop-color:#81FF7F"/>
				<stop  offset="1" style="stop-color:#84FF6E"/>
			</linearGradient>
			<polygon class="st0" points="71,21.2 34,21.2 34,19.2 69,19.2 69,15.2 34,15.2 34,13.2 71,13.2 			"/>
		</g>
	</g>
	<g>
		<g>
			
				<linearGradient id="SVGID_2_" gradientUnits="userSpaceOnUse" x1="6.042" y1="251.5389" x2="75.292" y2="250.2889" gradientTransform="matrix(1 0 0 -1 0 274.6667)">
				<stop  offset="0" style="stop-color:#72FFC9"/>
				<stop  offset="0.1817" style="stop-color:#74FFC0"/>
				<stop  offset="0.4797" style="stop-color:#79FFA7"/>
				<stop  offset="0.8549" style="stop-color:#81FF7F"/>
				<stop  offset="1" style="stop-color:#84FF6E"/>
			</linearGradient>
			<path class="st1" d="M69,29.2h-6v-2h-4v-8h10V29.2z M65,27.2h2v-6h-6v4h4V27.2z"/>
		</g>
	</g>
	<g>
		<g>
			
				<linearGradient id="SVGID_3_" gradientUnits="userSpaceOnUse" x1="6.1516" y1="257.6163" x2="75.4016" y2="256.3663" gradientTransform="matrix(1 0 0 -1 0 274.6667)">
				<stop  offset="0" style="stop-color:#72FFC9"/>
				<stop  offset="0.1817" style="stop-color:#74FFC0"/>
				<stop  offset="0.4797" style="stop-color:#79FFA7"/>
				<stop  offset="0.8549" style="stop-color:#81FF7F"/>
				<stop  offset="1" style="stop-color:#84FF6E"/>
			</linearGradient>
			<path class="st2" d="M15,21.2c-2.2,0-4-1.8-4-4s1.8-4,4-4s4,1.8,4,4S17.2,21.2,15,21.2z M15,15.2c-1.1,0-2,0.9-2,2s0.9,2,2,2
				s2-0.9,2-2S16.1,15.2,15,15.2z"/>
		</g>
	</g>
	<g>
		<g>
			
				<linearGradient id="SVGID_4_" gradientUnits="userSpaceOnUse" x1="5.8145" y1="236.4293" x2="75.0645" y2="235.1793" gradientTransform="matrix(1 0 0 -1 0 274.6667)">
				<stop  offset="0" style="stop-color:#72FFC9"/>
				<stop  offset="0.1817" style="stop-color:#74FFC0"/>
				<stop  offset="0.4797" style="stop-color:#79FFA7"/>
				<stop  offset="0.8549" style="stop-color:#81FF7F"/>
				<stop  offset="1" style="stop-color:#84FF6E"/>
			</linearGradient>
			<path class="st3" d="M41,41.7H23v-6h18V41.7z M25,39.7h14v-2H25V39.7z"/>
		</g>
	</g>
	<g>
		<g>
			
				<linearGradient id="SVGID_5_" gradientUnits="userSpaceOnUse" x1="5.8225" y1="236.8804" x2="75.0725" y2="235.6304" gradientTransform="matrix(1 0 0 -1 0 274.6667)">
				<stop  offset="0" style="stop-color:#72FFC9"/>
				<stop  offset="0.1817" style="stop-color:#74FFC0"/>
				<stop  offset="0.4797" style="stop-color:#79FFA7"/>
				<stop  offset="0.8549" style="stop-color:#81FF7F"/>
				<stop  offset="1" style="stop-color:#84FF6E"/>
			</linearGradient>
			<path class="st4" d="M71,41.7H43v-6h28V41.7z M45,39.7h24v-2H45V39.7z"/>
		</g>
	</g>
	<g>
		<g>
			
				<linearGradient id="SVGID_6_" gradientUnits="userSpaceOnUse" x1="5.5215" y1="225.1999" x2="74.7715" y2="223.9499" gradientTransform="matrix(1 0 0 -1 0 274.6667)">
				<stop  offset="0" style="stop-color:#72FFC9"/>
				<stop  offset="0.1817" style="stop-color:#74FFC0"/>
				<stop  offset="0.4797" style="stop-color:#79FFA7"/>
				<stop  offset="0.8549" style="stop-color:#81FF7F"/>
				<stop  offset="1" style="stop-color:#84FF6E"/>
			</linearGradient>
			<path class="st5" d="M31,52.7H7v-6h24V52.7z M9,50.7h20v-2H9V50.7z"/>
		</g>
	</g>
	<g>
		<g>
			
				<linearGradient id="SVGID_7_" gradientUnits="userSpaceOnUse" x1="5.5296" y1="225.651" x2="74.7796" y2="224.401" gradientTransform="matrix(1 0 0 -1 0 274.6667)">
				<stop  offset="0" style="stop-color:#72FFC9"/>
				<stop  offset="0.1817" style="stop-color:#74FFC0"/>
				<stop  offset="0.4797" style="stop-color:#79FFA7"/>
				<stop  offset="0.8549" style="stop-color:#81FF7F"/>
				<stop  offset="1" style="stop-color:#84FF6E"/>
			</linearGradient>
			<path class="st6" d="M55,52.7H33v-6h22V52.7z M35,50.7h18v-2H35V50.7z"/>
		</g>
	</g>
	<g>
		<g>
			
				<linearGradient id="SVGID_8_" gradientUnits="userSpaceOnUse" x1="5.5361" y1="226.0119" x2="74.7861" y2="224.7619" gradientTransform="matrix(1 0 0 -1 0 274.6667)">
				<stop  offset="0" style="stop-color:#72FFC9"/>
				<stop  offset="0.1817" style="stop-color:#74FFC0"/>
				<stop  offset="0.4797" style="stop-color:#79FFA7"/>
				<stop  offset="0.8549" style="stop-color:#81FF7F"/>
				<stop  offset="1" style="stop-color:#84FF6E"/>
			</linearGradient>
			<path class="st7" d="M71,52.7H57v-6h14V52.7z M59,50.7h10v-2H59V50.7z"/>
		</g>
	</g>
	<g>
		<g>
			
				<linearGradient id="SVGID_9_" gradientUnits="userSpaceOnUse" x1="5.3765" y1="214.1664" x2="74.6265" y2="212.9164" gradientTransform="matrix(1 0 0 -1 0 274.6667)">
				<stop  offset="0" style="stop-color:#72FFC9"/>
				<stop  offset="0.1817" style="stop-color:#74FFC0"/>
				<stop  offset="0.4797" style="stop-color:#79FFA7"/>
				<stop  offset="0.8549" style="stop-color:#81FF7F"/>
				<stop  offset="1" style="stop-color:#84FF6E"/>
			</linearGradient>
			<path class="st8" d="M27,63.7H7v-6h20V63.7z M9,61.7h16v-2H9V61.7z"/>
		</g>
	</g>
	<g>
		<g>
			
				<linearGradient id="SVGID_10_" gradientUnits="userSpaceOnUse" x1="5.3836" y1="214.5634" x2="74.6336" y2="213.3134" gradientTransform="matrix(1 0 0 -1 0 274.6667)">
				<stop  offset="0" style="stop-color:#72FFC9"/>
				<stop  offset="0.1817" style="stop-color:#74FFC0"/>
				<stop  offset="0.4797" style="stop-color:#79FFA7"/>
				<stop  offset="0.8549" style="stop-color:#81FF7F"/>
				<stop  offset="1" style="stop-color:#84FF6E"/>
			</linearGradient>
			<path class="st9" d="M49,63.7H29v-6h20V63.7z M31,61.7h16v-2H31V61.7z"/>
		</g>
	</g>
	<g>
		<g>
			
				<linearGradient id="SVGID_11_" gradientUnits="userSpaceOnUse" x1="5.8086" y1="236.1045" x2="75.0586" y2="234.8545" gradientTransform="matrix(1 0 0 -1 0 274.6667)">
				<stop  offset="0" style="stop-color:#72FFC9"/>
				<stop  offset="0.1817" style="stop-color:#74FFC0"/>
				<stop  offset="0.4797" style="stop-color:#79FFA7"/>
				<stop  offset="0.8549" style="stop-color:#81FF7F"/>
				<stop  offset="1" style="stop-color:#84FF6E"/>
			</linearGradient>
			<path class="st10" d="M21,41.7H7v-6h14V41.7z M9,39.7h10v-2H9V39.7z"/>
		</g>
	</g>
	<g>
		<g>
			
				<linearGradient id="SVGID_12_" gradientUnits="userSpaceOnUse" x1="6.1536" y1="257.7246" x2="75.4036" y2="256.4746" gradientTransform="matrix(1 0 0 -1 0 274.6667)">
				<stop  offset="0" style="stop-color:#72FFC9"/>
				<stop  offset="0.1817" style="stop-color:#74FFC0"/>
				<stop  offset="0.4797" style="stop-color:#79FFA7"/>
				<stop  offset="0.8549" style="stop-color:#81FF7F"/>
				<stop  offset="1" style="stop-color:#84FF6E"/>
			</linearGradient>
			<path class="st11" d="M21,31.2c-7.7,0-14-6.3-14-14s6.3-14,14-14s14,6.3,14,14S28.7,31.2,21,31.2z M21,5.2c-6.6,0-12,5.4-12,12
				s5.4,12,12,12s12-5.4,12-12S27.6,5.2,21,5.2z"/>
		</g>
	</g>
	<g>
		<g>
			
				<linearGradient id="SVGID_13_" gradientUnits="userSpaceOnUse" x1="6.0007" y1="249.2508" x2="75.2508" y2="248.0008" gradientTransform="matrix(1 0 0 -1 0 274.6667)">
				<stop  offset="0" style="stop-color:#72FFC9"/>
				<stop  offset="0.1817" style="stop-color:#74FFC0"/>
				<stop  offset="0.4797" style="stop-color:#79FFA7"/>
				<stop  offset="0.8549" style="stop-color:#81FF7F"/>
				<stop  offset="1" style="stop-color:#84FF6E"/>
			</linearGradient>
			<rect x="49" y="25.2" class="st12" width="2" height="2"/>
		</g>
	</g>
	<g>
		<g>
			
				<linearGradient id="SVGID_14_" gradientUnits="userSpaceOnUse" x1="6.002" y1="249.323" x2="75.252" y2="248.073" gradientTransform="matrix(1 0 0 -1 0 274.6667)">
				<stop  offset="0" style="stop-color:#72FFC9"/>
				<stop  offset="0.1817" style="stop-color:#74FFC0"/>
				<stop  offset="0.4797" style="stop-color:#79FFA7"/>
				<stop  offset="0.8549" style="stop-color:#81FF7F"/>
				<stop  offset="1" style="stop-color:#84FF6E"/>
			</linearGradient>
			<rect x="53" y="25.2" class="st13" width="2" height="2"/>
		</g>
	</g>
	<g>
		<g>
			
				<linearGradient id="SVGID_15_" gradientUnits="userSpaceOnUse" x1="5.9993" y1="249.1786" x2="75.2493" y2="247.9286" gradientTransform="matrix(1 0 0 -1 0 274.6667)">
				<stop  offset="0" style="stop-color:#72FFC9"/>
				<stop  offset="0.1817" style="stop-color:#74FFC0"/>
				<stop  offset="0.4797" style="stop-color:#79FFA7"/>
				<stop  offset="0.8549" style="stop-color:#81FF7F"/>
				<stop  offset="1" style="stop-color:#84FF6E"/>
			</linearGradient>
			<rect x="45" y="25.2" class="st14" width="2" height="2"/>
		</g>
	</g>
	<g>
		<g>
			
				<linearGradient id="SVGID_16_" gradientUnits="userSpaceOnUse" x1="5.9981" y1="249.1065" x2="75.2481" y2="247.8565" gradientTransform="matrix(1 0 0 -1 0 274.6667)">
				<stop  offset="0" style="stop-color:#72FFC9"/>
				<stop  offset="0.1817" style="stop-color:#74FFC0"/>
				<stop  offset="0.4797" style="stop-color:#79FFA7"/>
				<stop  offset="0.8549" style="stop-color:#81FF7F"/>
				<stop  offset="1" style="stop-color:#84FF6E"/>
			</linearGradient>
			<rect x="41" y="25.2" class="st15" width="2" height="2"/>
		</g>
	</g>
</g>
</svg>
