<?xml version="1.0" encoding="utf-8"?>
<!-- Generator: Adobe Illustrator 22.0.0, SVG Export Plug-In . SVG Version: 6.00 Build 0)  -->
<svg version="1.1" id="Isolation_Mode" xmlns="http://www.w3.org/2000/svg" xmlns:xlink="http://www.w3.org/1999/xlink" x="0px"
	 y="0px" viewBox="0 0 82 48.7" style="enable-background:new 0 0 82 48.7;" xml:space="preserve">
<style type="text/css">
	.st0{fill:url(#SVGID_1_);}
	.st1{fill:url(#SVGID_2_);}
	.st2{fill:url(#SVGID_3_);}
	.st3{fill:url(#SVGID_4_);}
	.st4{fill:url(#SVGID_5_);}
	.st5{fill:url(#SVGID_6_);}
	.st6{fill:url(#SVGID_7_);}
	.st7{fill:url(#SVGID_8_);}
	.st8{fill:url(#SVGID_9_);}
	.st9{fill:url(#SVGID_10_);}
	.st10{fill:url(#SVGID_11_);}
	.st11{fill:url(#SVGID_12_);}
	.st12{fill:url(#SVGID_13_);}
</style>
<g>
	<g>
		<g>
			
				<linearGradient id="SVGID_1_" gradientUnits="userSpaceOnUse" x1="3.9554" y1="265.7623" x2="77.4554" y2="237.2623" gradientTransform="matrix(1 0 0 -1 0 271.3333)">
				<stop  offset="0" style="stop-color:#72FFC9"/>
				<stop  offset="0.1817" style="stop-color:#74FFC0"/>
				<stop  offset="0.4797" style="stop-color:#79FFA7"/>
				<stop  offset="0.8549" style="stop-color:#81FF7F"/>
				<stop  offset="1" style="stop-color:#84FF6E"/>
			</linearGradient>
			<polygon class="st0" points="44.4,27 35.6,27 33.6,25 26,25 26,23 34.4,23 36.4,25 43.6,25 45.6,23 68.6,23 70,21.6 70,20.4 
				68.6,19 11.4,19 10,20.4 10,21 8,21 8,19.6 10.6,17 69.4,17 72,19.6 72,22.4 69.4,25 46.4,25 			"/>
		</g>
	</g>
	<g>
		<g>
			
				<linearGradient id="SVGID_2_" gradientUnits="userSpaceOnUse" x1="4.3315" y1="266.7327" x2="77.8315" y2="238.2327" gradientTransform="matrix(1 0 0 -1 0 271.3333)">
				<stop  offset="0" style="stop-color:#72FFC9"/>
				<stop  offset="0.1817" style="stop-color:#74FFC0"/>
				<stop  offset="0.4797" style="stop-color:#79FFA7"/>
				<stop  offset="0.8549" style="stop-color:#81FF7F"/>
				<stop  offset="1" style="stop-color:#84FF6E"/>
			</linearGradient>
			<polygon class="st1" points="11.7,18.7 10.3,17.3 23.6,4 32,4 32,6 24.4,6 			"/>
		</g>
	</g>
	<g>
		<g>
			
				<linearGradient id="SVGID_3_" gradientUnits="userSpaceOnUse" x1="4.1045" y1="266.1473" x2="77.6045" y2="237.6473" gradientTransform="matrix(1 0 0 -1 0 271.3333)">
				<stop  offset="0" style="stop-color:#72FFC9"/>
				<stop  offset="0.1817" style="stop-color:#74FFC0"/>
				<stop  offset="0.4797" style="stop-color:#79FFA7"/>
				<stop  offset="0.8549" style="stop-color:#81FF7F"/>
				<stop  offset="1" style="stop-color:#84FF6E"/>
			</linearGradient>
			<polygon class="st2" points="17.9,18.5 16.1,17.5 23.1,4.5 24.9,5.5 			"/>
		</g>
	</g>
	<g>
		<g>
			
				<linearGradient id="SVGID_4_" gradientUnits="userSpaceOnUse" x1="9.625" y1="280.3842" x2="83.125" y2="251.8843" gradientTransform="matrix(1 0 0 -1 0 271.3333)">
				<stop  offset="0" style="stop-color:#72FFC9"/>
				<stop  offset="0.1817" style="stop-color:#74FFC0"/>
				<stop  offset="0.4797" style="stop-color:#79FFA7"/>
				<stop  offset="0.8549" style="stop-color:#81FF7F"/>
				<stop  offset="1" style="stop-color:#84FF6E"/>
			</linearGradient>
			<polygon class="st3" points="68.3,18.7 55.6,6 48,6 48,4 56.4,4 69.7,17.3 			"/>
		</g>
	</g>
	<g>
		<g>
			
				<linearGradient id="SVGID_5_" gradientUnits="userSpaceOnUse" x1="9.2019" y1="279.2932" x2="82.7019" y2="250.7932" gradientTransform="matrix(1 0 0 -1 0 271.3333)">
				<stop  offset="0" style="stop-color:#72FFC9"/>
				<stop  offset="0.1817" style="stop-color:#74FFC0"/>
				<stop  offset="0.4797" style="stop-color:#79FFA7"/>
				<stop  offset="0.8549" style="stop-color:#81FF7F"/>
				<stop  offset="1" style="stop-color:#84FF6E"/>
			</linearGradient>
			<polygon class="st4" points="62.1,18.5 55.1,5.5 56.9,4.5 63.9,17.5 			"/>
		</g>
	</g>
	<g>
		<g>
			
				<linearGradient id="SVGID_6_" gradientUnits="userSpaceOnUse" x1="3.114" y1="263.5926" x2="76.614" y2="235.0926" gradientTransform="matrix(1 0 0 -1 0 271.3333)">
				<stop  offset="0" style="stop-color:#72FFC9"/>
				<stop  offset="0.1817" style="stop-color:#74FFC0"/>
				<stop  offset="0.4797" style="stop-color:#79FFA7"/>
				<stop  offset="0.8549" style="stop-color:#81FF7F"/>
				<stop  offset="1" style="stop-color:#84FF6E"/>
			</linearGradient>
			<rect x="39" y="21" class="st5" width="2" height="2"/>
		</g>
	</g>
	<g>
		<g>
			
				<linearGradient id="SVGID_7_" gradientUnits="userSpaceOnUse" x1="-0.7177" y1="253.711" x2="72.7823" y2="225.211" gradientTransform="matrix(1 0 0 -1 0 271.3333)">
				<stop  offset="0" style="stop-color:#72FFC9"/>
				<stop  offset="0.1817" style="stop-color:#74FFC0"/>
				<stop  offset="0.4797" style="stop-color:#79FFA7"/>
				<stop  offset="0.8549" style="stop-color:#81FF7F"/>
				<stop  offset="1" style="stop-color:#84FF6E"/>
			</linearGradient>
			<path class="st6" d="M24,29h-6v-6h6V29z M20,27h2v-2h-2V27z"/>
		</g>
	</g>
	<g>
		<g>
			
				<linearGradient id="SVGID_8_" gradientUnits="userSpaceOnUse" x1="-1.698" y1="251.183" x2="71.802" y2="222.683" gradientTransform="matrix(1 0 0 -1 0 271.3333)">
				<stop  offset="0" style="stop-color:#72FFC9"/>
				<stop  offset="0.1817" style="stop-color:#74FFC0"/>
				<stop  offset="0.4797" style="stop-color:#79FFA7"/>
				<stop  offset="0.8549" style="stop-color:#81FF7F"/>
				<stop  offset="1" style="stop-color:#84FF6E"/>
			</linearGradient>
			<polygon class="st7" points="16,29 8,29 8,23 19,23 19,25 10,25 10,27 16,27 			"/>
		</g>
	</g>
	<g>
		<g>
			
				<linearGradient id="SVGID_9_" gradientUnits="userSpaceOnUse" x1="-2.4788" y1="249.1694" x2="71.0212" y2="220.6694" gradientTransform="matrix(1 0 0 -1 0 271.3333)">
				<stop  offset="0" style="stop-color:#72FFC9"/>
				<stop  offset="0.1817" style="stop-color:#74FFC0"/>
				<stop  offset="0.4797" style="stop-color:#79FFA7"/>
				<stop  offset="0.8549" style="stop-color:#81FF7F"/>
				<stop  offset="1" style="stop-color:#84FF6E"/>
			</linearGradient>
			<rect x="22" y="31" class="st8" width="2" height="2"/>
		</g>
	</g>
	<g>
		<g>
			
				<linearGradient id="SVGID_10_" gradientUnits="userSpaceOnUse" x1="-3.0015" y1="247.8211" x2="70.4985" y2="219.3211" gradientTransform="matrix(1 0 0 -1 0 271.3333)">
				<stop  offset="0" style="stop-color:#72FFC9"/>
				<stop  offset="0.1817" style="stop-color:#74FFC0"/>
				<stop  offset="0.4797" style="stop-color:#79FFA7"/>
				<stop  offset="0.8549" style="stop-color:#81FF7F"/>
				<stop  offset="1" style="stop-color:#84FF6E"/>
			</linearGradient>
			<rect x="18" y="31" class="st9" width="2" height="2"/>
		</g>
	</g>
	<g>
		<g>
			
				<linearGradient id="SVGID_11_" gradientUnits="userSpaceOnUse" x1="-3.5244" y1="246.4728" x2="69.9756" y2="217.9728" gradientTransform="matrix(1 0 0 -1 0 271.3333)">
				<stop  offset="0" style="stop-color:#72FFC9"/>
				<stop  offset="0.1817" style="stop-color:#74FFC0"/>
				<stop  offset="0.4797" style="stop-color:#79FFA7"/>
				<stop  offset="0.8549" style="stop-color:#81FF7F"/>
				<stop  offset="1" style="stop-color:#84FF6E"/>
			</linearGradient>
			<rect x="14" y="31" class="st10" width="2" height="2"/>
		</g>
	</g>
	<g>
		<g>
			
				<linearGradient id="SVGID_12_" gradientUnits="userSpaceOnUse" x1="-1.0666" y1="252.8111" x2="72.4334" y2="224.3111" gradientTransform="matrix(1 0 0 -1 0 271.3333)">
				<stop  offset="0" style="stop-color:#72FFC9"/>
				<stop  offset="0.1817" style="stop-color:#74FFC0"/>
				<stop  offset="0.4797" style="stop-color:#79FFA7"/>
				<stop  offset="0.8549" style="stop-color:#81FF7F"/>
				<stop  offset="1" style="stop-color:#84FF6E"/>
			</linearGradient>
			<path class="st11" d="M63,44H49c-3.3,0-6-2.7-6-6c0-1.7-1.3-3-3-3s-3,1.3-3,3c0,3.3-2.7,6-6,6H17c-3.9,0-7-3.1-7-7v-9h2v9
				c0,2.8,2.2,5,5,5h14c2.2,0,4-1.8,4-4c0-2.8,2.2-5,5-5s5,2.2,5,5c0,2.2,1.8,4,4,4h14c2.8,0,5-2.2,5-5V27h2v10
				C70,40.9,66.9,44,63,44z"/>
		</g>
	</g>
	<g>
		<g>
			
				<linearGradient id="SVGID_13_" gradientUnits="userSpaceOnUse" x1="1.1053" y1="258.4124" x2="74.6053" y2="229.9124" gradientTransform="matrix(1 0 0 -1 0 271.3333)">
				<stop  offset="0" style="stop-color:#72FFC9"/>
				<stop  offset="0.1817" style="stop-color:#74FFC0"/>
				<stop  offset="0.4797" style="stop-color:#79FFA7"/>
				<stop  offset="0.8549" style="stop-color:#81FF7F"/>
				<stop  offset="1" style="stop-color:#84FF6E"/>
			</linearGradient>
			<path class="st12" d="M53,37.6v-9.2l9.2,4.6L53,37.6z M55,31.6v2.8l2.8-1.4L55,31.6z"/>
		</g>
	</g>
</g>
</svg>
