<?xml version="1.0" encoding="utf-8"?>
<!-- Generator: Adobe Illustrator 22.0.0, SVG Export Plug-In . SVG Version: 6.00 Build 0)  -->
<svg version="1.1" id="Layer_1" xmlns="http://www.w3.org/2000/svg" xmlns:xlink="http://www.w3.org/1999/xlink" x="0px" y="0px"
	 viewBox="0 0 60.3 72.7" style="enable-background:new 0 0 60.3 72.7;" xml:space="preserve">
<style type="text/css">
	.st0{fill:#FFFFFF;}
	.st1{fill:#303030;}
</style>
<g>
	<g>
		<path class="st0" d="M32.1,24.6c-1.7-0.8-3.1-2.5-3.5-4.5c-0.5-2.2,0.4-4.2,2.3-5.4l0,0c2-1.3,4.1-1.2,5.6,0.2
			c1.9,1.8,2.5,5.3,1.3,7.4c-1.5,2.7-3.5,2.8-4.5,2.6C32.9,24.9,32.5,24.8,32.1,24.6z M31.5,15.5L31.5,15.5L31.5,15.5z"/>
		<path class="st0" d="M16.6,54.8c-0.6-0.3-1-0.7-1.3-1.2c-1.3-2.6,0.6-7.8,3.8-15.4c0.5-1.2,1-2.3,1.4-3.4
			c1.5-3.7-1.3-8.5-3.5-12.3c-2.1-3.6-3.7-6.4-1.8-8c0.4-0.3,0.9-0.5,1.4-0.5c1.5,0.1,2.9,1.8,5,4.3c2.6,3.1,6.2,7.3,10.4,8.5
			c5,1.5,9.4,0.6,12.6-0.1c3-0.6,5.6-1.1,6.5,1.2l0,0c0.3,0.6,0.3,1.3,0,1.8c-0.6,1.5-2.8,2.4-5.6,3.4c-3.7,1.4-8.3,3.2-9.9,6.7
			c-0.7,1.5-1.4,3.4-2.2,5.3c-2.7,7-4.8,12-7.5,12.9c-0.8,0.3-1.5,0.2-2.2-0.2c-1.5-0.9-0.8-3,0.1-5.5c1.1-3,1.9-5.6,0.6-6.5
			c-0.6,0.5-1.8,2.7-2.5,4c-1.6,3-2.9,5.5-4.7,5.1C17,55,16.8,54.9,16.6,54.8z"/>
	</g>
	<g>
		<path class="st1" d="M32.1,24.6c-1.7-0.8-3.1-2.5-3.5-4.5c-0.5-2.2,0.4-4.2,2.3-5.4l0,0c2-1.3,4.1-1.2,5.6,0.2
			c1.9,1.8,2.5,5.3,1.3,7.4c-1.5,2.7-3.5,2.8-4.5,2.6C32.9,24.9,32.5,24.8,32.1,24.6z M34.5,16c-0.7-0.3-1.6-0.2-2.5,0.4l0,0
			c-1.5,1-1.6,2.3-1.4,3.3c0.3,1.6,1.7,3.1,3,3.3c0.9,0.1,1.8-0.4,2.4-1.6c0.8-1.4,0.3-3.8-0.9-5C34.9,16.2,34.7,16.1,34.5,16z
			 M31.5,15.5L31.5,15.5L31.5,15.5z"/>
		<path class="st1" d="M16.6,54.8c-0.6-0.3-1-0.7-1.3-1.2c-1.3-2.6,0.6-7.8,3.8-15.4c0.5-1.2,1-2.3,1.4-3.4
			c1.5-3.7-1.3-8.5-3.5-12.3c-2.1-3.6-3.7-6.4-1.8-8c0.4-0.3,0.9-0.5,1.4-0.5c1.5,0.1,2.9,1.8,5,4.3c2.6,3.1,6.2,7.3,10.4,8.5
			c5,1.5,9.4,0.6,12.6-0.1c3-0.6,5.6-1.1,6.5,1.2l0,0c0.3,0.6,0.3,1.3,0,1.8c-0.6,1.5-2.8,2.4-5.6,3.4c-3.7,1.4-8.3,3.2-9.9,6.7
			c-0.7,1.5-1.4,3.4-2.2,5.3c-2.7,7-4.8,12-7.5,12.9c-0.8,0.3-1.5,0.2-2.2-0.2c-1.5-0.9-0.8-3,0.1-5.5c1.1-3,1.9-5.6,0.6-6.5
			c-0.6,0.5-1.8,2.7-2.5,4c-1.6,3-2.9,5.5-4.7,5.1C17,55,16.8,54.9,16.6,54.8z M16.5,16c-0.6,0.6,1.1,3.4,2.3,5.4
			c2.5,4.2,5.5,9.4,3.7,14.1c-0.4,1.1-0.9,2.2-1.4,3.4c-2.1,5-4.9,11.8-3.9,13.7c0.1,0.2,0.2,0.3,0.4,0.4c0.6-0.4,1.8-2.6,2.6-4
			c1.5-2.9,2.6-4.7,3.8-5c0.4-0.1,0.9-0.1,1.3,0.1c3.1,1.7,1.5,5.9,0.5,9c-0.4,1-0.9,2.6-0.9,3.1c0.2,0.1,0.3,0,0.5,0
			c2-0.7,4.5-7.1,6.3-11.8c0.8-2,1.5-3.9,2.2-5.5c2-4.3,7-6.2,11-7.8c2-0.8,4.2-1.6,4.5-2.4c0,0,0-0.1,0-0.3l0,0
			c-0.3-0.7-1.8-0.5-4.3,0c-3.4,0.7-8.1,1.6-13.6,0c-4.8-1.4-8.6-5.9-11.3-9.1C18.8,18.1,17.1,16.1,16.5,16z"/>
	</g>
</g>
</svg>
