<?xml version="1.0" encoding="utf-8"?>
<!-- Generator: Adobe Illustrator 22.0.0, SVG Export Plug-In . SVG Version: 6.00 Build 0)  -->
<svg version="1.1" id="Layer_1" xmlns="http://www.w3.org/2000/svg" xmlns:xlink="http://www.w3.org/1999/xlink" x="0px" y="0px"
	 viewBox="0 0 58.6 56.4" style="enable-background:new 0 0 58.6 56.4;" xml:space="preserve">
<style type="text/css">
	.st0{fill:#303030;}
	.st1{fill:#FFFFFF;}
</style>
<g>
	<g>
		<g>
			<g>
				<circle class="st0" cx="33.6" cy="13.6" r="0.8"/>
				<path class="st0" d="M34,14.5c-0.5,0.2-1.1,0-1.3-0.5c-0.2-0.5,0-1.1,0.5-1.3l0,0c0.5-0.2,1.1,0,1.3,0.5l0,0
					C34.7,13.7,34.5,14.3,34,14.5L34,14.5z M33.4,13.1L33.4,13.1c-0.3,0.1-0.4,0.4-0.3,0.7c0.1,0.3,0.4,0.4,0.7,0.3l0,0
					c0.3-0.1,0.4-0.4,0.3-0.7l0,0C34,13.1,33.7,13,33.4,13.1z"/>
			</g>
		</g>
		<g>
			<g>
				<circle class="st0" cx="38" cy="11.7" r="0.8"/>
				<path class="st0" d="M38.4,12.6c-0.2,0.1-0.5,0.1-0.7,0s-0.4-0.3-0.5-0.5s-0.1-0.5,0-0.8c0.1-0.2,0.3-0.4,0.5-0.5s0.5-0.1,0.8,0
					s0.4,0.3,0.5,0.5l0,0c0.1,0.2,0.1,0.5,0,0.8C38.8,12.3,38.7,12.5,38.4,12.6L38.4,12.6z M37.8,11.2L37.8,11.2
					c-0.1,0.1-0.2,0.2-0.3,0.3c-0.1,0.1-0.1,0.3,0,0.4s0.2,0.2,0.3,0.3c0.1,0.1,0.3,0.1,0.4,0s0.2-0.2,0.3-0.3
					c0.1-0.1,0.1-0.3,0-0.4l0,0c-0.1-0.1-0.2-0.2-0.3-0.3C38.1,11.2,38,11.2,37.8,11.2z"/>
			</g>
		</g>
		<g>
			<g>
				<circle class="st0" cx="29.2" cy="15.5" r="0.8"/>
				<path class="st0" d="M29.6,16.4c-0.2,0.1-0.5,0.1-0.7,0s-0.4-0.3-0.5-0.5c-0.2-0.5,0-1.1,0.5-1.3c0.2-0.1,0.5-0.1,0.8,0
					c0.2,0.1,0.4,0.3,0.5,0.5s0.1,0.5,0,0.8C30,16.1,29.8,16.3,29.6,16.4L29.6,16.4z M29,15L29,15c-0.3,0.1-0.4,0.4-0.3,0.7
					c0.1,0.1,0.2,0.2,0.3,0.3c0.1,0.1,0.3,0.1,0.4,0l0,0c0.1-0.1,0.2-0.2,0.3-0.3c0.1-0.1,0.1-0.3,0-0.4s-0.2-0.2-0.3-0.3
					C29.3,15,29.1,15,29,15z"/>
			</g>
		</g>
	</g>
	<path class="st1" d="M18.7,52.9c-0.6,0.2-1.2,0.2-1.7,0c-0.6-0.2-1-0.7-1.2-1.2L3.7,23.4c-0.5-1.2,0-2.5,1.2-3L39.7,5.5
		c0.5-0.2,1.2-0.2,1.7,0c0.6,0.2,1,0.7,1.2,1.2L54.7,35c0.5,1.2,0,2.5-1.2,3l0,0L18.7,52.9L18.7,52.9z M53.2,37.1L53.2,37.1
		L53.2,37.1z"/>
	<path class="st0" d="M18.7,52.9c-0.6,0.2-1.2,0.2-1.7,0c-0.6-0.2-1-0.7-1.2-1.2L3.7,23.4c-0.5-1.2,0-2.5,1.2-3L39.7,5.5
		c0.5-0.2,1.2-0.2,1.7,0c0.6,0.2,1,0.7,1.2,1.2L54.7,35c0.5,1.2,0,2.5-1.2,3l0,0L18.7,52.9L18.7,52.9z M53.2,37.1L53.2,37.1
		L53.2,37.1z M40.5,7.4L40.5,7.4L5.7,22.3c-0.1,0.1-0.2,0.2-0.1,0.4L17.7,51c0,0.1,0.1,0.1,0.1,0.1s0.1,0,0.2,0l34.8-14.9l0,0
		c0.1-0.1,0.2-0.2,0.1-0.4L40.8,7.5c0-0.1-0.1-0.1-0.1-0.1C40.6,7.3,40.5,7.3,40.5,7.4z"/>
	<path class="st0" d="M8.5,29.6c-0.5,0.2-1.1,0-1.3-0.5c-0.2-0.5,0-1.1,0.5-1.3l35.8-15.3c0.5-0.2,1.1,0,1.3,0.5
		c0.2,0.5,0,1.1-0.5,1.3L8.5,29.6L8.5,29.6z"/>
	<g>
		<path class="st0" d="M32.2,39.4c-0.1,0-0.2,0.1-0.3,0.1c-0.6,0.1-1-0.3-1.1-0.9l-1.2-11.1c-0.1-0.6,0.3-1,0.9-1.1s1,0.3,1.1,0.9
			l1.2,11.1C32.9,38.9,32.6,39.3,32.2,39.4z"/>
		<g>
			<path class="st0" d="M20.7,38c-0.3,0.1-0.7,0.1-1-0.1c-0.5-0.3-0.6-0.9-0.2-1.4l4.3-6c0.3-0.5,0.9-0.6,1.4-0.2
				c0.5,0.3,0.6,0.9,0.2,1.4l-4.3,6C21.1,37.8,20.9,37.9,20.7,38z"/>
			<path class="st0" d="M28.1,39.1c-0.2,0.1-0.3,0.1-0.5,0.1l-7.3-1.1c-0.5-0.1-0.9-0.6-0.8-1.1s0.6-0.9,1.1-0.8l7.3,1.1
				c0.5,0.1,0.9,0.6,0.8,1.1C28.6,38.7,28.4,39,28.1,39.1z"/>
		</g>
		<g>
			<path class="st0" d="M37.3,35.2c-0.3,0.1-0.7,0.1-1-0.1c-0.5-0.3-0.6-0.9-0.2-1.4l4.3-6c0.3-0.5,0.9-0.6,1.4-0.2
				c0.5,0.3,0.6,0.9,0.2,1.4l-4.3,6C37.7,35,37.5,35.1,37.3,35.2z"/>
			<path class="st0" d="M41.6,29.1c-0.2,0.1-0.3,0.1-0.5,0.1l-7.3-1.1C33.3,28,32.9,27.5,33,27s0.6-0.9,1.1-0.8l7.3,1.1
				c0.5,0.1,0.9,0.6,0.8,1.1C42.1,28.6,41.9,28.9,41.6,29.1z"/>
		</g>
	</g>
</g>
</svg>
