<?xml version="1.0" encoding="utf-8"?>
<!-- Generator: Adobe Illustrator 22.0.0, SVG Export Plug-In . SVG Version: 6.00 Build 0)  -->
<svg version="1.1" id="Layer_1" xmlns="http://www.w3.org/2000/svg" xmlns:xlink="http://www.w3.org/1999/xlink" x="0px" y="0px"
	 viewBox="0 0 46.3 55.4" style="enable-background:new 0 0 46.3 55.4;" xml:space="preserve">
<style type="text/css">
	.st0{fill:#FDFDFD;}
	.st1{fill:#303030;}
</style>
<g>
	<path class="st0" d="M13.5,38.2c-1-0.5-1.8-1-1.7-1.5c0.1-0.5,0.3-0.6,0.6-0.7c0.3-0.1,0.5-0.2,0.8-0.6c0.3-0.5,0.4-1.4,0.4-2.3
		v-0.2c0.1-1.9-0.2-3.6-0.5-5.3c-0.1-0.5-0.2-1-0.2-1.5V26c-0.4-2.7-0.9-6.1,0.5-9.2c1.9-4.3,5.5-6.2,8.1-7c2.4-0.7,6-1.2,9.9,0.8
		c0.3,0.2,0.6,0.3,0.9,0.5c1.8,1.1,3,2.2,4,3.7s1.5,3.1,1.9,4.3c0.6,2,1.1,6.1-1.4,10.1c-1.8,2.9-4.4,4.1-6.9,5.3l-0.6,0.3
		c-0.4,0.2-0.8,0.4-1.2,0.5c-0.9,0.4-1.9,0.8-2.8,1.4c-1.5,0.9-3.4,2.2-3.7,3.2c-0.1,0.3,0,0.5,0,0.8c0.1,0.3,0.1,0.6-0.2,1
		c-0.4,0.4-1.2,0-2-0.4L13.5,38.2z"/>
	<path class="st1" d="M13.5,38.2c-1-0.5-1.8-1-1.7-1.5c0.1-0.5,0.3-0.6,0.6-0.7c0.3-0.1,0.5-0.2,0.8-0.6c0.3-0.5,0.4-1.4,0.4-2.3
		v-0.2c0.1-1.9-0.2-3.6-0.5-5.3c-0.1-0.5-0.2-1-0.2-1.5V26c-0.4-2.7-0.9-6.1,0.5-9.2c1.9-4.3,5.5-6.2,8.1-7c2.4-0.7,6-1.2,9.9,0.8
		c0.3,0.2,0.6,0.3,0.9,0.5c1.8,1.1,3,2.2,4,3.7s1.5,3.1,1.9,4.3c0.6,2,1.1,6.1-1.4,10.1c-1.8,2.9-4.4,4.1-6.9,5.3l-0.6,0.3
		c-0.4,0.2-0.8,0.4-1.2,0.5c-0.9,0.4-1.9,0.8-2.8,1.4c-1.5,0.9-3.4,2.2-3.7,3.2c-0.1,0.3,0,0.5,0,0.8c0.1,0.3,0.1,0.6-0.2,1
		c-0.4,0.4-1.2,0-2-0.4L13.5,38.2z M30.8,12.3c-2.7-1.4-5.6-1.7-8.6-0.8c-2.3,0.7-5.5,2.4-7.1,6.4c-1.1,2.5-0.6,5.4-0.2,7.9l0.2,1.2
		c0.5,3.1,1,6-0.3,9.5l-0.1,0.3l4.9,2.6l0.2-0.3c2-2.9,4.6-4.1,7.4-5.4c0.3-0.1,1.5-0.7,1.5-0.7c2.7-1.3,5.6-2.6,7.2-6.3
		c2.2-5,0.4-10.9-4.2-13.9C31.4,12.7,31.1,12.5,30.8,12.3z"/>
	<g>
		<path class="st1" d="M19.7,33.2c-0.6-0.3-0.2-1.1,0.3-2c0.1-0.1,0.2-0.3,0.2-0.4l1.3-2.4v-0.1c-0.1-0.5-0.2-0.8-0.3-1.1
			c-0.1-0.2-0.1-0.4-0.2-0.7c0-0.1-0.1-0.1-0.1-0.2c-0.2-0.6-0.6-1.5-0.2-2c0.2-0.3,0.6-0.3,0.9-0.1c0.4,0.2,0.7,1.1,0.9,2.1
			c0,0.2,0.1,0.3,0.1,0.4s0,0.1,0.1,0.2c0,0.1,0.1,0.2,0.1,0.4v0.1l0.2-0.1c0.1-0.1,0.3-0.1,0.5-0.2c0.1,0,0.3-0.1,0.5-0.2
			c0.8-0.3,1.7-0.6,2.3-0.4c0.2,0.1,0.3,0.2,0.3,0.4c0.1,0.2,0,0.4-0.1,0.6S26,27.9,25.6,28c-0.8,0.2-1.3,0.4-2,0.6l-0.2,0.1
			c-0.3,0.1-0.6,0.1-0.7,0.2c-0.3,0.4-0.7,1.1-0.9,1.6c-0.1,0.3-0.2,0.5-0.3,0.7c0,0.1-0.1,0.2-0.2,0.3c-0.4,0.8-0.7,1.4-1.1,1.5
			C20,33.3,19.8,33.3,19.7,33.2L19.7,33.2z"/>
		<path class="st1" d="M19.6,33.4L19.6,33.4c-0.3-0.2-0.5-0.4-0.4-1c0.1-0.4,0.3-0.8,0.6-1.3c0.1-0.1,0.2-0.3,0.2-0.4l1.2-2.3
			c-0.1-0.5-0.2-0.8-0.3-1.1c-0.1-0.2-0.1-0.4-0.2-0.7c0,0,0-0.1-0.1-0.2c-0.2-0.6-0.6-1.6-0.1-2.2c0.3-0.3,0.8-0.3,1.1-0.2l0,0
			c0.4,0.2,0.7,1.1,1,2.2c0,0.2,0.1,0.3,0.1,0.4s0,0.1,0.1,0.2c0,0.1,0,0.2,0.1,0.3c0.1-0.1,0.3-0.1,0.5-0.2c0.1,0,0.3-0.1,0.5-0.2
			c0.9-0.3,1.8-0.7,2.4-0.3c0.2,0.1,0.4,0.3,0.4,0.5c0.1,0.3,0,0.5-0.1,0.8c-0.2,0.3-0.6,0.5-1.1,0.6c-0.8,0.2-1.3,0.4-2,0.6
			L23.3,29c-0.2,0-0.5,0.1-0.6,0.2c-0.3,0.3-0.6,1-0.9,1.6c-0.1,0.3-0.2,0.5-0.3,0.7c0,0.1-0.1,0.2-0.2,0.3
			c-0.4,0.8-0.7,1.5-1.2,1.6C20,33.5,19.8,33.5,19.6,33.4L19.6,33.4z M19.8,33L19.8,33c0.1,0,0.2,0.1,0.3,0c0.4-0.1,0.7-0.7,1-1.4
			c0.1-0.1,0.1-0.3,0.2-0.3c0.1-0.2,0.2-0.4,0.3-0.7c0.3-0.6,0.6-1.3,0.9-1.7c0.1-0.2,0.4-0.2,0.8-0.3l0.2-0.1
			c0.7-0.2,1.2-0.3,2-0.6c0.3-0.1,0.7-0.2,0.8-0.4c0.1-0.1,0.1-0.3,0.1-0.5c0-0.1-0.1-0.2-0.2-0.3c-0.4-0.2-1.4,0.1-2.1,0.4
			c-0.2,0.1-0.3,0.1-0.5,0.2s-0.3,0.1-0.5,0.2l-0.4,0.2l-0.1-0.4c0-0.1-0.1-0.3-0.1-0.4s0-0.2-0.1-0.2c0-0.1-0.1-0.2-0.1-0.4
			c-0.2-0.7-0.5-1.8-0.8-2l0,0c-0.2-0.1-0.5-0.1-0.6,0.1c-0.3,0.4,0,1.2,0.2,1.8c0,0.1,0.1,0.2,0.1,0.3c0.1,0.3,0.2,0.5,0.2,0.7
			c0.1,0.3,0.2,0.6,0.3,1.1v0.1l-1.3,2.5c-0.1,0.1-0.1,0.3-0.2,0.4c-0.2,0.4-0.5,0.8-0.6,1.2C19.6,32.8,19.7,33,19.8,33z"/>
	</g>
	<g>
		<path class="st1" d="M18.5,44.4l-7.5-4c-0.4-0.2-0.5-0.7-0.3-1.1l0,0c0.2-0.4,0.7-0.5,1.1-0.3l7.5,4c0.4,0.2,0.5,0.7,0.3,1.1l0,0
			C19.4,44.4,18.9,44.6,18.5,44.4z"/>
		<path class="st1" d="M10.9,40.6c-0.2-0.1-0.4-0.3-0.5-0.6c-0.1-0.3-0.1-0.5,0.1-0.7c0.3-0.5,0.8-0.7,1.3-0.4l7.5,4
			c0.2,0.1,0.4,0.3,0.5,0.6c0.1,0.3,0.1,0.5-0.1,0.7c-0.1,0.2-0.3,0.4-0.6,0.5c-0.3,0.1-0.5,0.1-0.7-0.1L10.9,40.6L10.9,40.6z
			 M19.2,43.2L19.2,43.2l-7.5-4c-0.3-0.1-0.6,0-0.8,0.2c-0.1,0.1-0.1,0.3,0,0.4c0,0.1,0.2,0.3,0.3,0.3l7.5,4c0.1,0.1,0.3,0.1,0.4,0
			c0.1,0,0.3-0.1,0.3-0.3c0.1-0.1,0.1-0.3,0-0.4C19.4,43.4,19.3,43.2,19.2,43.2z"/>
	</g>
	<g>
		<path class="st1" d="M15,46.6l-3.4-1.8c-0.4-0.2-0.5-0.7-0.3-1.1l0,0c0.2-0.4,0.7-0.5,1.1-0.3l3.4,1.8c0.4,0.2,0.5,0.7,0.3,1.1
			l0,0C15.8,46.7,15.3,46.8,15,46.6z"/>
		<path class="st1" d="M11.4,45c-0.5-0.3-0.6-0.8-0.4-1.3c0.3-0.5,0.8-0.7,1.3-0.4l3.4,1.8c0.5,0.3,0.7,0.8,0.4,1.3
			c-0.3,0.5-0.8,0.7-1.3,0.4L11.4,45C11.5,45,11.4,45,11.4,45z M15.6,45.4L15.6,45.4l-3.4-1.8c-0.3-0.1-0.6,0-0.8,0.2
			c-0.1,0.1-0.1,0.3,0,0.4c0,0.1,0.1,0.3,0.3,0.3l3.4,1.8c0.1,0.1,0.3,0.1,0.4,0c0.1,0,0.3-0.1,0.3-0.3C16,45.9,15.9,45.6,15.6,45.4
			z"/>
	</g>
</g>
</svg>
