<?xml version="1.0" encoding="utf-8"?>
<!-- Generator: Adobe Illustrator 22.0.0, SVG Export Plug-In . SVG Version: 6.00 Build 0)  -->
<svg version="1.1" id="Layer_1" xmlns="http://www.w3.org/2000/svg" xmlns:xlink="http://www.w3.org/1999/xlink" x="0px" y="0px"
	 viewBox="0 0 356.3 304.7" style="enable-background:new 0 0 356.3 304.7;" xml:space="preserve">
<style type="text/css">
	.st0{fill:#08122D;}
	.st1{fill:none;}
	.st2{fill:url(#SVGID_1_);}
	.st3{fill:#FFFFFF;}
	.st4{clip-path:url(#SVGID_3_);}
	.st5{fill:#231F20;}
	.st6{fill:url(#SVGID_4_);}
	.st7{fill:url(#SVGID_5_);}
	.st8{fill:url(#SVGID_6_);}
	.st9{fill:url(#SVGID_7_);}
	.st10{fill:url(#SVGID_8_);}
	.st11{fill:url(#SVGID_9_);}
</style>
<path class="st0" d="M41.7,224.7l16-17.2c6.2-6.6,10.9-12.6,14-17.6c3.3-5.4,5-11.3,5-17.5c0-8.6-3.1-15.9-9.1-21.9
	c-6-5.9-13.7-9-22.8-9s-17,3.2-23.4,9.6c-6.4,6.3-9.8,14.9-10.3,25.5l-0.1,3.3h16.6l0.2-2.9c0.4-6.2,2.2-11,5.3-14.2
	c3-3.1,6.6-4.7,11.1-4.7c4.6,0,8.2,1.4,11.3,4.3c3,2.9,4.5,6.1,4.5,9.9c0,4-1,7.5-3.2,10.7c-2.4,3.5-6.6,8.4-12.4,14.6l-33.1,35.7v8
	H78v-16.7H41.7V224.7z"/>
<g>
	<polygon class="st0" points="260.9,194.2 260.9,228.9 226.2,228.9 226.2,194.2 210.3,194.2 210.3,284.6 226.2,284.6 226.2,244.5 
		260.9,244.5 260.9,284.6 276.7,284.6 276.7,194.2 	"/>
	<path class="st0" d="M277,284.8h-16.3v-40.1h-34.2v40.1h-16.4v-90.9h16.4v34.8h34.2v-34.8H277V284.8z M261.1,284.3h15.3v-89.9
		h-15.3v34.8h-35.2v-34.8h-15.4v89.9h15.4v-40.1h35.2V284.3z"/>
</g>
<g>
	<polygon class="st0" points="260.9,194.2 260.9,228.9 226.2,228.9 222.3,217.7 215.3,224.2 210.3,284.6 226.2,284.6 226.2,244.5 
		260.9,244.5 260.9,284.6 276.7,284.6 276.7,194.2 	"/>
	<path class="st0" d="M277,284.8h-16.3v-40.1h-34.2v40.1H210v-0.3l5-60.5l0.1-0.1l7.3-6.8l4,11.4h34.2v-34.8h16.3L277,284.8
		L277,284.8z M261.1,284.3h15.3v-89.9h-15.3v34.8h-35.1l-3.8-11.1l-6.6,6.2l-5,60h15.4v-40.1h35.2L261.1,284.3L261.1,284.3z"/>
</g>
<polygon class="st1" points="117.1,242.7 343.4,182.1 177.7,16.4 "/>
<g>
	
		<linearGradient id="SVGID_1_" gradientUnits="userSpaceOnUse" x1="60.6501" y1="228.1587" x2="173.4499" y2="228.1587" gradientTransform="matrix(1 0 0 -1 0 470)">
		<stop  offset="0" style="stop-color:#72FFC9"/>
		<stop  offset="0.1817" style="stop-color:#74FFC0"/>
		<stop  offset="0.4797" style="stop-color:#79FFA7"/>
		<stop  offset="0.8549" style="stop-color:#81FF7F"/>
		<stop  offset="1" style="stop-color:#84FF6E"/>
	</linearGradient>
	<circle class="st2" cx="117.1" cy="241.8" r="56.4"/>
</g>
<polygon class="st3" points="117.1,242.7 343.4,182.1 177.7,16.4 "/>
<path class="st0" d="M115,244.9l62-231.4l169.4,169.4L115,244.9z M178.5,19.3l-59.3,221.3l221.3-59.3L178.5,19.3z"/>
<g>
	<g>
		<defs>
			<polygon id="SVGID_2_" points="117.1,242.7 343.4,182.1 177.7,16.4 			"/>
		</defs>
		<clipPath id="SVGID_3_">
			<use xlink:href="#SVGID_2_"  style="overflow:visible;"/>
		</clipPath>
		<g class="st4">
			<g>
				<g>
					<path class="st0" d="M176.4,75.5c-1.6,0.3-3,0.6-3.4-0.2c-0.3-0.6-0.1-0.9,0.1-1.3c0.2-0.3,0.4-0.7,0.4-1.4
						c-0.1-0.8-0.9-2-1.6-3.1l-0.2-0.3c-1.6-2.4-3.6-4.1-5.4-5.7c-0.6-0.5-1.2-1-1.7-1.5l-0.1-0.1c-3-2.8-6.7-6.3-8-11.3
						c-1.8-6.8,0.6-12.3,3-15.8c2.1-3.1,5.9-7,12.3-8.2c0.5-0.1,1-0.2,1.6-0.2c3.1-0.3,5.5-0.2,8.1,0.6c2.6,0.8,4.7,2.1,6.2,3.2
						c2.6,1.9,7,6,7.8,13.1c0.6,5-1.3,8.9-3.1,12.6l-0.4,0.9c-0.3,0.6-0.6,1.1-0.9,1.7c-0.7,1.3-1.4,2.7-2,4.3
						c-0.9,2.4-1.9,5.8-1.4,7.3c0.1,0.4,0.5,0.7,0.7,0.9c0.4,0.3,0.8,0.6,0.7,1.3c-0.1,0.9-1.4,1.1-2.7,1.4L176.4,75.5z M172.5,29.2
						c-4.5,0.9-8.1,3.2-10.8,7c-2.1,3-4.2,7.9-2.4,14.1c1.1,4,4.3,6.8,7.2,9.4l1.3,1.2c3.5,3.1,6.8,6.1,8.5,11.3l0.2,0.5l8.2-1.6
						v-0.5c-0.4-5.2,1.6-9,3.6-13.1c0.2-0.5,1.1-2.2,1.1-2.2c2-4,4.1-8.2,2.5-14.1c-2.1-7.8-9.7-13.1-17.8-12.2
						C173.5,29,173,29.1,172.5,29.2z"/>
					<g>
						<path class="st0" d="M179,63.9c-1,0.1-1.3-1.2-1.5-2.7c0-0.3-0.1-0.5-0.1-0.7l-0.8-4h-0.1c-0.6-0.5-1-0.7-1.5-1
							c-0.3-0.2-0.6-0.4-0.9-0.6c-0.1,0-0.2-0.1-0.3-0.2c-0.8-0.5-2.1-1.2-2-2.1c0-0.5,0.5-0.9,0.9-1c0.6-0.1,1.8,0.7,3,1.6
							c0.2,0.2,0.4,0.3,0.5,0.4c0.1,0,0.2,0.1,0.3,0.2s0.3,0.2,0.4,0.3l0.2,0.1l0.2-0.3c0.1-0.2,0.2-0.4,0.4-0.7
							c0.1-0.2,0.3-0.4,0.4-0.6c0.6-1.1,1.4-2.4,2.3-2.5c0.3,0,0.5,0,0.8,0.2s0.4,0.5,0.5,0.8c0.1,0.4-0.3,0.9-0.6,1.5
							c-0.7,1-1.1,1.6-1.8,2.5l-0.2,0.3c-0.3,0.4-0.5,0.7-0.6,0.9c-0.1,0.7,0.2,1.9,0.5,2.8c0.1,0.4,0.2,0.8,0.3,1.2
							c0,0.1,0.1,0.3,0.1,0.5c0.3,1.2,0.5,2.2,0.1,2.8C179.4,63.8,179.2,63.9,179,63.9L179,63.9z"/>
						<path class="st5" d="M178.8,64.2c-0.2,0-0.5-0.1-0.7-0.2c-0.6-0.5-0.8-1.6-1-2.7c0-0.3-0.1-0.5-0.1-0.7l-0.7-3.9
							c-0.6-0.4-1-0.7-1.4-1c-0.3-0.2-0.6-0.4-0.9-0.6c-0.1,0-0.2-0.1-0.3-0.2c-0.8-0.5-2.3-1.3-2.2-2.4c0-0.7,0.6-1.1,1.2-1.2
							c0.8-0.2,1.9,0.6,3.3,1.6l0.1,0.1c0.2,0.1,0.3,0.2,0.4,0.3c0.1,0,0.1,0.1,0.3,0.2h0.1c0.1,0.1,0.2,0.2,0.3,0.3
							c0.1-0.2,0.2-0.5,0.4-0.7c0.1-0.2,0.2-0.4,0.4-0.6c0.7-1.2,1.5-2.5,2.5-2.7c0.4-0.1,0.7,0,1,0.2s0.5,0.6,0.6,1
							c0.1,0.5-0.3,1.1-0.7,1.7c-0.7,1-1.1,1.6-1.8,2.5l-0.2,0.3c-0.2,0.2-0.5,0.6-0.5,0.8c-0.1,0.7,0.2,1.8,0.5,2.7
							c0.1,0.4,0.2,0.9,0.3,1.2c0,0.1,0.1,0.3,0.1,0.5c0.3,1.3,0.5,2.4,0.1,3.1c-0.2,0.3-0.4,0.4-0.7,0.5l0,0
							C179,64.2,178.9,64.2,178.8,64.2z M172.9,51.9C172.8,51.9,172.8,51.9,172.9,51.9c-0.4,0.1-0.7,0.3-0.8,0.7
							c0,0.8,1.2,1.4,1.9,1.9c0.1,0.1,0.3,0.2,0.3,0.2c0.4,0.3,0.7,0.5,0.9,0.6c0.4,0.3,0.8,0.5,1.5,1l0.2,0.1l0.8,4.1
							c0,0.2,0.1,0.4,0.1,0.7c0.1,1,0.3,2,0.7,2.3c0.1,0.1,0.2,0.1,0.4,0.1l0,0c0.1,0,0.2-0.1,0.3-0.2c0.3-0.5,0.1-1.5-0.2-2.6
							c-0.1-0.2-0.1-0.4-0.1-0.6c-0.1-0.3-0.2-0.7-0.3-1.2c-0.2-0.9-0.5-2.1-0.5-2.9c0-0.3,0.3-0.6,0.6-1.1l0.2-0.3
							c0.6-0.9,1.1-1.5,1.8-2.5c0.2-0.3,0.6-0.9,0.6-1.3c0-0.2-0.2-0.5-0.4-0.6s-0.3-0.2-0.5-0.1c-0.7,0.1-1.5,1.4-2.1,2.4
							c-0.1,0.2-0.3,0.5-0.4,0.6c-0.2,0.2-0.3,0.5-0.4,0.7l-0.3,0.6l-0.5-0.3c-0.2-0.1-0.3-0.3-0.5-0.3h-0.1
							c-0.1-0.1-0.2-0.1-0.2-0.2c-0.1-0.1-0.3-0.2-0.4-0.3l-0.1-0.1C174.8,52.9,173.5,51.9,172.9,51.9z"/>
					</g>
				</g>
				<g>
					<path class="st0" d="M188.1,77.5l-12.4,2.4c-0.6,0.1-1.2-0.3-1.4-0.9l0,0c-0.1-0.6,0.3-1.2,0.9-1.4l12.4-2.4
						c0.6-0.1,1.2,0.3,1.4,0.9l0,0C189.2,76.8,188.7,77.4,188.1,77.5z"/>
					<path class="st5" d="M175.4,80.2c-0.7,0-1.3-0.5-1.4-1.2c-0.1-0.4,0-0.8,0.2-1.1c0.2-0.3,0.6-0.5,0.9-0.6l12.4-2.4
						c0.8-0.2,1.6,0.4,1.7,1.2c0.2,0.8-0.4,1.6-1.2,1.7l-12.4,2.4C175.6,80.2,175.5,80.2,175.4,80.2z M187.9,75.5
						c-0.1,0-0.1,0-0.2,0l-12.4,2.4c-0.2,0-0.4,0.2-0.6,0.4s-0.2,0.4-0.1,0.6c0.1,0.5,0.5,0.8,1,0.7l12.4-2.4c0.5-0.1,0.8-0.5,0.7-1
						C188.7,75.8,188.3,75.5,187.9,75.5z"/>
				</g>
				<g>
					<path class="st0" d="M185.6,82.9l-5.6,1.1c-0.6,0.1-1.2-0.3-1.4-0.9l0,0c-0.1-0.6,0.3-1.2,0.9-1.4l5.6-1.1
						c0.6-0.1,1.2,0.3,1.4,0.9l0,0C186.7,82.2,186.2,82.8,185.6,82.9z"/>
					<path class="st5" d="M179.7,84.3c-0.3,0-0.6-0.1-0.8-0.3c-0.3-0.2-0.5-0.6-0.6-0.9c-0.1-0.4,0-0.8,0.2-1.1
						c0.2-0.3,0.6-0.5,0.9-0.6l5.6-1.1c0.4-0.1,0.8,0,1.1,0.2s0.5,0.6,0.6,0.9c0.2,0.8-0.4,1.6-1.2,1.7l-5.6,1.1
						C179.9,84.3,179.8,84.3,179.7,84.3z M185.4,80.9c-0.1,0-0.1,0-0.2,0l-5.6,1.1c-0.2,0-0.4,0.2-0.6,0.4c-0.1,0.2-0.2,0.4-0.1,0.6
						c0,0.2,0.2,0.4,0.4,0.6c0.2,0.1,0.4,0.2,0.6,0.1l5.6-1.1c0.5-0.1,0.8-0.5,0.7-1c0-0.2-0.2-0.4-0.4-0.6
						C185.7,81,185.6,80.9,185.4,80.9z"/>
				</g>
			</g>
			<g>
				<g>
					<path class="st0" d="M239.2,27.7c1.5,0.7,2.8,1.3,2.7,2.1c-0.1,0.7-0.4,0.9-0.9,1c-0.4,0.2-0.8,0.4-1.1,0.9
						c-0.4,0.7-0.4,2.2-0.4,3.4v0.3c0,2.9,0.6,5.4,1.1,7.8c0.2,0.8,0.4,1.5,0.5,2.2v0.2c0.8,4,1.9,9,0.1,13.8
						c-2.4,6.6-7.6,9.7-11.5,11.2c-3.5,1.3-8.9,2.3-14.8-0.4c-0.5-0.2-0.9-0.5-1.4-0.7c-2.8-1.5-4.6-3.1-6.3-5.1
						c-1.7-2.1-2.6-4.4-3.2-6.2c-1-3-2.2-8.9,1.2-15.2c2.4-4.4,6.2-6.5,9.8-8.5l0.9-0.5c0.5-0.3,1.1-0.6,1.7-0.9
						c1.3-0.7,2.7-1.4,4.1-2.3c2.2-1.4,4.9-3.6,5.3-5.1c0.1-0.4,0-0.8-0.1-1.2c-0.1-0.5-0.3-0.9,0.2-1.5c0.6-0.7,1.8-0.1,3,0.4
						L239.2,27.7z M215.7,67.9c4.2,1.9,8.5,2,12.9,0.5c3.4-1.2,7.9-4,10.1-10.1c1.3-3.9,0.4-8.1-0.4-11.8l-0.4-1.7
						c-1-4.6-2-8.9-0.5-14.2l0.1-0.5l-7.6-3.4l-0.3,0.5c-2.7,4.4-6.5,6.5-10.5,8.7c-0.5,0.2-2.2,1.2-2.2,1.2c-4,2.2-8.1,4.4-10.2,10
						c-2.8,7.6,0.4,16.3,7.5,20.3C214.8,67.4,215.2,67.6,215.7,67.9z"/>
					<g>
						<path class="st0" d="M230.4,35.7c0.9,0.5,0.4,1.7-0.3,3c-0.1,0.2-0.2,0.4-0.3,0.6l-1.7,3.7v0.1c0.3,0.7,0.4,1.2,0.6,1.6
							c0.1,0.3,0.2,0.6,0.4,1.1c0,0.1,0.1,0.2,0.2,0.3c0.4,0.8,1,2.2,0.4,2.9c-0.3,0.4-0.9,0.4-1.3,0.3c-0.6-0.3-1.1-1.6-1.6-3
							c-0.1-0.2-0.2-0.4-0.2-0.6c0-0.1-0.1-0.2-0.1-0.4c0-0.1-0.1-0.4-0.2-0.5l-0.1-0.2l-0.3,0.2c-0.2,0.1-0.5,0.2-0.7,0.3
							c-0.2,0.1-0.4,0.2-0.7,0.3c-1.1,0.5-2.5,1.1-3.3,0.7c-0.2-0.1-0.4-0.3-0.5-0.6c-0.1-0.3-0.1-0.6,0.1-0.9
							c0.2-0.4,0.8-0.6,1.4-0.8c1.1-0.4,1.9-0.7,2.9-1l0.3-0.1c0.5-0.2,0.9-0.3,1-0.4c0.5-0.6,0.9-1.7,1.2-2.5
							c0.2-0.4,0.3-0.8,0.4-1.1c0.1-0.1,0.1-0.3,0.2-0.5c0.5-1.1,0.9-2.1,1.5-2.4C230,35.6,230.2,35.6,230.4,35.7L230.4,35.7z"/>
						<path class="st5" d="M228.9,49.8c-0.2,0-0.4,0-0.6-0.1c-0.7-0.3-1.2-1.6-1.7-3.2c-0.1-0.2-0.1-0.4-0.2-0.6
							c0-0.1-0.1-0.2-0.1-0.3c0-0.1-0.1-0.3-0.1-0.4c-0.2,0.1-0.5,0.2-0.7,0.3c-0.2,0.1-0.4,0.2-0.7,0.3c-1.2,0.5-2.7,1.1-3.6,0.7
							c-0.3-0.2-0.6-0.4-0.7-0.8c-0.1-0.4-0.1-0.8,0.1-1.1c0.2-0.5,0.9-0.7,1.5-1c1.1-0.4,1.9-0.7,2.9-1l0.3-0.1
							c0.3-0.1,0.8-0.2,0.9-0.3c0.4-0.5,0.8-1.6,1.2-2.5c0.2-0.4,0.3-0.8,0.5-1.1c0.1-0.1,0.1-0.3,0.2-0.5c0.5-1.2,0.9-2.2,1.7-2.5
							c0.3-0.1,0.6-0.1,0.9,0l0,0c0.3,0.1,0.5,0.4,0.6,0.6c0.2,0.7-0.2,1.7-0.8,2.8c-0.1,0.2-0.2,0.4-0.3,0.6l-1.6,3.6
							c0.3,0.7,0.4,1.1,0.6,1.6c0.1,0.3,0.2,0.6,0.4,1.1c0,0.1,0.1,0.2,0.1,0.3c0.4,0.9,1.1,2.4,0.4,3.3
							C229.7,49.7,229.3,49.8,228.9,49.8z M226.5,44.2l0.2,0.5c0.1,0.2,0.1,0.4,0.2,0.5c0,0.2,0.1,0.3,0.1,0.3
							c0.1,0.1,0.1,0.3,0.2,0.6c0.3,1,0.9,2.6,1.4,2.9c0.3,0.1,0.7,0.1,0.9-0.2c0.5-0.6-0.1-1.8-0.5-2.6c-0.1-0.2-0.1-0.3-0.2-0.4
							c-0.2-0.4-0.3-0.8-0.4-1.1c-0.2-0.5-0.4-0.9-0.6-1.7l-0.1-0.2l1.7-3.8c0.1-0.2,0.2-0.4,0.3-0.6c0.5-0.9,0.9-1.9,0.7-2.4
							c0-0.1-0.1-0.2-0.3-0.3l0,0c-0.1-0.1-0.3-0.1-0.4,0c-0.5,0.2-0.9,1.2-1.4,2.2c-0.1,0.2-0.2,0.4-0.2,0.5
							c-0.1,0.3-0.3,0.7-0.4,1.1c-0.3,0.9-0.8,2-1.3,2.6c-0.2,0.2-0.6,0.4-1.1,0.5l-0.3,0.1c-1,0.3-1.8,0.6-2.9,1
							c-0.4,0.1-1.1,0.4-1.2,0.7c-0.1,0.2-0.1,0.5,0,0.7s0.2,0.3,0.4,0.4c0.7,0.3,2-0.3,3.1-0.7c0.3-0.1,0.5-0.2,0.7-0.3
							c0.3-0.1,0.5-0.2,0.7-0.3L226.5,44.2z"/>
					</g>
				</g>
				<g>
					<path class="st0" d="M230.8,19.3l11.5,5.2c0.6,0.3,0.8,1,0.6,1.5l0,0c-0.3,0.6-1,0.8-1.5,0.6l-11.5-5.2c-0.6-0.3-0.8-1-0.6-1.5
						l0,0C229.5,19.3,230.2,19.1,230.8,19.3z"/>
					<path class="st5" d="M241.8,27.1c-0.2,0-0.4,0-0.6-0.1l-11.5-5.2c-0.4-0.2-0.6-0.5-0.8-0.8c-0.1-0.4-0.1-0.8,0-1.1
						c0.3-0.7,1.2-1.1,1.9-0.7l11.5,5.2c0.7,0.3,1.1,1.2,0.7,1.9C242.9,26.8,242.4,27.1,241.8,27.1z M230.3,19.5
						c-0.3,0-0.6,0.2-0.8,0.5c-0.1,0.2-0.1,0.4,0,0.7c0.1,0.2,0.2,0.4,0.5,0.5l11.5,5.2c0.4,0.2,0.9,0,1.1-0.4c0.2-0.4,0-1-0.4-1.1
						l-11.5-5.2C230.5,19.6,230.4,19.5,230.3,19.5z"/>
				</g>
				<g>
					<path class="st0" d="M235.9,16.4l5.2,2.4c0.6,0.3,0.8,1,0.6,1.5l0,0c-0.3,0.6-1,0.8-1.5,0.6l-5.2-2.4c-0.6-0.3-0.8-1-0.6-1.5
						l0,0C234.7,16.4,235.3,16.1,235.9,16.4z"/>
					<path class="st5" d="M240.7,21.3c-0.2,0-0.4,0-0.6-0.1l-5.2-2.4c-0.4-0.2-0.6-0.5-0.8-0.8s-0.1-0.8,0-1.1
						c0.3-0.7,1.2-1.1,1.9-0.7l5.2,2.4c0.7,0.3,1.1,1.2,0.7,1.9C241.8,21,241.2,21.3,240.7,21.3z M235.5,16.6
						c-0.3,0-0.6,0.2-0.8,0.5c-0.1,0.2-0.1,0.4,0,0.7c0.1,0.2,0.2,0.4,0.5,0.5l5.2,2.4c0.4,0.2,0.9,0,1.1-0.4c0.2-0.4,0-0.9-0.4-1.1
						l-5.2-2.4C235.7,16.6,235.6,16.6,235.5,16.6z"/>
				</g>
			</g>
			<g>
				<g>
					<path class="st0" d="M237.7,191.3c-1.5,0.6-2.9,1.1-3.4,0.4c-0.4-0.6-0.3-0.9-0.1-1.3c0.1-0.4,0.3-0.8,0.1-1.5
						c-0.2-0.8-1.2-1.8-2.1-2.7L232,186c-2-2.1-4.2-3.4-6.4-4.7c-0.7-0.4-1.3-0.8-1.9-1.2l-0.1-0.1c-3.4-2.2-7.7-5-9.8-9.7
						c-2.9-6.4-1.5-12.2,0.2-16c1.5-3.4,4.6-7.9,10.7-10.2c0.5-0.2,1-0.4,1.5-0.5c3-0.9,5.4-1.1,8-0.8c2.7,0.3,5,1.3,6.6,2.1
						c2.8,1.4,7.9,4.7,9.9,11.6c1.4,4.8,0.2,8.9-0.9,12.9l-0.3,1c-0.2,0.6-0.4,1.2-0.6,1.8c-0.4,1.4-0.9,2.9-1.2,4.6
						c-0.5,2.5-0.9,6-0.1,7.4c0.2,0.4,0.6,0.6,0.9,0.8c0.5,0.3,0.8,0.5,0.9,1.2c0.1,0.9-1.2,1.4-2.5,1.8L237.7,191.3z M225.8,146.3
						c-4.3,1.6-7.5,4.6-9.4,8.8c-1.5,3.3-2.8,8.5,0.1,14.3c1.8,3.7,5.5,6,8.7,8l1.5,0.9c4,2.5,7.7,4.8,10.4,9.7l0.3,0.5l7.8-2.9
						l-0.1-0.5c-1.3-5,0-9.2,1.3-13.6c0.1-0.5,0.7-2.4,0.7-2.4c1.3-4.3,2.6-8.8,0.1-14.3c-3.4-7.4-11.9-11.2-19.7-9
						C226.8,146,226.3,146.1,225.8,146.3z"/>
					<g>
						<path class="st0" d="M238.2,179.4c-1,0.3-1.5-0.9-1.9-2.4c-0.1-0.2-0.2-0.5-0.2-0.7l-1.4-3.8h-0.1c-0.7-0.3-1.1-0.5-1.6-0.7
							c-0.3-0.1-0.6-0.3-1-0.5c-0.1,0-0.2-0.1-0.4-0.1c-0.9-0.3-2.3-0.8-2.4-1.8c-0.1-0.5,0.3-0.9,0.7-1.1c0.6-0.2,1.9,0.4,3.3,1
							c0.2,0.1,0.4,0.2,0.6,0.3c0.1,0,0.2,0.1,0.3,0.2s0.3,0.2,0.5,0.3l0.2,0.1l0.1-0.3c0.1-0.2,0.2-0.5,0.3-0.7s0.2-0.4,0.3-0.7
							c0.5-1.2,1-2.6,1.8-2.9c0.3-0.1,0.5-0.1,0.8,0.1c0.3,0.1,0.5,0.4,0.6,0.7c0.1,0.4-0.1,1-0.4,1.6c-0.5,1.1-0.8,1.8-1.3,2.8
							l-0.2,0.3c-0.3,0.5-0.4,0.8-0.4,1c0.1,0.7,0.6,1.8,0.9,2.6c0.2,0.4,0.4,0.8,0.5,1.1c0.1,0.1,0.1,0.3,0.2,0.5
							c0.5,1.1,0.9,2.1,0.6,2.8C238.6,179.2,238.5,179.3,238.2,179.4L238.2,179.4z"/>
						<path class="st5" d="M237.9,179.8c-0.2,0-0.3,0-0.5-0.1c-0.7-0.3-1.1-1.4-1.4-2.5c-0.1-0.2-0.2-0.5-0.2-0.6l-1.4-3.7
							c-0.7-0.3-1.1-0.5-1.6-0.7c-0.3-0.1-0.6-0.3-1-0.5c-0.1,0-0.2-0.1-0.3-0.1c-0.9-0.3-2.5-0.9-2.6-2c-0.1-0.7,0.4-1.2,0.9-1.4
							c0.7-0.3,2,0.3,3.5,1c0.2,0.1,0.4,0.2,0.6,0.3c0.1,0,0.2,0.1,0.3,0.1h0.1c0.1,0.1,0.2,0.1,0.4,0.2c0.1-0.2,0.2-0.5,0.3-0.8
							c0.1-0.2,0.2-0.4,0.3-0.7c0.5-1.3,1.1-2.7,2-3.1c0.3-0.1,0.7-0.1,1,0.1c0.4,0.2,0.6,0.5,0.8,0.9c0.2,0.5-0.1,1.1-0.4,1.8
							c-0.5,1.1-0.8,1.8-1.3,2.8l-0.2,0.3c-0.2,0.3-0.4,0.7-0.4,0.8c0.1,0.7,0.5,1.7,0.9,2.5c0.2,0.4,0.4,0.8,0.5,1.1
							c0.1,0.1,0.1,0.3,0.2,0.5c0.5,1.2,0.9,2.3,0.6,3c-0.1,0.3-0.3,0.5-0.6,0.6l0,0C238.2,179.7,238.1,179.8,237.9,179.8z
							 M230.3,168.6c-0.1,0-0.2,0-0.2,0c-0.3,0.1-0.6,0.4-0.5,0.8c0.1,0.8,1.4,1.2,2.2,1.5c0.2,0.1,0.3,0.1,0.4,0.1
							c0.4,0.2,0.7,0.3,1,0.5c0.5,0.2,0.9,0.4,1.6,0.7l0.2,0.1l1.5,3.9c0.1,0.2,0.1,0.4,0.2,0.7c0.3,0.9,0.7,1.9,1.1,2.2
							c0.1,0.1,0.3,0.1,0.4,0l0,0c0.1,0,0.2-0.1,0.3-0.3c0.2-0.5-0.2-1.5-0.6-2.5c-0.1-0.2-0.2-0.4-0.2-0.5
							c-0.1-0.3-0.3-0.7-0.5-1.1c-0.4-0.9-0.9-2-1-2.7c0-0.3,0.1-0.6,0.4-1.2l0.2-0.3c0.5-0.9,0.8-1.7,1.3-2.7
							c0.2-0.4,0.5-1,0.4-1.3c-0.1-0.2-0.2-0.4-0.5-0.5c-0.2-0.1-0.4-0.1-0.5,0c-0.7,0.3-1.3,1.7-1.7,2.7c-0.1,0.3-0.2,0.5-0.3,0.7
							s-0.2,0.5-0.3,0.7l-0.2,0.7l-0.5-0.2c-0.2-0.1-0.4-0.2-0.5-0.3h-0.1c-0.1-0.1-0.2-0.1-0.2-0.1c-0.1-0.1-0.3-0.2-0.6-0.3
							C232.2,169.3,230.9,168.6,230.3,168.6z"/>
					</g>
				</g>
				<g>
					<path class="st0" d="M249.6,191.2l-11.8,4.5c-0.6,0.2-1.3-0.1-1.5-0.7l0,0c-0.2-0.6,0.1-1.3,0.7-1.5l11.8-4.5
						c0.6-0.2,1.3,0.1,1.5,0.7l0,0C250.5,190.3,250.2,191,249.6,191.2z"/>
					<path class="st5" d="M237.3,196.1c-0.2,0-0.4,0-0.6-0.1c-0.4-0.2-0.6-0.5-0.8-0.8c-0.3-0.8,0.1-1.6,0.9-1.9l11.8-4.5
						c0.4-0.1,0.8-0.1,1.1,0c0.4,0.2,0.6,0.5,0.8,0.8c0.3,0.8-0.1,1.6-0.9,1.9l0,0l-11.8,4.5C237.7,196.1,237.5,196.1,237.3,196.1z
						 M249.1,189.3c-0.1,0-0.2,0-0.3,0.1l-11.8,4.5c-0.4,0.2-0.7,0.7-0.5,1.1c0.1,0.2,0.2,0.4,0.5,0.5c0.2,0.1,0.4,0.1,0.7,0
						l11.8-4.5c0.4-0.2,0.7-0.7,0.5-1.1c-0.1-0.2-0.2-0.4-0.5-0.5C249.4,189.3,249.3,189.3,249.1,189.3z"/>
				</g>
				<g>
					<path class="st0" d="M248,197l-5.4,2c-0.6,0.2-1.3-0.1-1.5-0.7l0,0c-0.2-0.6,0.1-1.3,0.7-1.5l5.4-2c0.6-0.2,1.3,0.1,1.5,0.7
						l0,0C248.9,196.1,248.6,196.8,248,197z"/>
					<path class="st5" d="M242.3,199.4c-0.6,0-1.2-0.4-1.4-0.9c-0.3-0.8,0.1-1.6,0.9-1.9l5.4-2c0.8-0.3,1.6,0.1,1.9,0.9
						c0.3,0.8-0.1,1.6-0.9,1.9l0,0l-5.4,2C242.6,199.4,242.4,199.4,242.3,199.4z M247.6,195c-0.1,0-0.2,0-0.3,0.1l-5.4,2
						c-0.4,0.2-0.7,0.7-0.5,1.1c0.2,0.4,0.7,0.7,1.1,0.5l5.4-2c0.4-0.2,0.7-0.7,0.5-1.1C248.3,195.2,248,195,247.6,195z"/>
				</g>
			</g>
			<g>
				<g>
					<path class="st0" d="M277.4,150.2c-1.5,0.6-2.9,1.1-3.4,0.4c-0.4-0.6-0.3-0.9-0.1-1.3c0.1-0.4,0.3-0.8,0.1-1.5
						c-0.2-0.8-1.2-1.8-2.1-2.7l-0.2-0.2c-2-2.1-4.2-3.4-6.4-4.7c-0.7-0.4-1.3-0.8-1.9-1.2l-0.1-0.1c-3.4-2.2-7.7-5-9.8-9.7
						c-2.9-6.4-1.5-12.2,0.2-16c1.5-3.4,4.6-7.9,10.7-10.2c0.5-0.2,1-0.4,1.5-0.5c3-0.9,5.4-1.1,8-0.8c2.7,0.3,5,1.3,6.6,2.1
						c2.8,1.4,7.9,4.7,9.9,11.6c1.4,4.8,0.2,8.9-0.9,12.9l-0.3,1c-0.2,0.6-0.4,1.2-0.6,1.8c-0.4,1.4-0.9,2.9-1.2,4.6
						c-0.5,2.5-0.9,6-0.1,7.4c0.2,0.4,0.6,0.6,0.9,0.8c0.5,0.3,0.8,0.5,0.9,1.2c0.1,0.9-1.2,1.4-2.5,1.8L277.4,150.2z M265.6,105.3
						c-4.3,1.6-7.5,4.6-9.4,8.8c-1.5,3.3-2.8,8.5,0.1,14.3c1.8,3.7,5.5,6,8.7,8l1.5,0.9c4,2.5,7.7,4.8,10.4,9.7l0.3,0.5l7.8-2.9
						l-0.1-0.5c-1.3-5,0-9.2,1.3-13.6c0.1-0.5,0.7-2.4,0.7-2.4c1.3-4.3,2.6-8.8,0.1-14.3c-3.4-7.4-11.9-11.2-19.7-9
						C266.5,105,266,105.1,265.6,105.3z"/>
					<g>
						<path class="st0" d="M278,138.4c-1,0.3-1.5-0.9-1.9-2.4c-0.1-0.2-0.2-0.5-0.2-0.7l-1.4-3.8h-0.1c-0.7-0.3-1.1-0.5-1.6-0.7
							c-0.3-0.1-0.6-0.3-1-0.5c-0.1,0-0.2-0.1-0.4-0.1c-0.9-0.3-2.3-0.8-2.4-1.8c-0.1-0.5,0.3-0.9,0.7-1.1c0.6-0.2,1.9,0.4,3.3,1
							c0.2,0.1,0.4,0.2,0.6,0.3c0.1,0,0.2,0.1,0.3,0.2s0.3,0.2,0.5,0.3l0.2,0.1l0.1-0.3c0.1-0.2,0.2-0.5,0.3-0.7s0.2-0.4,0.3-0.7
							c0.5-1.2,1-2.6,1.8-2.9c0.3-0.1,0.5-0.1,0.8,0.1c0.3,0.1,0.5,0.4,0.6,0.7c0.1,0.4-0.1,1-0.4,1.6c-0.5,1.1-0.8,1.8-1.3,2.8
							l-0.2,0.3c-0.3,0.5-0.4,0.8-0.4,1c0.1,0.7,0.6,1.8,0.9,2.6c0.2,0.4,0.4,0.8,0.5,1.1c0.1,0.1,0.1,0.3,0.2,0.5
							c0.5,1.1,0.9,2.1,0.6,2.8C278.3,138.2,278.2,138.3,278,138.4L278,138.4z"/>
						<path class="st5" d="M277.7,138.7c-0.2,0-0.3,0-0.5-0.1c-0.7-0.3-1.1-1.4-1.4-2.5c-0.1-0.3-0.2-0.5-0.2-0.6l-1.4-3.7
							c-0.7-0.3-1.1-0.5-1.6-0.7c-0.3-0.1-0.6-0.3-1-0.5c-0.1,0-0.2-0.1-0.3-0.1c-0.9-0.3-2.5-0.9-2.6-2c-0.1-0.7,0.4-1.2,0.9-1.4
							c0.7-0.3,2,0.3,3.5,1c0.2,0.1,0.4,0.2,0.6,0.3c0.1,0,0.2,0.1,0.4,0.2c0.1,0.1,0.2,0.1,0.4,0.2c0.1-0.2,0.2-0.5,0.3-0.8
							c0.1-0.2,0.2-0.4,0.3-0.7c0.5-1.3,1.1-2.7,2-3.1c0.3-0.1,0.7-0.1,1,0.1c0.4,0.2,0.6,0.5,0.8,0.9c0.2,0.5-0.1,1.1-0.4,1.8
							c-0.5,1.1-0.8,1.8-1.3,2.8l-0.2,0.3c-0.2,0.3-0.4,0.7-0.4,0.8c0.1,0.7,0.5,1.7,0.9,2.5c0.2,0.4,0.4,0.8,0.5,1.1
							c0.1,0.1,0.1,0.3,0.2,0.5c0.5,1.2,0.9,2.3,0.6,3c-0.1,0.3-0.3,0.5-0.6,0.6l0,0C277.9,138.7,277.8,138.7,277.7,138.7z
							 M270,127.6c-0.1,0-0.2,0-0.2,0c-0.3,0.1-0.6,0.4-0.5,0.8c0.1,0.8,1.4,1.2,2.2,1.5c0.2,0.1,0.3,0.1,0.4,0.1
							c0.4,0.2,0.7,0.3,1,0.5c0.5,0.2,0.9,0.4,1.6,0.7l0.2,0.1l1.5,3.9c0.1,0.2,0.1,0.4,0.2,0.6c0.3,1,0.7,2,1.2,2.2
							c0.1,0.1,0.3,0.1,0.4,0l0,0c0.1,0,0.2-0.1,0.3-0.3c0.2-0.5-0.2-1.5-0.6-2.5c-0.1-0.2-0.2-0.4-0.2-0.5
							c-0.1-0.3-0.3-0.7-0.5-1.1c-0.4-0.9-0.9-2-1-2.7c0-0.3,0.1-0.6,0.4-1.2l0.2-0.3c0.5-0.9,0.8-1.7,1.3-2.7
							c0.2-0.4,0.5-1,0.4-1.3c-0.1-0.2-0.2-0.4-0.5-0.5c-0.2-0.1-0.4-0.1-0.5,0c-0.7,0.3-1.3,1.7-1.7,2.7c-0.1,0.3-0.2,0.5-0.3,0.7
							s-0.2,0.5-0.3,0.7l-0.2,0.6l-0.5-0.2c-0.2-0.1-0.4-0.2-0.5-0.3c-0.1-0.1-0.2-0.1-0.3-0.2s-0.3-0.2-0.6-0.3
							C272,128.2,270.6,127.6,270,127.6z"/>
					</g>
				</g>
				<g>
					<path class="st0" d="M289.3,150.2l-11.8,4.5c-0.6,0.2-1.3-0.1-1.5-0.7l0,0c-0.2-0.6,0.1-1.3,0.7-1.5l11.8-4.5
						c0.6-0.2,1.3,0.1,1.5,0.7l0,0C290.2,149.3,289.9,150,289.3,150.2z"/>
					<path class="st5" d="M277,155.1c-0.6,0-1.2-0.4-1.4-0.9c-0.3-0.8,0.1-1.6,0.9-1.9l11.8-4.5c0.4-0.1,0.8-0.1,1.1,0
						c0.4,0.2,0.6,0.5,0.8,0.8c0.1,0.4,0.1,0.8,0,1.1c-0.2,0.4-0.5,0.6-0.8,0.8l-11.8,4.5C277.4,155.1,277.2,155.1,277,155.1z
						 M288.9,148.3c-0.1,0-0.2,0-0.3,0.1l-11.8,4.5c-0.4,0.2-0.7,0.7-0.5,1.1s0.7,0.7,1.1,0.5l11.8-4.5c0.2-0.1,0.4-0.2,0.5-0.5
						s0.1-0.4,0-0.7c-0.1-0.2-0.2-0.4-0.5-0.5C289.1,148.3,289,148.3,288.9,148.3z"/>
				</g>
				<g>
					<path class="st0" d="M287.8,156l-5.4,2c-0.6,0.2-1.3-0.1-1.5-0.7l0,0c-0.2-0.6,0.1-1.3,0.7-1.5l5.4-2c0.6-0.2,1.3,0.1,1.5,0.7
						l0,0C288.7,155.1,288.4,155.7,287.8,156z"/>
					<path class="st5" d="M282,158.4c-0.6,0-1.2-0.4-1.4-0.9c-0.3-0.8,0.1-1.6,0.9-1.9l5.4-2c0.4-0.1,0.8-0.1,1.1,0
						c0.4,0.2,0.6,0.5,0.8,0.8c0.3,0.8-0.1,1.6-0.9,1.9l0,0l-5.4,2C282.3,158.3,282.1,158.4,282,158.4z M287.3,154
						c-0.1,0-0.2,0-0.3,0.1l-5.4,2c-0.4,0.2-0.7,0.7-0.5,1.1s0.7,0.7,1.1,0.5l5.4-2l0,0c0.4-0.2,0.7-0.7,0.5-1.1
						c-0.1-0.2-0.2-0.4-0.5-0.5C287.6,154,287.5,154,287.3,154z"/>
				</g>
			</g>
			<g>
				<g>
					<path class="st0" d="M229.8,128.5c-1.4,0.9-2.6,1.7-3.2,1.1c-0.5-0.5-0.5-0.8-0.4-1.3c0.1-0.4,0.1-0.9-0.2-1.5
						c-0.4-0.7-1.6-1.5-2.7-2.2l-0.3-0.2c-2.4-1.6-4.9-2.4-7.2-3.2c-0.8-0.3-1.5-0.5-2.1-0.8l-0.2-0.1c-3.8-1.4-8.6-3.2-11.7-7.3
						c-4.3-5.6-4.1-11.6-3.3-15.7c0.8-3.7,2.8-8.7,8.2-12.3c0.4-0.3,0.9-0.6,1.4-0.8c2.8-1.5,5.1-2.3,7.7-2.5
						c2.7-0.3,5.1,0.2,6.9,0.6c3.1,0.7,8.7,2.9,12.2,9.2c2.4,4.4,2.2,8.7,1.9,12.8l-0.1,1c0,0.6-0.1,1.3-0.1,1.9
						c-0.1,1.5-0.3,3.1-0.2,4.7c0,2.6,0.5,6,1.5,7.2c0.3,0.3,0.7,0.4,1,0.6c0.5,0.2,0.9,0.3,1.2,1c0.3,0.8-0.9,1.6-2,2.3
						L229.8,128.5z M208.4,87.2c-3.8,2.5-6.3,6.1-7.3,10.6c-0.8,3.6-0.9,8.9,3.2,13.9c2.6,3.2,6.6,4.7,10.2,5.9l1.7,0.6
						c4.4,1.6,8.6,3,12.2,7.2l0.3,0.4l7-4.6l-0.2-0.5c-2.3-4.6-2-9-1.7-13.5c0-0.5,0.2-2.5,0.2-2.5c0.3-4.5,0.6-9.2-3-14
						c-4.9-6.5-14-8.4-21.2-4.5C209.3,86.7,208.9,86.9,208.4,87.2z"/>
					<g>
						<path class="st0" d="M227.7,116.8c-0.9,0.5-1.6-0.6-2.4-1.9c-0.1-0.2-0.3-0.4-0.4-0.6l-2.2-3.4h-0.1c-0.8-0.2-1.2-0.3-1.7-0.4
							c-0.3-0.1-0.7-0.1-1.1-0.2c-0.1,0-0.2,0-0.4-0.1c-0.9-0.1-2.4-0.3-2.7-1.2c-0.2-0.5,0.1-1,0.5-1.2c0.5-0.3,1.9-0.1,3.4,0.3
							c0.3,0.1,0.5,0.1,0.6,0.1s0.2,0.1,0.4,0.1c0.1,0,0.4,0.1,0.5,0.1l0.2,0.1v-0.3c0-0.2,0-0.5,0.1-0.8c0-0.2,0.1-0.5,0.1-0.7
							c0.2-1.2,0.4-2.7,1.2-3.2c0.2-0.1,0.5-0.2,0.8-0.1s0.6,0.3,0.7,0.5c0.2,0.4,0.1,1,0,1.6c-0.2,1.2-0.4,2-0.7,3l-0.1,0.3
							c-0.1,0.5-0.2,0.9-0.2,1.1c0.2,0.7,0.9,1.6,1.5,2.4c0.3,0.4,0.5,0.7,0.7,1c0.1,0.1,0.2,0.3,0.3,0.5c0.7,1,1.3,1.9,1.2,2.6
							C228.1,116.5,227.9,116.7,227.7,116.8L227.7,116.8z"/>
						<path class="st5" d="M227.3,117.3c-0.1,0-0.2,0-0.3,0c-0.7-0.2-1.3-1.1-2-2.1c-0.1-0.2-0.3-0.4-0.4-0.6l-2.2-3.3
							c-0.7-0.2-1.2-0.3-1.7-0.4c-0.3-0.1-0.7-0.1-1.1-0.2c-0.1,0-0.2,0-0.4,0c-1-0.1-2.6-0.3-2.9-1.4c-0.2-0.6,0.1-1.3,0.6-1.6
							c0.6-0.4,2-0.1,3.6,0.3c0.2,0.1,0.5,0.1,0.6,0.1s0.2,0.1,0.4,0.1c0.1,0,0.3,0.1,0.4,0.1c0-0.2,0-0.5,0.1-0.8
							c0-0.2,0.1-0.4,0.1-0.7c0.2-1.3,0.5-2.9,1.3-3.4c0.3-0.2,0.7-0.2,1-0.2c0.4,0.1,0.7,0.3,0.9,0.7c0.3,0.4,0.2,1.1,0,1.8
							c-0.2,1.2-0.4,1.9-0.7,3l-0.1,0.3c-0.1,0.3-0.2,0.8-0.2,0.9c0.2,0.6,0.9,1.6,1.5,2.3c0.3,0.4,0.5,0.7,0.7,1
							c0.1,0.1,0.2,0.3,0.3,0.4c0.8,1.1,1.4,2,1.2,2.8c-0.1,0.3-0.2,0.5-0.5,0.7l0,0C227.7,117.2,227.5,117.3,227.3,117.3z M218,108
							c-0.2,0-0.4,0-0.6,0.1c-0.3,0.2-0.5,0.6-0.4,0.9c0.2,0.7,1.6,0.9,2.4,1c0.2,0,0.3,0,0.4,0.1c0.5,0.1,0.8,0.2,1.1,0.2
							c0.5,0.1,1,0.2,1.7,0.4h0.2l2.3,3.5c0.1,0.2,0.2,0.4,0.4,0.6c0.5,0.9,1.1,1.8,1.6,1.9c0.1,0,0.3,0,0.4-0.1l0,0
							c0.1-0.1,0.2-0.2,0.2-0.3c0.1-0.6-0.5-1.4-1.1-2.3c-0.1-0.2-0.2-0.3-0.3-0.5c-0.2-0.3-0.4-0.6-0.7-1c-0.6-0.8-1.3-1.7-1.5-2.5
							c-0.1-0.3,0-0.7,0.2-1.2l0.1-0.3c0.3-1,0.4-1.8,0.7-3c0.1-0.4,0.2-1.1,0.1-1.4c-0.1-0.2-0.3-0.4-0.6-0.4c-0.2,0-0.4,0-0.5,0.1
							c-0.6,0.4-0.9,1.9-1,3c0,0.3-0.1,0.5-0.1,0.7c-0.1,0.3-0.1,0.5-0.1,0.7l-0.1,0.7l-0.6-0.1c-0.2,0-0.4-0.1-0.6-0.1
							c-0.2,0-0.3-0.1-0.3-0.1c-0.2,0-0.4-0.1-0.6-0.1C219.8,108.3,218.7,108,218,108z"/>
					</g>
				</g>
				<g>
					<path class="st0" d="M241.4,125.9l-10.6,6.9c-0.5,0.4-1.3,0.2-1.6-0.3l0,0c-0.4-0.5-0.2-1.3,0.3-1.6l10.6-6.9
						c0.5-0.4,1.3-0.2,1.6,0.3l0,0C242,124.9,241.9,125.6,241.4,125.9z"/>
					<path class="st5" d="M230.1,133.4c-0.5,0-0.9-0.2-1.2-0.7c-0.4-0.7-0.3-1.6,0.4-2l10.6-6.9c0.7-0.4,1.6-0.3,2,0.4
						c0.4,0.7,0.3,1.6-0.4,2l0,0l-10.6,6.9C230.7,133.3,230.4,133.4,230.1,133.4z M240.7,124.1c-0.2,0-0.3,0-0.5,0.1l-10.6,6.9
						c-0.4,0.3-0.5,0.8-0.2,1.2c0.3,0.4,0.8,0.5,1.2,0.2l10.6-6.9l0,0c0.4-0.3,0.5-0.8,0.2-1.2C241.3,124.2,241,124.1,240.7,124.1z"
						/>
				</g>
				<g>
					<path class="st0" d="M241.1,131.9l-4.8,3.2c-0.5,0.4-1.3,0.2-1.6-0.3l0,0c-0.4-0.5-0.2-1.3,0.3-1.6l4.8-3.2
						c0.5-0.4,1.3-0.2,1.6,0.3l0,0C241.8,130.8,241.6,131.5,241.1,131.9z"/>
					<path class="st5" d="M235.7,135.5c-0.5,0-0.9-0.2-1.2-0.7c-0.4-0.7-0.3-1.6,0.4-2l4.8-3.2c0.7-0.4,1.6-0.3,2,0.4
						c0.4,0.7,0.3,1.6-0.4,2l0,0l-4.8,3.2C236.2,135.4,235.9,135.5,235.7,135.5z M240.5,130c-0.2,0-0.3,0-0.5,0.1l-4.8,3.2
						c-0.4,0.3-0.5,0.8-0.2,1.2c0.3,0.4,0.8,0.5,1.2,0.2l4.8-3.2c0.4-0.3,0.5-0.8,0.2-1.2C241,130.2,240.7,130,240.5,130z"/>
				</g>
			</g>
			<g>
				<g>
					<path class="st0" d="M151.7,129c-1.4,0.9-2.6,1.6-3.3,1c-0.5-0.5-0.5-0.8-0.4-1.3c0.1-0.4,0.1-0.9-0.1-1.5
						c-0.4-0.7-1.5-1.6-2.6-2.3l-0.3-0.2c-2.4-1.6-4.8-2.6-7.1-3.4c-0.8-0.3-1.4-0.5-2.1-0.8l-0.2-0.1c-3.8-1.6-8.5-3.5-11.5-7.7
						c-4.1-5.7-3.8-11.7-2.8-15.8c0.9-3.6,3.1-8.7,8.6-12.1c0.4-0.3,0.9-0.5,1.4-0.8c2.8-1.4,5.1-2.1,7.8-2.3
						c2.7-0.2,5.1,0.4,6.9,0.8c3,0.8,8.7,3.2,11.9,9.5c2.3,4.5,1.9,8.7,1.5,12.9l-0.1,1c-0.1,0.6-0.1,1.3-0.2,1.9
						c-0.2,1.5-0.3,3.1-0.4,4.7c0,2.6,0.3,6.1,1.3,7.3c0.3,0.3,0.7,0.5,1,0.6c0.5,0.2,0.9,0.3,1.1,1c0.3,0.8-0.9,1.6-2.1,2.3
						L151.7,129z M131.7,87c-3.9,2.4-6.5,5.9-7.6,10.4c-0.9,3.5-1.1,8.8,2.7,14c2.5,3.3,6.5,4.9,10,6.2l1.6,0.6
						c4.4,1.7,8.5,3.3,12,7.6l0.3,0.4l7.1-4.4l-0.2-0.5c-2.2-4.7-1.7-9-1.3-13.6c0.1-0.5,0.2-2.4,0.2-2.4c0.4-4.5,0.9-9.1-2.6-14.1
						c-4.7-6.6-13.8-8.8-21-5.1C132.6,86.5,132.1,86.8,131.7,87z"/>
					<g>
						<path class="st0" d="M150,117.2c-0.9,0.5-1.6-0.7-2.3-2c-0.1-0.2-0.2-0.4-0.3-0.6l-2.1-3.5h-0.1c-0.8-0.2-1.2-0.3-1.7-0.4
							c-0.3-0.1-0.6-0.1-1.1-0.3c-0.1,0-0.2,0-0.4-0.1c-0.9-0.1-2.4-0.4-2.7-1.3c-0.2-0.5,0.1-1,0.5-1.2c0.5-0.3,1.9,0,3.4,0.4
							c0.2,0.1,0.5,0.1,0.6,0.2c0.1,0,0.2,0.1,0.4,0.1c0.1,0,0.4,0.1,0.5,0.2l0.2,0.1v-0.3c0-0.2,0.1-0.5,0.1-0.8
							c0-0.2,0.1-0.5,0.1-0.7c0.2-1.2,0.5-2.7,1.3-3.2c0.2-0.1,0.5-0.2,0.8-0.1s0.6,0.3,0.7,0.6c0.2,0.4,0.1,1-0.1,1.6
							c-0.3,1.2-0.5,1.9-0.8,3l-0.1,0.3c-0.2,0.5-0.3,0.9-0.2,1.1c0.2,0.7,0.9,1.7,1.4,2.4c0.3,0.4,0.5,0.7,0.7,1
							c0.1,0.1,0.2,0.3,0.3,0.5c0.7,1,1.3,1.9,1.1,2.6C150.4,116.9,150.2,117.1,150,117.2L150,117.2z"/>
						<path class="st5" d="M149.6,117.6c-0.1,0-0.2,0-0.3,0c-0.7-0.2-1.3-1.2-1.9-2.2c-0.1-0.2-0.2-0.4-0.3-0.6l-2.1-3.4
							c-0.7-0.2-1.2-0.3-1.7-0.4c-0.3-0.1-0.7-0.1-1.1-0.3c-0.1,0-0.2,0-0.3-0.1c-1-0.2-2.6-0.4-2.9-1.5c-0.2-0.6,0.2-1.3,0.6-1.6
							c0.7-0.4,2-0.1,3.6,0.4c0.3,0.1,0.5,0.1,0.6,0.2c0.1,0,0.2,0.1,0.3,0.1s0.3,0.1,0.4,0.1c0-0.2,0.1-0.5,0.1-0.8
							c0-0.2,0.1-0.4,0.1-0.7c0.3-1.3,0.5-2.8,1.4-3.4c0.3-0.2,0.7-0.2,1-0.1c0.4,0.1,0.7,0.4,0.9,0.7c0.3,0.5,0.1,1.1,0,1.8
							c-0.3,1.2-0.5,1.9-0.8,3l-0.1,0.3c-0.1,0.3-0.2,0.8-0.2,0.9c0.2,0.6,0.8,1.6,1.4,2.3c0.3,0.4,0.5,0.7,0.7,1
							c0.1,0.1,0.2,0.3,0.3,0.5c0.7,1.1,1.3,2,1.2,2.8c-0.1,0.3-0.2,0.5-0.5,0.7l0,0C150,117.6,149.8,117.6,149.6,117.6z
							 M140.5,108.1c-0.2,0-0.4,0-0.5,0.1c-0.3,0.2-0.5,0.5-0.4,0.9c0.2,0.7,1.6,0.9,2.4,1.1c0.2,0,0.3,0.1,0.4,0.1
							c0.5,0.1,0.8,0.2,1.1,0.3c0.5,0.1,1,0.2,1.7,0.4h0.2l2.2,3.6c0.1,0.2,0.2,0.4,0.4,0.6c0.5,0.9,1,1.8,1.5,1.9
							c0.1,0,0.3,0,0.4-0.1l0,0c0.1-0.1,0.2-0.2,0.2-0.3c0.1-0.6-0.4-1.4-1.1-2.4c-0.1-0.2-0.2-0.4-0.3-0.5c-0.2-0.3-0.4-0.6-0.7-1
							c-0.6-0.8-1.3-1.8-1.5-2.5c-0.1-0.3,0-0.7,0.2-1.2l0.1-0.3c0.3-1,0.5-1.8,0.8-2.9c0.1-0.4,0.3-1.1,0.1-1.4
							c-0.1-0.2-0.3-0.4-0.5-0.4c-0.2-0.1-0.4,0-0.5,0.1c-0.6,0.4-0.9,1.9-1.1,3c-0.1,0.3-0.1,0.5-0.2,0.7c-0.1,0.3-0.1,0.5-0.1,0.7
							l-0.1,0.7l-0.6-0.1c-0.2,0-0.4-0.1-0.5-0.2c-0.2-0.1-0.3-0.1-0.3-0.1c-0.1,0-0.3-0.1-0.6-0.2
							C142.4,108.4,141.2,108.1,140.5,108.1z"/>
					</g>
				</g>
				<g>
					<path class="st0" d="M163.4,126.7l-10.8,6.6c-0.5,0.3-1.3,0.2-1.6-0.4l0,0c-0.3-0.5-0.2-1.3,0.4-1.6l10.8-6.6
						c0.5-0.3,1.3-0.2,1.6,0.4l0,0C164.1,125.7,163.9,126.4,163.4,126.7z"/>
					<path class="st5" d="M152,133.8c-0.5,0-1-0.2-1.3-0.7c-0.4-0.7-0.2-1.6,0.5-2l10.8-6.6c0.3-0.2,0.7-0.3,1.1-0.2
						c0.4,0.1,0.7,0.3,0.9,0.7c0.2,0.3,0.3,0.7,0.2,1.1s-0.3,0.7-0.7,0.9l0,0l-10.8,6.6C152.5,133.7,152.2,133.8,152,133.8z
						 M162.8,124.9c-0.2,0-0.3,0-0.4,0.1l-10.8,6.6c-0.4,0.2-0.5,0.8-0.3,1.2c0.2,0.4,0.8,0.5,1.2,0.3l10.8-6.6
						c0.2-0.1,0.3-0.3,0.4-0.5c0.1-0.2,0-0.5-0.1-0.7s-0.3-0.3-0.5-0.4C162.9,124.9,162.8,124.9,162.8,124.9z"/>
				</g>
				<g>
					<path class="st0" d="M163,132.6l-4.9,3c-0.5,0.3-1.3,0.2-1.6-0.4l0,0c-0.3-0.5-0.2-1.3,0.4-1.6l4.9-3c0.5-0.3,1.3-0.2,1.6,0.4
						l0,0C163.7,131.6,163.5,132.3,163,132.6z"/>
					<path class="st5" d="M157.4,136.1c-0.5,0-1-0.2-1.3-0.7c-0.2-0.3-0.3-0.7-0.2-1.1s0.3-0.7,0.7-0.9l4.9-3c0.7-0.4,1.6-0.2,2,0.5
						c0.2,0.3,0.3,0.7,0.2,1.1s-0.3,0.7-0.7,0.9l-4.9,3C158,136.1,157.7,136.1,157.4,136.1z M162.3,130.8c-0.2,0-0.3,0-0.5,0.1
						l-4.9,3c-0.2,0.1-0.3,0.3-0.4,0.5c-0.1,0.2,0,0.5,0.1,0.7c0.2,0.4,0.8,0.5,1.2,0.3l4.9-3c0.2-0.1,0.3-0.3,0.4-0.5
						c0.1-0.2,0-0.5-0.1-0.7C162.9,130.9,162.6,130.8,162.3,130.8z"/>
				</g>
			</g>
			<g>
				<g>
					<path class="st0" d="M324.7,196.2c-1.5,0.6-2.9,1.1-3.4,0.4c-0.4-0.6-0.3-0.9-0.1-1.3c0.1-0.4,0.3-0.8,0.1-1.5
						c-0.2-0.8-1.2-1.8-2.1-2.7l-0.2-0.2c-2-2.1-4.2-3.4-6.4-4.7c-0.7-0.4-1.3-0.8-1.9-1.2l-0.1-0.1c-3.4-2.2-7.7-5-9.8-9.7
						c-2.9-6.4-1.5-12.2,0.2-16c1.5-3.4,4.6-7.9,10.7-10.2c0.5-0.2,1-0.4,1.5-0.5c3-0.9,5.4-1.1,8-0.8c2.7,0.3,5,1.3,6.6,2.1
						c2.8,1.4,7.9,4.7,9.9,11.6c1.4,4.8,0.2,8.9-0.9,12.9l-0.3,1c-0.2,0.6-0.4,1.2-0.6,1.8c-0.4,1.4-0.9,2.9-1.2,4.6
						c-0.5,2.5-0.9,6-0.1,7.4c0.2,0.4,0.6,0.6,0.9,0.8c0.5,0.3,0.8,0.5,0.9,1.2c0.1,0.9-1.2,1.4-2.5,1.8L324.7,196.2z M312.9,151.2
						c-4.3,1.6-7.5,4.6-9.4,8.8c-1.5,3.3-2.8,8.5,0.1,14.3c1.8,3.7,5.5,6,8.7,8l1.5,0.9c4,2.5,7.7,4.8,10.4,9.7l0.3,0.5l7.8-2.9
						l-0.1-0.5c-1.3-5,0-9.2,1.3-13.6c0.1-0.5,0.7-2.4,0.7-2.4c1.3-4.3,2.6-8.8,0.1-14.3c-3.4-7.4-11.9-11.2-19.7-9
						C313.9,150.9,313.4,151,312.9,151.2z"/>
					<g>
						<path class="st0" d="M325.3,184.3c-1,0.3-1.5-0.9-1.9-2.4c-0.1-0.2-0.2-0.5-0.2-0.7l-1.4-3.8h-0.1c-0.7-0.3-1.1-0.5-1.6-0.7
							c-0.3-0.1-0.6-0.3-1-0.5c-0.1,0-0.2-0.1-0.4-0.1c-0.9-0.3-2.3-0.8-2.4-1.8c-0.1-0.5,0.3-0.9,0.7-1.1c0.6-0.2,1.9,0.4,3.3,1
							c0.2,0.1,0.4,0.2,0.6,0.3c0.1,0,0.2,0.1,0.3,0.2s0.3,0.2,0.5,0.3l0.2,0.1l0.1-0.3c0.1-0.2,0.2-0.5,0.3-0.7s0.2-0.4,0.3-0.7
							c0.5-1.2,1-2.6,1.8-2.9c0.3-0.1,0.5-0.1,0.8,0.1c0.3,0.1,0.5,0.4,0.6,0.7c0.1,0.4-0.1,1-0.4,1.6c-0.5,1.1-0.8,1.8-1.3,2.8
							l-0.2,0.3c-0.3,0.5-0.4,0.8-0.4,1c0.1,0.7,0.6,1.8,0.9,2.6c0.2,0.4,0.4,0.8,0.5,1.1c0.1,0.1,0.1,0.3,0.2,0.5
							c0.5,1.1,0.9,2.1,0.6,2.8C325.7,184.1,325.5,184.2,325.3,184.3L325.3,184.3z"/>
						<path class="st5" d="M325,184.7c-0.2,0-0.3,0-0.5-0.1c-0.7-0.3-1.1-1.4-1.4-2.5c-0.1-0.2-0.2-0.5-0.2-0.6l-1.4-3.7
							c-0.7-0.3-1.1-0.5-1.6-0.7c-0.3-0.1-0.6-0.3-1-0.5c-0.1,0-0.2-0.1-0.3-0.1c-0.9-0.3-2.4-0.9-2.6-2c-0.1-0.7,0.4-1.2,0.9-1.4
							c0.7-0.3,2,0.3,3.5,1c0.2,0.1,0.4,0.2,0.6,0.3c0.1,0,0.2,0.1,0.3,0.1h0.1c0.1,0.1,0.2,0.1,0.4,0.2c0.1-0.2,0.2-0.5,0.3-0.8
							c0.1-0.2,0.2-0.4,0.3-0.7c0.5-1.3,1.1-2.7,2-3.1c0.3-0.1,0.7-0.1,1,0.1c0.4,0.2,0.6,0.5,0.8,0.9c0.2,0.5-0.1,1.1-0.4,1.8
							c-0.5,1.1-0.8,1.8-1.3,2.8l-0.2,0.3c-0.2,0.3-0.4,0.7-0.4,0.8c0.1,0.7,0.5,1.7,0.9,2.5c0.2,0.4,0.4,0.8,0.5,1.1
							c0,0.1,0.1,0.3,0.2,0.5c0.5,1.2,0.9,2.3,0.6,3c-0.1,0.3-0.3,0.5-0.6,0.6l0,0C325.2,184.6,325.1,184.7,325,184.7z M317.3,173.5
							c-0.1,0-0.2,0-0.2,0c-0.3,0.1-0.6,0.4-0.5,0.8c0.1,0.8,1.4,1.2,2.2,1.5c0.2,0.1,0.3,0.1,0.4,0.1c0.4,0.2,0.7,0.3,1,0.5
							c0.5,0.2,0.9,0.4,1.6,0.7l0.2,0.1l1.5,3.9c0.1,0.2,0.1,0.4,0.2,0.7c0.3,0.9,0.7,1.9,1.1,2.2c0.1,0.1,0.3,0.1,0.4,0l0,0
							c0.1,0,0.2-0.1,0.3-0.3c0.2-0.5-0.2-1.5-0.6-2.5c-0.1-0.2-0.2-0.4-0.2-0.5c-0.1-0.3-0.3-0.7-0.5-1.1c-0.4-0.9-0.9-2-1-2.7
							c0-0.3,0.1-0.6,0.4-1.2l0.2-0.3c0.5-1,0.8-1.7,1.3-2.7c0.2-0.4,0.5-1,0.4-1.3c-0.1-0.2-0.2-0.4-0.5-0.5
							c-0.2-0.1-0.4-0.1-0.5,0c-0.7,0.3-1.3,1.7-1.7,2.7c-0.1,0.3-0.2,0.5-0.3,0.7s-0.2,0.5-0.3,0.7l-0.2,0.6l-0.5-0.2
							c-0.2-0.1-0.4-0.2-0.5-0.3h-0.1c-0.1-0.1-0.2-0.1-0.2-0.1c-0.1-0.1-0.3-0.2-0.6-0.3C319.3,174.2,318,173.5,317.3,173.5z"/>
					</g>
				</g>
				<g>
					<path class="st0" d="M336.6,196.1l-11.8,4.5c-0.6,0.2-1.3-0.1-1.5-0.7l0,0c-0.2-0.6,0.1-1.3,0.7-1.5l11.8-4.5
						c0.6-0.2,1.3,0.1,1.5,0.7l0,0C337.5,195.2,337.2,195.9,336.6,196.1z"/>
					<path class="st5" d="M324.3,201c-0.2,0-0.4,0-0.6-0.1c-0.4-0.2-0.6-0.5-0.8-0.8c-0.1-0.4-0.1-0.8,0-1.1
						c0.2-0.4,0.5-0.6,0.8-0.8l11.8-4.5c0.8-0.3,1.6,0.1,1.9,0.9c0.3,0.8-0.1,1.6-0.9,1.9l0,0l-11.8,4.5
						C324.7,201,324.5,201,324.3,201z M336.2,194.2c-0.1,0-0.2,0-0.3,0.1l-11.8,4.5c-0.2,0.1-0.4,0.2-0.5,0.5
						c-0.1,0.2-0.1,0.4,0,0.7c0.1,0.2,0.2,0.4,0.5,0.5c0.2,0.1,0.4,0.1,0.7,0l11.8-4.5c0.4-0.2,0.7-0.7,0.5-1.1
						C336.9,194.4,336.5,194.2,336.2,194.2z"/>
				</g>
				<g>
					<path class="st0" d="M335.1,201.9l-5.4,2c-0.6,0.2-1.3-0.1-1.5-0.7l0,0c-0.2-0.6,0.1-1.3,0.7-1.5l5.4-2
						c0.6-0.2,1.3,0.1,1.5,0.7l0,0C336,201,335.7,201.7,335.1,201.9z"/>
					<path class="st5" d="M329.3,204.3c-0.2,0-0.4,0-0.6-0.1c-0.4-0.2-0.6-0.5-0.8-0.8c-0.3-0.8,0.1-1.6,0.9-1.9l5.4-2
						c0.8-0.3,1.6,0.1,1.9,0.9c0.3,0.8-0.1,1.6-0.9,1.9l0,0l-5.4,2C329.6,204.3,329.5,204.3,329.3,204.3z M334.7,199.9
						c-0.1,0-0.2,0-0.3,0.1l-5.4,2c-0.4,0.2-0.7,0.7-0.5,1.1c0.1,0.2,0.2,0.4,0.5,0.5c0.2,0.1,0.4,0.1,0.7,0l5.4-2
						c0.4-0.2,0.7-0.7,0.5-1.1C335.3,200.1,335,199.9,334.7,199.9z"/>
				</g>
			</g>
			<g>
				<g>
					<path class="st0" d="M148.5,241.5c-1.6-0.2-3-0.4-3.1-1.3c-0.1-0.7,0.2-0.9,0.5-1.2s0.7-0.6,0.8-1.2c0.2-0.8-0.2-2.2-0.5-3.4
						l-0.1-0.3c-0.8-2.8-2-5-3.3-7.2c-0.4-0.7-0.8-1.3-1.1-2l-0.1-0.2c-1.9-3.6-4.3-8.1-3.9-13.3c0.5-7,4.6-11.4,7.9-13.9
						c3-2.2,7.9-4.7,14.3-3.8c0.5,0.1,1,0.2,1.6,0.3c3.1,0.7,5.3,1.6,7.4,3.2c2.2,1.6,3.7,3.5,4.8,5.1c1.8,2.6,4.6,8,3.1,14.9
						c-1.1,4.9-4.1,7.9-7,10.9l-0.7,0.7c-0.4,0.4-0.9,0.9-1.4,1.3c-1.1,1.1-2.2,2.1-3.3,3.4c-1.7,2-3.6,4.8-3.7,6.4
						c0,0.4,0.2,0.8,0.4,1.1c0.3,0.4,0.5,0.8,0.2,1.5c-0.3,0.8-1.7,0.6-3,0.4L148.5,241.5z M159.8,196.4c-4.5-0.7-8.7,0.4-12.5,3.2
						c-2.9,2.2-6.5,6.1-6.8,12.5c-0.2,4.1,1.9,7.9,3.7,11.2l0.9,1.5c2.3,4.1,4.4,8,4.4,13.5v0.5l8.2,1.2l0.1-0.5
						c1.3-5,4.4-8,7.7-11.2c0.4-0.4,1.7-1.7,1.7-1.7c3.2-3.2,6.5-6.5,7-12.5c0.6-8.1-5-15.6-12.9-17.4
						C160.9,196.6,160.4,196.5,159.8,196.4z"/>
					<g>
						<path class="st0" d="M154.7,231.4c-1-0.2-0.8-1.5-0.5-3c0-0.3,0.1-0.5,0.1-0.7l0.6-4v-0.1c-0.5-0.6-0.7-1-1-1.4
							c-0.2-0.3-0.4-0.5-0.7-0.9c0-0.1-0.1-0.2-0.2-0.3c-0.6-0.7-1.6-1.8-1.2-2.7c0.2-0.5,0.7-0.7,1.2-0.6c0.6,0.1,1.5,1.2,2.3,2.5
							c0.1,0.2,0.3,0.4,0.4,0.5c0.1,0.1,0.1,0.2,0.2,0.3c0.1,0.1,0.2,0.3,0.3,0.5l0.1,0.2l0.2-0.2c0.2-0.2,0.4-0.3,0.6-0.5
							c0.2-0.1,0.4-0.3,0.6-0.5c1-0.8,2.1-1.8,3-1.6c0.3,0,0.5,0.2,0.7,0.4c0.2,0.3,0.2,0.6,0.2,0.9c-0.1,0.4-0.6,0.8-1.1,1.2
							c-1,0.7-1.6,1.2-2.5,1.8l-0.3,0.2c-0.4,0.3-0.7,0.5-0.8,0.7c-0.3,0.7-0.4,1.8-0.4,2.8c0,0.5-0.1,0.9-0.1,1.2
							c0,0.1,0,0.3-0.1,0.6c-0.1,1.2-0.3,2.3-0.8,2.7C155.2,231.3,154.9,231.4,154.7,231.4L154.7,231.4z"/>
						<path class="st5" d="M154.8,231.7c-0.1,0-0.1,0-0.2,0l0,0c-0.4-0.1-0.9-0.4-1-1.3c0-0.5,0.1-1.2,0.2-2.1
							c0.1-0.3,0.1-0.5,0.1-0.7l0.6-3.9c-0.4-0.6-0.7-1-1-1.4c-0.2-0.3-0.4-0.5-0.7-0.9c0-0.1-0.1-0.2-0.2-0.3
							c-0.6-0.7-1.7-1.9-1.3-3c0.3-0.6,0.9-0.9,1.5-0.8c0.8,0.1,1.6,1.2,2.6,2.6c0.2,0.2,0.3,0.4,0.4,0.5c0.1,0.1,0.1,0.2,0.2,0.3
							c0.1,0.1,0.2,0.3,0.3,0.4c0.2-0.2,0.4-0.4,0.6-0.5c0.2-0.1,0.4-0.3,0.6-0.5c1-0.9,2.2-1.8,3.2-1.7c0.4,0.1,0.7,0.3,0.9,0.5
							c0.2,0.3,0.3,0.7,0.2,1.1c-0.1,0.5-0.6,0.9-1.2,1.4c-0.9,0.7-1.6,1.2-2.5,1.8l-0.3,0.2c-0.3,0.2-0.7,0.4-0.7,0.6
							c-0.3,0.6-0.4,1.8-0.4,2.7c0,0.5-0.1,0.9-0.1,1.2c0,0.1,0,0.3-0.1,0.5c-0.1,1.3-0.3,2.4-0.9,2.9
							C155.3,231.6,155.1,231.7,154.8,231.7z M154.7,231.1L154.7,231.1c0.2,0,0.3,0,0.4-0.1c0.4-0.3,0.6-1.4,0.7-2.5
							c0-0.2,0-0.4,0.1-0.6c0-0.3,0.1-0.7,0.1-1.2c0.1-1,0.2-2.2,0.5-2.9c0.1-0.3,0.4-0.5,0.9-0.8l0.3-0.2c0.9-0.6,1.5-1.1,2.5-1.8
							c0.3-0.3,0.9-0.7,1-1c0-0.2,0-0.5-0.1-0.7s-0.3-0.3-0.5-0.3c-0.7-0.1-1.9,0.9-2.8,1.6c-0.2,0.2-0.4,0.3-0.6,0.5
							c-0.2,0.2-0.4,0.3-0.6,0.5l-0.5,0.5l-0.3-0.5c-0.1-0.2-0.2-0.4-0.3-0.5s-0.2-0.2-0.2-0.3c-0.1-0.1-0.2-0.3-0.3-0.5
							c-0.6-0.9-1.6-2.3-2.2-2.4c-0.3,0-0.7,0.1-0.9,0.4c-0.3,0.7,0.6,1.7,1.2,2.4c0.1,0.1,0.2,0.2,0.3,0.3c0.3,0.4,0.5,0.7,0.7,0.9
							c0.3,0.4,0.6,0.8,1.1,1.4l0.1,0.2l-0.6,4.2c0,0.2-0.1,0.4-0.1,0.7c-0.1,0.7-0.3,1.4-0.2,1.9
							C154.3,230.9,154.5,231,154.7,231.1z"/>
					</g>
				</g>
				<g>
					<path class="st0" d="M158.9,247.2l-12.5-1.8c-0.6-0.1-1.1-0.7-1-1.3l0,0c0.1-0.6,0.7-1.1,1.3-1l12.5,1.8c0.6,0.1,1.1,0.7,1,1.3
						l0,0C160.1,246.8,159.5,247.3,158.9,247.2z"/>
					<path class="st5" d="M159.1,247.5c-0.1,0-0.1,0-0.2,0l-12.5-1.8c-0.4-0.1-0.7-0.3-1-0.6c-0.2-0.3-0.3-0.7-0.3-1.1
						c0.1-0.8,0.9-1.4,1.7-1.2l12.5,1.8c0.8,0.1,1.4,0.9,1.2,1.7c-0.1,0.4-0.3,0.7-0.6,1C159.7,247.4,159.4,247.5,159.1,247.5z
						 M146.5,243.4c-0.4,0-0.8,0.3-0.9,0.7c0,0.2,0,0.5,0.2,0.6c0.1,0.2,0.3,0.3,0.6,0.3l12.5,1.8c0.2,0,0.5,0,0.6-0.2
						c0.2-0.1,0.3-0.3,0.3-0.6c0.1-0.5-0.3-0.9-0.7-1l-12.5-1.8C146.6,243.4,146.6,243.4,146.5,243.4z"/>
				</g>
				<g>
					<path class="st0" d="M154.8,251.5l-5.7-0.8c-0.6-0.1-1.1-0.7-1-1.3l0,0c0.1-0.6,0.7-1.1,1.3-1l5.7,0.8c0.6,0.1,1.1,0.7,1,1.3
						l0,0C156,251.1,155.4,251.6,154.8,251.5z"/>
					<path class="st5" d="M155,251.8c-0.1,0-0.1,0-0.2,0l0,0l-5.7-0.8c-0.8-0.1-1.4-0.9-1.2-1.7c0.1-0.4,0.3-0.7,0.6-1
						s0.7-0.3,1.1-0.3l5.7,0.8c0.4,0.1,0.7,0.3,1,0.6s0.3,0.7,0.3,1.1C156.3,251.3,155.7,251.8,155,251.8z M154.8,251.2
						c0.5,0.1,0.9-0.3,1-0.7c0-0.2,0-0.5-0.2-0.6c-0.1-0.2-0.3-0.3-0.6-0.3l-5.7-0.8c-0.2,0-0.5,0-0.6,0.2s-0.3,0.3-0.3,0.6
						c-0.1,0.5,0.3,0.9,0.7,1L154.8,251.2z"/>
				</g>
			</g>
			<g>
				<g>
					<path class="st0" d="M123.6,180.7c-0.9-1.3-1.8-2.5-1.2-3.2c0.5-0.5,0.8-0.5,1.3-0.5c0.4,0,0.9,0.1,1.4-0.2
						c0.7-0.4,1.5-1.6,2.1-2.7l0.2-0.3c1.5-2.5,2.2-4.9,3-7.3c0.2-0.8,0.5-1.5,0.7-2.2l0.1-0.2c1.3-3.9,2.9-8.7,6.9-12
						c5.4-4.4,11.5-4.5,15.6-3.8c3.7,0.6,8.8,2.5,12.6,7.8c0.3,0.4,0.6,0.9,0.9,1.3c1.6,2.7,2.4,5,2.8,7.6c0.4,2.7,0,5.1-0.4,6.9
						c-0.6,3.1-2.6,8.8-8.8,12.5c-4.3,2.6-8.6,2.5-12.7,2.4h-1c-0.6,0-1.3,0-1.9-0.1c-1.5-0.1-3.1-0.1-4.7-0.1
						c-2.6,0.1-6,0.7-7.2,1.8c-0.3,0.3-0.4,0.7-0.5,1c-0.1,0.5-0.3,0.9-0.9,1.2c-0.8,0.3-1.6-0.8-2.4-1.9L123.6,180.7z M164.2,158
						c-2.6-3.7-6.3-6.1-10.9-6.9c-3.6-0.7-8.9-0.6-13.8,3.6c-3.1,2.7-4.4,6.8-5.6,10.4l-0.5,1.7c-1.4,4.5-2.8,8.7-6.8,12.5l-0.4,0.4
						l4.8,6.8l0.5-0.3c4.6-2.5,8.9-2.3,13.5-2.1c0.5,0,2.5,0.1,2.5,0.1c4.5,0.2,9.2,0.3,13.9-3.5c6.3-5.1,7.9-14.3,3.8-21.3
						C164.8,158.9,164.5,158.5,164.2,158z"/>
					<g>
						<path class="st0" d="M135.2,178.3c-0.5-0.8,0.6-1.6,1.8-2.5c0.2-0.1,0.4-0.3,0.6-0.4l3.3-2.3V173c0.1-0.8,0.2-1.2,0.3-1.7
							c0.1-0.3,0.1-0.7,0.2-1.1c0-0.1,0-0.2,0-0.4c0.1-0.9,0.2-2.4,1.1-2.7c0.5-0.2,1,0.1,1.3,0.4c0.4,0.5,0.1,1.9-0.2,3.4
							c-0.1,0.3-0.1,0.5-0.1,0.6s0,0.2-0.1,0.4c0,0.1-0.1,0.4-0.1,0.5v0.2h0.3c0.2,0,0.5,0,0.8,0.1c0.2,0,0.5,0.1,0.7,0.1
							c1.2,0.2,2.7,0.3,3.3,1.1c0.2,0.2,0.2,0.5,0.1,0.8c-0.1,0.3-0.3,0.6-0.5,0.8c-0.3,0.2-1,0.1-1.6,0c-1.2-0.2-2-0.4-3-0.6
							l-0.3-0.1c-0.5-0.1-0.9-0.2-1.1-0.1c-0.7,0.2-1.6,1-2.3,1.6c-0.4,0.3-0.7,0.5-1,0.7c-0.1,0.1-0.3,0.2-0.4,0.3
							c-1,0.8-1.8,1.4-2.5,1.3C135.6,178.6,135.4,178.5,135.2,178.3L135.2,178.3z"/>
						<path class="st5" d="M135.9,179c-0.1,0-0.1,0-0.2,0c-0.3,0-0.6-0.2-0.7-0.4l0,0c-0.2-0.3-0.4-0.9,0.3-1.6
							c0.4-0.4,0.9-0.8,1.7-1.3c0.2-0.2,0.4-0.3,0.6-0.4l3.2-2.3c0.1-0.7,0.2-1.2,0.3-1.7c0.1-0.3,0.1-0.7,0.2-1.1
							c0-0.1,0-0.2,0-0.4c0.1-1,0.2-2.6,1.3-3c0.6-0.2,1.3,0.1,1.6,0.5c0.4,0.6,0.2,2-0.1,3.7c-0.1,0.2-0.1,0.5-0.1,0.6
							s0,0.2-0.1,0.3c0,0.1-0.1,0.3-0.1,0.5c0.2,0,0.5,0,0.8,0.1c0.2,0,0.4,0.1,0.7,0.1c1.3,0.2,2.9,0.4,3.5,1.2
							c0.2,0.3,0.3,0.7,0.2,1c-0.1,0.4-0.3,0.7-0.6,0.9c-0.4,0.3-1.1,0.2-1.8,0.1c-1.2-0.2-2-0.4-3-0.6l-0.3-0.1
							c-0.3-0.1-0.8-0.2-0.9-0.1c-0.6,0.2-1.6,1-2.2,1.5c-0.4,0.3-0.7,0.6-1,0.8c-0.1,0.1-0.3,0.2-0.4,0.3
							C137.5,178.4,136.7,179,135.9,179z M135.5,178.1L135.5,178.1c0.1,0.1,0.2,0.2,0.3,0.2c0.6,0.1,1.4-0.5,2.3-1.2
							c0.2-0.1,0.3-0.3,0.5-0.3c0.3-0.2,0.6-0.4,0.9-0.7c0.8-0.6,1.7-1.4,2.4-1.6c0.3-0.1,0.7,0,1.3,0.1l0.3,0.1
							c1,0.2,1.8,0.4,3,0.6c0.4,0.1,1.1,0.2,1.4,0c0.2-0.1,0.3-0.3,0.4-0.6c0-0.2,0-0.4-0.1-0.5c-0.4-0.6-1.9-0.8-3-0.9
							c-0.3,0-0.5-0.1-0.7-0.1c-0.3,0-0.5-0.1-0.8-0.1h-0.7l0.1-0.6c0-0.2,0.1-0.4,0.1-0.6s0.1-0.3,0.1-0.3c0-0.2,0.1-0.4,0.1-0.6
							c0.2-1,0.6-2.7,0.2-3.2c-0.2-0.3-0.6-0.5-0.9-0.3c-0.7,0.3-0.8,1.7-0.9,2.5c0,0.2,0,0.3,0,0.4c-0.1,0.5-0.1,0.8-0.2,1.1
							c-0.1,0.5-0.2,1-0.3,1.7v0.2l-3.4,2.4c-0.2,0.1-0.3,0.2-0.5,0.4c-0.6,0.4-1.2,0.8-1.6,1.2
							C135.3,177.7,135.4,177.9,135.5,178.1z"/>
					</g>
				</g>
				<g>
					<path class="st0" d="M126.6,192.2l-7.3-10.4c-0.4-0.5-0.2-1.3,0.3-1.6l0,0c0.5-0.4,1.3-0.2,1.6,0.3l7.3,10.4
						c0.4,0.5,0.2,1.3-0.3,1.6l0,0C127.7,192.9,127,192.7,126.6,192.2z"/>
					<path class="st5" d="M127.6,193c-0.5,0-0.9-0.2-1.2-0.6l-7.3-10.4c-0.5-0.7-0.3-1.6,0.4-2c0.3-0.2,0.7-0.3,1.1-0.2
						c0.4,0.1,0.7,0.3,0.9,0.6l7.3,10.4c0.5,0.7,0.3,1.6-0.4,2C128.2,192.9,127.9,193,127.6,193z M120.3,180.3
						c-0.2,0-0.3,0.1-0.5,0.2c-0.4,0.3-0.5,0.8-0.2,1.2l7.3,10.4c0.3,0.4,0.8,0.5,1.2,0.2s0.5-0.8,0.2-1.2l-7.3-10.4
						C120.9,180.5,120.7,180.4,120.3,180.3C120.4,180.3,120.3,180.3,120.3,180.3z"/>
				</g>
				<g>
					<path class="st0" d="M120.7,192.2l-3.3-4.7c-0.4-0.5-0.2-1.3,0.3-1.6l0,0c0.5-0.4,1.3-0.2,1.6,0.3l3.3,4.7
						c0.4,0.5,0.2,1.3-0.3,1.6l0,0C121.8,192.8,121,192.7,120.7,192.2z"/>
					<path class="st5" d="M121.6,193c-0.1,0-0.2,0-0.3,0c-0.4-0.1-0.7-0.3-0.9-0.6l-3.3-4.7c-0.5-0.7-0.3-1.6,0.4-2
						c0.7-0.5,1.6-0.3,2,0.4l3.3,4.7c0.2,0.3,0.3,0.7,0.2,1.1s-0.3,0.7-0.6,0.9C122.2,192.9,121.9,193,121.6,193z M118.3,185.9
						c-0.2,0-0.3,0.1-0.5,0.2c-0.4,0.3-0.5,0.8-0.2,1.2l3.3,4.7c0.1,0.2,0.3,0.3,0.6,0.4c0.2,0,0.5,0,0.6-0.1
						c0.2-0.1,0.3-0.3,0.4-0.6c0-0.2,0-0.5-0.1-0.6l-3.3-4.7C118.9,186.1,118.6,185.9,118.3,185.9z"/>
				</g>
			</g>
			<g>
				<g>
					<path class="st0" d="M182.6,168.8c-1.6-0.2-3-0.5-3.1-1.3c-0.1-0.7,0.2-0.9,0.5-1.2c0.3-0.3,0.7-0.6,0.8-1.2
						c0.2-0.8-0.2-2.2-0.5-3.4l-0.1-0.3c-0.8-2.8-2-5-3.2-7.2c-0.4-0.7-0.8-1.4-1.1-2l-0.1-0.2c-1.9-3.6-4.3-8.1-3.9-13.3
						c0.5-7,4.6-11.4,8-13.9c3-2.2,7.9-4.7,14.3-3.7c0.5,0.1,1,0.2,1.6,0.3c3.1,0.7,5.3,1.7,7.4,3.2c2.2,1.6,3.7,3.6,4.7,5.1
						c1.8,2.6,4.6,8,3,15c-1.1,4.9-4.2,7.9-7.1,10.8l-0.7,0.7c-0.4,0.4-0.9,0.9-1.4,1.3c-1.1,1-2.2,2.1-3.3,3.4
						c-1.7,2-3.7,4.8-3.7,6.4c0,0.4,0.2,0.8,0.4,1.1c0.3,0.4,0.5,0.8,0.2,1.5c-0.3,0.8-1.7,0.6-3,0.4L182.6,168.8z M194.1,123.8
						c-4.5-0.7-8.7,0.4-12.5,3.1c-2.9,2.1-6.5,6-6.9,12.5c-0.2,4.1,1.8,7.9,3.7,11.2l0.8,1.5c2.3,4.1,4.4,8,4.3,13.5v0.5l8.2,1.2
						l0.1-0.5c1.4-5,4.5-8,7.7-11.2c0.4-0.4,1.8-1.7,1.8-1.7c3.2-3.2,6.6-6.4,7-12.4c0.6-8.1-4.9-15.6-12.8-17.4
						C195.2,124,194.7,123.9,194.1,123.8z"/>
					<g>
						<path class="st0" d="M188.8,158.7c-1-0.2-0.8-1.5-0.5-3c0-0.3,0.1-0.5,0.1-0.7l0.6-4v-0.1c-0.5-0.6-0.7-1-1-1.4
							c-0.2-0.3-0.4-0.5-0.7-0.9c0-0.1-0.1-0.2-0.2-0.3c-0.6-0.7-1.6-1.8-1.2-2.7c0.2-0.5,0.7-0.7,1.2-0.6c0.6,0.1,1.5,1.2,2.3,2.5
							c0.1,0.2,0.3,0.4,0.4,0.5c0.1,0.1,0.1,0.2,0.2,0.3c0.1,0.1,0.2,0.3,0.3,0.5l0.1,0.2l0.2-0.2c0.2-0.2,0.4-0.3,0.6-0.5
							c0.2-0.1,0.4-0.3,0.6-0.5c1-0.8,2.1-1.7,3-1.6c0.3,0,0.5,0.2,0.7,0.4c0.2,0.3,0.2,0.6,0.2,0.9c-0.1,0.4-0.6,0.8-1.1,1.2
							c-1,0.7-1.6,1.2-2.5,1.8l-0.3,0.2c-0.4,0.3-0.8,0.5-0.8,0.7c-0.3,0.7-0.4,1.8-0.5,2.8c0,0.5-0.1,0.9-0.1,1.2
							c0,0.1,0,0.3-0.1,0.6c-0.1,1.2-0.3,2.3-0.8,2.7C189.3,158.7,189.1,158.8,188.8,158.7L188.8,158.7z"/>
						<path class="st5" d="M189,159.1c-0.1,0-0.1,0-0.2,0l0,0c-0.4-0.1-0.9-0.4-1-1.3c0-0.5,0.1-1.2,0.2-2.1c0-0.2,0.1-0.5,0.1-0.7
							l0.6-3.9c-0.4-0.6-0.7-1-1-1.4c-0.2-0.3-0.4-0.5-0.7-0.9c0-0.1-0.1-0.1-0.2-0.2c-0.7-0.8-1.7-2-1.3-3c0.3-0.6,0.9-0.9,1.5-0.8
							c0.8,0.1,1.6,1.2,2.5,2.6c0.2,0.2,0.3,0.4,0.4,0.5c0,0.1,0.1,0.2,0.2,0.3c0.1,0.1,0.2,0.3,0.3,0.4c0.2-0.2,0.4-0.4,0.6-0.5
							c0.2-0.1,0.3-0.3,0.5-0.4c1.1-0.9,2.3-1.9,3.3-1.7c0.4,0.1,0.7,0.3,0.9,0.6c0.2,0.3,0.3,0.7,0.2,1.1c-0.1,0.5-0.6,0.9-1.2,1.4
							c-1,0.7-1.6,1.2-2.5,1.8l-0.3,0.2c-0.3,0.2-0.7,0.4-0.7,0.6c-0.3,0.6-0.4,1.8-0.4,2.7c0,0.5-0.1,0.9-0.1,1.2
							c0,0.1,0,0.3-0.1,0.5c-0.1,1.3-0.3,2.4-0.9,2.9C189.4,159,189.2,159.1,189,159.1z M188.9,158.4L188.9,158.4
							c0.2,0,0.3,0,0.4-0.1c0.4-0.3,0.6-1.4,0.7-2.5c0-0.2,0-0.4,0.1-0.6c0-0.3,0.1-0.7,0.1-1.2c0.1-1,0.2-2.2,0.5-2.9
							c0.1-0.3,0.4-0.5,1-0.8l0.3-0.2c0.9-0.6,1.5-1.1,2.5-1.8c0.3-0.3,0.9-0.7,1-1c0-0.2,0-0.5-0.1-0.7s-0.3-0.3-0.5-0.3
							c-0.7-0.1-1.9,0.8-2.8,1.6c-0.2,0.2-0.4,0.4-0.6,0.5c-0.2,0.2-0.4,0.3-0.6,0.5l-0.5,0.5l-0.3-0.5c-0.1-0.2-0.2-0.4-0.3-0.5
							c-0.1-0.2-0.2-0.2-0.2-0.3c-0.1-0.1-0.2-0.3-0.3-0.5c-0.6-0.9-1.6-2.4-2.2-2.4c-0.3,0-0.7,0.1-0.9,0.4
							c-0.3,0.7,0.6,1.7,1.2,2.4c0.1,0.1,0.2,0.2,0.3,0.3c0.3,0.4,0.5,0.7,0.7,0.9c0.3,0.4,0.6,0.8,1,1.4l0.1,0.2l-0.6,4.1
							c0,0.2-0.1,0.4-0.1,0.7c-0.1,0.6-0.3,1.4-0.2,1.9C188.4,158.3,188.7,158.4,188.9,158.4z"/>
					</g>
				</g>
				<g>
					<path class="st0" d="M192.9,174.6l-12.5-1.9c-0.6-0.1-1.1-0.7-1-1.3l0,0c0.1-0.6,0.7-1.1,1.3-1l12.5,1.9c0.6,0.1,1.1,0.7,1,1.3
						l0,0C194.2,174.3,193.6,174.7,192.9,174.6z"/>
					<path class="st5" d="M193.1,174.9c-0.1,0-0.1,0-0.2,0l-12.5-1.9c-0.8-0.1-1.4-0.9-1.2-1.7c0.1-0.4,0.3-0.7,0.6-1
						c0.3-0.2,0.7-0.3,1.1-0.3l12.5,1.9c0.4,0.1,0.7,0.3,1,0.6c0.2,0.3,0.3,0.7,0.3,1.1c-0.1,0.4-0.3,0.7-0.6,1
						C193.7,174.8,193.4,174.9,193.1,174.9z M180.6,170.7c-0.2,0-0.4,0.1-0.5,0.2c-0.2,0.1-0.3,0.3-0.3,0.6c-0.1,0.5,0.3,0.9,0.7,1
						l12.5,1.9c0.2,0,0.5,0,0.6-0.2c0.2-0.1,0.3-0.3,0.3-0.6c0-0.2,0-0.5-0.2-0.6c-0.1-0.2-0.3-0.3-0.6-0.3l-12.5-1.9
						C180.7,170.7,180.6,170.7,180.6,170.7z"/>
				</g>
				<g>
					<path class="st0" d="M188.8,178.9l-5.7-0.8c-0.6-0.1-1.1-0.7-1-1.3l0,0c0.1-0.6,0.7-1.1,1.3-1l5.7,0.8c0.6,0.1,1.1,0.7,1,1.3
						l0,0C190,178.5,189.4,179,188.8,178.9z"/>
					<path class="st5" d="M189,179.2c-0.1,0-0.1,0-0.2,0l-5.7-0.8c-0.8-0.1-1.4-0.9-1.2-1.7c0.1-0.4,0.3-0.7,0.6-1
						c0.3-0.2,0.7-0.3,1.1-0.3l5.7,0.8c0.4,0.1,0.7,0.3,1,0.6c0.2,0.3,0.3,0.7,0.3,1.1c-0.1,0.4-0.3,0.7-0.6,1
						C189.6,179.1,189.3,179.2,189,179.2z M183.3,176c-0.2,0-0.4,0.1-0.5,0.2c-0.2,0.1-0.3,0.3-0.3,0.6c-0.1,0.5,0.3,0.9,0.7,1
						l5.7,0.8c0.2,0,0.5,0,0.6-0.2c0.2-0.1,0.3-0.3,0.3-0.6c0-0.2,0-0.5-0.2-0.6c-0.1-0.2-0.3-0.3-0.6-0.3l-5.7-0.8
						C183.4,176,183.3,176,183.3,176z"/>
				</g>
			</g>
			<g>
				<g>
					<path class="st0" d="M268.3,210.3c-1.6-0.2-3-0.4-3.1-1.3c-0.1-0.7,0.2-0.9,0.5-1.2s0.7-0.6,0.8-1.2c0.2-0.8-0.2-2.2-0.5-3.4
						l-0.1-0.3c-0.8-2.8-2.1-5-3.3-7.2c-0.4-0.7-0.8-1.3-1.1-2l-0.1-0.2c-1.9-3.6-4.3-8.1-4-13.2c0.5-7,4.5-11.5,7.8-14
						c3-2.3,7.9-4.8,14.3-3.9c0.5,0.1,1,0.2,1.6,0.3c3.1,0.7,5.3,1.6,7.5,3.1c2.2,1.6,3.7,3.5,4.8,5c1.8,2.6,4.7,7.9,3.2,14.9
						c-1.1,4.9-4.1,8-7,10.9l-0.7,0.7c-0.4,0.4-0.9,0.9-1.4,1.4c-1.1,1.1-2.2,2.1-3.3,3.4c-1.7,2-3.6,4.9-3.6,6.4
						c0,0.4,0.2,0.8,0.4,1.1c0.3,0.4,0.5,0.8,0.2,1.5c-0.3,0.8-1.7,0.6-3,0.4L268.3,210.3z M279.4,165.2c-4.5-0.6-8.7,0.5-12.5,3.2
						c-2.9,2.2-6.5,6.1-6.8,12.6c-0.2,4.1,1.9,7.9,3.8,11.2l0.9,1.5c2.3,4.1,4.5,7.9,4.5,13.5v0.5l8.3,1.1l0.1-0.5
						c1.3-5,4.4-8.1,7.6-11.3c0.4-0.4,1.7-1.7,1.7-1.7c3.2-3.2,6.5-6.5,6.9-12.5c0.5-8.1-5.1-15.5-13-17.3
						C280.4,165.3,279.9,165.3,279.4,165.2z"/>
					<g>
						<path class="st0" d="M274.5,200.2c-1-0.2-0.8-1.5-0.6-3c0-0.3,0.1-0.5,0.1-0.7l0.6-4v-0.1c-0.5-0.6-0.7-1-1.1-1.4
							c-0.2-0.3-0.4-0.5-0.7-0.9c0-0.1-0.1-0.2-0.2-0.3c-0.6-0.7-1.6-1.8-1.2-2.7c0.2-0.5,0.7-0.7,1.2-0.6c0.6,0.1,1.5,1.2,2.4,2.5
							c0.1,0.2,0.3,0.4,0.4,0.5c0.1,0.1,0.1,0.2,0.2,0.3c0.1,0.1,0.2,0.3,0.3,0.5l0.1,0.2l0.2-0.2c0.2-0.2,0.4-0.4,0.6-0.5
							c0.2-0.1,0.4-0.3,0.6-0.5c1-0.8,2.1-1.8,3-1.6c0.3,0,0.5,0.2,0.7,0.4c0.2,0.3,0.3,0.6,0.2,0.9c-0.1,0.4-0.5,0.8-1.1,1.2
							c-1,0.7-1.6,1.2-2.5,1.8l-0.3,0.2c-0.4,0.3-0.7,0.5-0.8,0.7c-0.3,0.7-0.4,1.8-0.4,2.8c0,0.5-0.1,0.9-0.1,1.2
							c0,0.1,0,0.3-0.1,0.6c-0.1,1.2-0.2,2.3-0.8,2.7C274.9,200.1,274.7,200.2,274.5,200.2L274.5,200.2z"/>
						<path class="st5" d="M274.6,200.5h-0.1l0,0c-0.3-0.1-0.6-0.2-0.7-0.5c-0.4-0.6-0.3-1.7-0.1-2.9c0-0.2,0.1-0.5,0.1-0.7l0.5-3.9
							c-0.4-0.6-0.7-1-1-1.4c-0.2-0.3-0.4-0.5-0.7-0.9c0-0.1-0.1-0.2-0.2-0.3c-0.6-0.7-1.7-1.9-1.3-3c0.3-0.6,0.9-0.9,1.5-0.8
							c0.8,0.1,1.6,1.2,2.6,2.6c0.1,0.2,0.3,0.4,0.4,0.5c0.1,0.1,0.1,0.2,0.2,0.3c0.1,0.1,0.2,0.2,0.2,0.4c0.2-0.2,0.4-0.4,0.6-0.5
							c0.2-0.1,0.4-0.3,0.6-0.5c1-0.9,2.2-1.9,3.2-1.7c0.4,0.1,0.7,0.3,0.9,0.5c0.2,0.3,0.3,0.7,0.3,1.1c-0.1,0.5-0.6,0.9-1.2,1.4
							c-1,0.7-1.6,1.2-2.5,1.8l-0.3,0.2c-0.3,0.2-0.7,0.4-0.7,0.6c-0.3,0.6-0.3,1.8-0.4,2.7c0,0.5-0.1,0.9-0.1,1.2
							c0,0.1,0,0.3-0.1,0.5c-0.1,1.3-0.3,2.4-0.9,2.9C275.1,200.4,274.8,200.5,274.6,200.5z M274.5,199.9L274.5,199.9
							c0.2,0,0.3,0,0.4-0.1c0.4-0.4,0.6-1.4,0.7-2.5c0-0.2,0-0.4,0.1-0.6c0-0.3,0.1-0.7,0.1-1.2c0.1-1,0.2-2.2,0.5-2.9
							c0.1-0.3,0.4-0.5,0.9-0.8l0.3-0.2c0.9-0.6,1.5-1.1,2.5-1.8c0.3-0.3,0.9-0.7,1-1c0-0.2,0-0.5-0.1-0.7s-0.3-0.3-0.5-0.3
							c-0.7-0.1-1.9,0.9-2.8,1.6c-0.2,0.2-0.4,0.4-0.6,0.5c-0.2,0.2-0.4,0.3-0.6,0.5l-0.5,0.5l-0.3-0.5c-0.1-0.2-0.2-0.4-0.3-0.5
							s-0.1-0.2-0.2-0.3c-0.1-0.1-0.2-0.3-0.4-0.5c-0.6-0.8-1.6-2.3-2.2-2.3c-0.3,0-0.7,0.1-0.9,0.4c-0.3,0.7,0.6,1.7,1.2,2.4
							c0.1,0.1,0.2,0.2,0.3,0.3c0.3,0.4,0.5,0.6,0.7,0.9c0.3,0.4,0.6,0.8,1.1,1.4l0.1,0.2l-0.6,4.2c0,0.2-0.1,0.4-0.1,0.7
							c-0.2,1-0.3,2,0,2.5C274.2,199.8,274.3,199.9,274.5,199.9z"/>
					</g>
				</g>
				<g>
					<path class="st0" d="M278.8,216l-12.5-1.7c-0.6-0.1-1.1-0.7-1-1.3l0,0c0.1-0.6,0.7-1.1,1.3-1l12.5,1.7c0.6,0.1,1.1,0.7,1,1.3
						l0,0C280,215.6,279.4,216.1,278.8,216z"/>
					<path class="st5" d="M278.9,216.3c-0.1,0-0.1,0-0.2,0l0,0l-12.5-1.7c-0.4-0.1-0.7-0.3-1-0.6c-0.2-0.3-0.3-0.7-0.3-1.1
						c0.1-0.8,0.9-1.4,1.7-1.3l12.5,1.7c0.4,0.1,0.7,0.3,1,0.6c0.2,0.3,0.3,0.7,0.3,1.1C280.3,215.8,279.6,216.3,278.9,216.3z
						 M278.8,215.7c0.5,0.1,0.9-0.3,1-0.7c0-0.2,0-0.5-0.2-0.6s-0.3-0.3-0.6-0.3l-12.5-1.7c-0.5-0.1-0.9,0.3-1,0.7
						c0,0.2,0,0.5,0.2,0.6c0.1,0.2,0.3,0.3,0.6,0.3L278.8,215.7L278.8,215.7z"/>
				</g>
				<g>
					<path class="st0" d="M274.7,220.3l-5.7-0.8c-0.6-0.1-1.1-0.7-1-1.3l0,0c0.1-0.6,0.7-1.1,1.3-1l5.7,0.8c0.6,0.1,1.1,0.7,1,1.3
						l0,0C275.9,219.9,275.3,220.4,274.7,220.3z"/>
					<path class="st5" d="M274.8,220.6c-0.1,0-0.1,0-0.2,0l0,0l-5.7-0.8c-0.4-0.1-0.7-0.3-1-0.6c-0.2-0.3-0.3-0.7-0.3-1.1
						c0.1-0.8,0.9-1.4,1.7-1.3l5.7,0.8c0.4,0.1,0.7,0.3,1,0.6c0.2,0.3,0.3,0.7,0.3,1.1C276.2,220.1,275.6,220.6,274.8,220.6z
						 M274.7,220c0.5,0.1,0.9-0.3,1-0.7c0-0.2,0-0.5-0.2-0.6c-0.1-0.2-0.3-0.3-0.6-0.3l-5.7-0.8c-0.5-0.1-0.9,0.3-1,0.7
						c0,0.2,0,0.5,0.2,0.6c0.1,0.2,0.3,0.3,0.6,0.3L274.7,220z"/>
				</g>
			</g>
			<g>
				<g>
					<path class="st0" d="M191.1,192.4c0.9-1.4,1.7-2.5,2.6-2.2c0.7,0.2,0.8,0.6,0.9,1c0.1,0.4,0.2,0.8,0.7,1.3
						c0.6,0.5,2,0.8,3.3,1.1l0.3,0.1c2.8,0.5,5.4,0.4,7.9,0.3c0.8,0,1.5-0.1,2.3-0.1h0.2c4.1-0.1,9.2-0.2,13.6,2.4
						c6,3.6,8.2,9.2,8.9,13.3c0.7,3.7,0.7,9.2-3,14.5c-0.3,0.4-0.6,0.9-0.9,1.3c-2,2.4-3.8,4-6.2,5.2c-2.4,1.3-4.8,1.7-6.7,2
						c-3.1,0.5-9.2,0.6-14.7-3.9c-3.9-3.2-5.3-7.2-6.6-11.1l-0.3-1c-0.2-0.6-0.4-1.2-0.6-1.8c-0.5-1.4-0.9-2.9-1.6-4.5
						c-1-2.4-2.7-5.4-4.1-6.1c-0.4-0.2-0.8-0.2-1.2-0.1c-0.5,0-1,0.1-1.4-0.5c-0.6-0.7,0.2-1.8,1-2.9L191.1,192.4z M226.4,222.6
						c2.6-3.8,3.5-8,2.7-12.6c-0.6-3.6-2.5-8.5-8.2-11.7c-3.6-2-7.9-1.8-11.7-1.7l-1.8,0.1c-4.7,0.2-9.1,0.4-14-2.1l-0.5-0.2
						l-4.7,6.8l0.4,0.4c3.9,3.4,5.2,7.5,6.6,11.9c0.2,0.5,0.8,2.3,0.8,2.3c1.4,4.3,2.9,8.7,8.1,11.8c7,4.1,16.1,2.5,21.3-3.8
						C225.8,223.5,226.1,223.1,226.4,222.6z"/>
					<g>
						<path class="st0" d="M197.4,202.4c0.6-0.8,1.7,0,2.9,0.9c0.2,0.2,0.4,0.3,0.6,0.4l3.3,2.3h0.1c0.8-0.1,1.2-0.2,1.7-0.3
							c0.3-0.1,0.7-0.1,1.1-0.2c0.1,0,0.2,0,0.4-0.1c0.9-0.2,2.3-0.6,2.9,0.1c0.3,0.4,0.3,1,0,1.3c-0.4,0.5-1.8,0.8-3.3,1
							c-0.3,0-0.5,0.1-0.6,0.1s-0.2,0-0.4,0c-0.1,0-0.4,0-0.6,0.1h-0.2l0.1,0.3c0.1,0.2,0.1,0.5,0.2,0.8c0,0.2,0.1,0.5,0.2,0.7
							c0.3,1.2,0.6,2.7,0.1,3.4c-0.2,0.2-0.4,0.4-0.7,0.4s-0.6,0-0.9-0.2c-0.3-0.2-0.5-0.8-0.6-1.5c-0.2-1.2-0.3-2-0.5-3v-0.3
							c-0.1-0.5-0.1-0.9-0.2-1.1c-0.5-0.6-1.5-1.2-2.3-1.6c-0.4-0.2-0.7-0.4-1-0.6c-0.1-0.1-0.3-0.2-0.5-0.3c-1-0.7-1.9-1.3-2.1-1.9
							C197.2,202.9,197.2,202.7,197.4,202.4L197.4,202.4z"/>
						<path class="st5" d="M205.2,214c-0.3,0-0.6-0.1-0.9-0.3c-0.4-0.3-0.6-0.9-0.7-1.7c-0.2-1.2-0.3-2-0.5-3v-0.3
							c0-0.3-0.1-0.8-0.2-0.9c-0.4-0.5-1.5-1.1-2.2-1.6c-0.4-0.2-0.8-0.5-1-0.7c-0.1-0.1-0.3-0.2-0.4-0.3c-1.1-0.7-2.1-1.3-2.2-2.1
							c-0.1-0.3,0-0.6,0.2-0.8l0,0c0.3-0.3,0.7-0.7,1.6-0.3c0.5,0.2,1.1,0.6,1.8,1.1c0.2,0.2,0.4,0.3,0.5,0.4l3.2,2.2
							c0.7-0.1,1.2-0.2,1.7-0.3c0.3-0.1,0.7-0.1,1.1-0.2c0.1,0,0.2,0,0.3-0.1c0.9-0.2,2.5-0.7,3.2,0.2c0.4,0.5,0.4,1.2,0,1.7
							c-0.4,0.6-1.8,0.9-3.5,1.1c-0.3,0-0.5,0.1-0.6,0.1s-0.2,0-0.4,0c-0.1,0-0.3,0-0.4,0.1c0.1,0.2,0.2,0.5,0.2,0.8
							c0,0.2,0.1,0.4,0.2,0.7c0.3,1.3,0.7,2.8,0.1,3.7c-0.2,0.3-0.5,0.5-0.9,0.5C205.3,214,205.2,214,205.2,214z M198.1,202.4
							c-0.2,0-0.3,0.1-0.4,0.2l0,0c-0.1,0.1-0.1,0.2-0.1,0.4c0.1,0.6,1,1.1,1.9,1.7c0.2,0.1,0.4,0.2,0.5,0.3c0.3,0.2,0.6,0.4,1,0.6
							c0.8,0.5,1.9,1.1,2.4,1.7c0.2,0.2,0.2,0.6,0.3,1.2v0.3c0.1,1.1,0.3,1.8,0.5,3c0.1,0.4,0.2,1.1,0.5,1.3
							c0.2,0.1,0.4,0.2,0.7,0.2c0.2,0,0.4-0.1,0.5-0.3c0.4-0.6,0.1-2.1-0.2-3.2c-0.1-0.3-0.1-0.5-0.2-0.7c0-0.3-0.1-0.5-0.2-0.7
							l-0.2-0.7l0.6-0.1c0.2,0,0.4-0.1,0.6-0.1c0.2,0,0.3,0,0.4,0c0.2,0,0.4-0.1,0.6-0.1c1-0.2,2.8-0.4,3.1-0.9c0.2-0.3,0.2-0.7,0-1
							c-0.5-0.6-1.8-0.2-2.6,0c-0.2,0-0.3,0.1-0.4,0.1c-0.5,0.1-0.8,0.1-1.1,0.2c-0.5,0.1-1,0.2-1.7,0.3h-0.2l-3.4-2.4
							c-0.2-0.1-0.4-0.3-0.6-0.4c-0.5-0.4-1.1-0.8-1.6-1C198.3,202.4,198.2,202.4,198.1,202.4z"/>
					</g>
				</g>
				<g>
					<path class="st0" d="M181.3,199.1l7.2-10.4c0.4-0.5,1.1-0.7,1.6-0.3l0,0c0.5,0.4,0.7,1.1,0.3,1.6l-7.2,10.4
						c-0.4,0.5-1.1,0.7-1.6,0.3l0,0C181.1,200.4,181,199.7,181.3,199.1z"/>
					<path class="st5" d="M182.3,201.3c-0.3,0-0.6-0.1-0.8-0.3c-0.3-0.2-0.5-0.6-0.6-0.9c-0.1-0.4,0-0.8,0.2-1.1l7.2-10.4
						c0.2-0.3,0.6-0.5,0.9-0.6c0.4-0.1,0.8,0,1.1,0.2s0.5,0.6,0.6,0.9c0.1,0.4,0,0.8-0.2,1.1l-7.2,10.4c-0.2,0.3-0.6,0.5-0.9,0.6
						C182.5,201.3,182.4,201.3,182.3,201.3z M189.5,188.5c-0.1,0-0.1,0-0.2,0c-0.2,0-0.4,0.2-0.6,0.4l-7.2,10.4
						c-0.1,0.2-0.2,0.4-0.1,0.6c0,0.2,0.2,0.4,0.4,0.6c0.2,0.1,0.4,0.2,0.6,0.1c0.2,0,0.4-0.2,0.6-0.4l7.2-10.4
						c0.1-0.2,0.2-0.4,0.1-0.6c0-0.2-0.2-0.4-0.4-0.6C189.9,188.6,189.7,188.5,189.5,188.5z"/>
				</g>
				<g>
					<path class="st0" d="M179.3,193.5l3.3-4.7c0.4-0.5,1.1-0.7,1.6-0.3l0,0c0.5,0.4,0.7,1.1,0.3,1.6l-3.3,4.7
						c-0.4,0.5-1.1,0.7-1.6,0.3l0,0C179.1,194.8,179,194.1,179.3,193.5z"/>
					<path class="st5" d="M180.3,195.7c-0.3,0-0.6-0.1-0.8-0.3c-0.3-0.2-0.5-0.6-0.6-0.9c-0.1-0.4,0-0.8,0.2-1.1l3.3-4.7
						c0.2-0.3,0.6-0.5,0.9-0.6c0.4-0.1,0.8,0,1.1,0.2s0.5,0.6,0.6,0.9c0.1,0.4,0,0.8-0.2,1.1l-3.3,4.7c-0.2,0.3-0.6,0.5-0.9,0.6
						C180.5,195.7,180.4,195.7,180.3,195.7z M183.6,188.6c-0.1,0-0.1,0-0.2,0c-0.2,0-0.4,0.2-0.6,0.4l-3.3,4.7
						c-0.1,0.2-0.2,0.4-0.1,0.6c0,0.2,0.2,0.4,0.4,0.6c0.2,0.1,0.4,0.2,0.6,0.1c0.2,0,0.4-0.2,0.6-0.4l3.3-4.7
						c0.1-0.2,0.2-0.4,0.1-0.6c0-0.2-0.2-0.4-0.4-0.6C183.9,188.7,183.7,188.6,183.6,188.6z"/>
				</g>
			</g>
		</g>
	</g>
</g>
<g>
	<g>
		<g>
			
				<radialGradient id="SVGID_4_" cx="97.893" cy="373.7587" r="36.1033" gradientTransform="matrix(1 0 0 -1 0 470)" gradientUnits="userSpaceOnUse">
				<stop  offset="0" style="stop-color:#2539CC"/>
				<stop  offset="0.232" style="stop-color:#2439D8"/>
				<stop  offset="0.6722" style="stop-color:#2339E9"/>
				<stop  offset="1" style="stop-color:#2239EF"/>
			</radialGradient>
			<rect x="87.8" y="46.2" class="st6" width="20.2" height="100"/>
		</g>
		
			<radialGradient id="SVGID_5_" cx="97.893" cy="373.7587" r="36.0774" gradientTransform="matrix(1 0 0 -1 0 470)" gradientUnits="userSpaceOnUse">
			<stop  offset="0" style="stop-color:#2539CC"/>
			<stop  offset="0.232" style="stop-color:#2439D8"/>
			<stop  offset="0.6722" style="stop-color:#2339E9"/>
			<stop  offset="1" style="stop-color:#2239EF"/>
		</radialGradient>
		<path class="st7" d="M106.9,47.3V145H89V47.3H106.9 M108.1,46.2H87.9v100h20.2V46.2L108.1,46.2z"/>
	</g>
	<g>
		<g>
			
				<radialGradient id="SVGID_6_" cx="166.3501" cy="373.7587" r="45.4986" gradientTransform="matrix(1 0 0 -1 0 470)" gradientUnits="userSpaceOnUse">
				<stop  offset="0" style="stop-color:#2539CC"/>
				<stop  offset="0.232" style="stop-color:#2439D8"/>
				<stop  offset="0.6722" style="stop-color:#2339E9"/>
				<stop  offset="1" style="stop-color:#2239EF"/>
			</radialGradient>
			<polygon class="st8" points="186.8,104.5 136.1,46.2 125.9,46.2 125.9,146.2 146.4,146.2 146.4,88.6 196.7,146.2 206.9,146.2 
				206.9,46.2 186.8,46.2 			"/>
		</g>
		
			<radialGradient id="SVGID_7_" cx="166.3501" cy="373.7587" r="45.4986" gradientTransform="matrix(1 0 0 -1 0 470)" gradientUnits="userSpaceOnUse">
			<stop  offset="0" style="stop-color:#2539CC"/>
			<stop  offset="0.232" style="stop-color:#2439D8"/>
			<stop  offset="0.6722" style="stop-color:#2339E9"/>
			<stop  offset="1" style="stop-color:#2239EF"/>
		</radialGradient>
		<path class="st9" d="M205.8,47.3V145h-8.5l-50-57.2l-2-2.3v3v56.4h-18.2V47.2h8.5l50.3,58l2,2.3v-3.1V47.2h17.9 M206.9,46.2h-20.1
			v58.4l-50.7-58.4h-10.2v100h20.5V88.6l50.3,57.6h10.2V46.2L206.9,46.2z"/>
	</g>
	<g>
		<g>
			
				<radialGradient id="SVGID_8_" cx="250.3501" cy="373.7587" r="41.2311" gradientTransform="matrix(1 0 0 -1 0 470)" gradientUnits="userSpaceOnUse">
				<stop  offset="0" style="stop-color:#2539CC"/>
				<stop  offset="0.232" style="stop-color:#2439D8"/>
				<stop  offset="0.6722" style="stop-color:#2339E9"/>
				<stop  offset="1" style="stop-color:#2239EF"/>
			</radialGradient>
			<polygon class="st10" points="220.4,46.2 220.4,66.1 240.3,66.1 240.3,146.2 260.7,146.2 260.7,66.1 280.4,66.1 280.4,46.2 			
				"/>
		</g>
		
			<radialGradient id="SVGID_9_" cx="250.4" cy="373.7587" r="41.2492" gradientTransform="matrix(1 0 0 -1 0 470)" gradientUnits="userSpaceOnUse">
			<stop  offset="0" style="stop-color:#2539CC"/>
			<stop  offset="0.232" style="stop-color:#2439D8"/>
			<stop  offset="0.6722" style="stop-color:#2339E9"/>
			<stop  offset="1" style="stop-color:#2239EF"/>
		</radialGradient>
		<path class="st11" d="M279.3,47.3V65h-18.6h-1.1v1.1V145h-18.1V66.1V65h-1.1h-18.7V47.3L279.3,47.3 M280.4,46.2h-60v20h19.9v80
			h20.4v-80h19.8L280.4,46.2L280.4,46.2z"/>
	</g>
</g>
</svg>
