<?xml version="1.0" encoding="utf-8"?>
<!-- Generator: Adobe Illustrator 22.0.0, SVG Export Plug-In . SVG Version: 6.00 Build 0)  -->
<svg version="1.1" id="Layer_1" xmlns="http://www.w3.org/2000/svg" xmlns:xlink="http://www.w3.org/1999/xlink" x="0px" y="0px"
	 viewBox="0 0 341.4 298" style="enable-background:new 0 0 341.4 298;" xml:space="preserve">
<style type="text/css">
	.st0{fill:#08122D;}
	.st1{fill:url(#SVGID_1_);}
	.st2{fill:#FFFFFF;}
	.st3{fill:url(#SVGID_2_);}
</style>
<g>
	<g>
		<path class="st0" d="M53.9,210.2l14.5-15.6c5.6-6,9.9-11.3,12.6-15.9c3-4.9,4.5-10.2,4.5-15.8c0-7.8-2.8-14.4-8.2-19.8
			c-5.5-5.4-12.4-8.1-20.6-8.1s-15.3,2.9-21.1,8.7c-5.8,5.7-8.9,13.5-9.3,23l-0.1,3h15l0.2-2.7c0.4-5.6,2-9.9,4.7-12.8
			c2.7-2.8,6-4.2,10-4.2c4.1,0,7.4,1.3,10.2,3.9c2.7,2.6,4,5.6,4,9c0,3.7-0.9,6.8-2.9,9.7c-2.2,3.2-5.9,7.6-11.2,13.2l-29.9,32.3
			v7.3h60.3v-15.1H53.9V210.2z"/>
		<path class="st0" d="M87.6,226.4H25.3v-8.7l30.2-32.6c5.1-5.4,8.9-9.8,11.1-13.1c1.9-2.7,2.7-5.6,2.7-9.1c0-3.2-1.2-5.9-3.7-8.3
			c-2.6-2.4-5.7-3.6-9.5-3.6c-3.7,0-6.8,1.3-9.3,3.9c-2.5,2.7-4,6.8-4.4,12.2l-0.3,3.6h-17l0.1-4c0.4-9.9,3.6-17.8,9.6-23.7
			c6-6,13.3-9,21.8-9c8.5,0,15.6,2.8,21.3,8.4c5.6,5.6,8.5,12.5,8.5,20.5c0,5.8-1.6,11.3-4.6,16.3c-2.6,4.4-6.7,9.7-12.7,16.1
			l-13,14h31.5V226.4z M27.3,224.4h58.3v-13.1H52.9v-1.4l0.3-0.4l14.5-15.6c5.9-6.3,10-11.4,12.5-15.7c2.9-4.7,4.4-9.9,4.4-15.3
			c0-7.4-2.7-13.8-7.9-19.1c-5.3-5.2-12-7.8-19.9-7.8c-8,0-14.8,2.8-20.4,8.4c-5.6,5.5-8.6,13-9,22.3l-0.1,2h13l0.1-1.8
			c0.4-5.8,2.1-10.3,5-13.4c2.9-3,6.5-4.5,10.7-4.5c4.3,0,7.9,1.4,10.9,4.2c2.9,2.8,4.3,6,4.3,9.7c0,4-1,7.2-3.1,10.3
			c-2.3,3.4-6.1,7.8-11.3,13.3l-29.6,32V224.4z"/>
	</g>
	<g>
		<polygon class="st0" points="243.6,207.7 243.6,238.9 212.6,238.9 212.6,207.7 198.3,207.7 198.3,288.7 212.6,288.7 212.6,252.8 
			243.6,252.8 243.6,288.7 257.8,288.7 257.8,207.7 		"/>
		<path class="st0" d="M259.3,290.2h-17.2v-35.9h-28v35.9h-17.3v-84h17.3v31.2h28v-31.2h17.2V290.2z M245.1,287.2h11.2v-78h-11.2
			v31.2h-34v-31.2h-11.3v78h11.3v-35.9h34V287.2z"/>
	</g>
	<g>
		<polygon class="st0" points="243.6,207.7 243.6,238.9 212.6,238.9 209.1,228.8 202.8,234.6 198.3,288.7 212.6,288.7 212.6,252.8 
			243.6,252.8 243.6,288.7 257.8,288.7 257.8,207.7 		"/>
		<path class="st0" d="M259.3,290.2h-17.2v-35.9h-28v35.9h-17.4l4.7-56.3l8.4-7.7l3.9,11.3h28.4v-31.2h17.2V290.2z M245.1,287.2
			h11.2v-78h-11.2v31.2h-33.6l-3.1-8.9l-4.2,3.9l-4.3,51.9h11.2v-35.9h34V287.2z"/>
	</g>
	<g>
		
			<linearGradient id="SVGID_1_" gradientUnits="userSpaceOnUse" x1="68.6025" y1="61.2574" x2="164.6025" y2="61.2574" gradientTransform="matrix(1 0 0 -1 0 305.0149)">
			<stop  offset="0" style="stop-color:#72FFC9"/>
			<stop  offset="0.1817" style="stop-color:#74FFC0"/>
			<stop  offset="0.4797" style="stop-color:#79FFA7"/>
			<stop  offset="0.8549" style="stop-color:#81FF7F"/>
			<stop  offset="1" style="stop-color:#84FF6E"/>
		</linearGradient>
		<circle class="st1" cx="116.6" cy="243.8" r="48"/>
	</g>
	<g>
		<polygon class="st2" points="117.7,243.8 330.1,186.9 174.6,31.4 		"/>
		
			<radialGradient id="SVGID_2_" cx="223.9026" cy="167.4576" r="109.7001" gradientTransform="matrix(1 0 0 -1 0 305.0149)" gradientUnits="userSpaceOnUse">
			<stop  offset="0" style="stop-color:#2539CC"/>
			<stop  offset="0.232" style="stop-color:#2439D8"/>
			<stop  offset="0.6722" style="stop-color:#2339E9"/>
			<stop  offset="1" style="stop-color:#2239EF"/>
		</radialGradient>
		<path class="st3" d="M117.7,247.3c-0.9,0-1.8-0.4-2.5-1c-0.9-0.9-1.2-2.2-0.9-3.4l56.9-212.4c0.3-1.2,1.3-2.2,2.5-2.5
			c1.2-0.3,2.5,0,3.4,0.9l155.5,155.5c0.9,0.9,1.2,2.2,0.9,3.4s-1.3,2.2-2.5,2.5l-212.4,56.9C118.3,247.2,118,247.3,117.7,247.3z
			 M176.4,38.1l-53.8,200.7L323.3,185L176.4,38.1z"/>
	</g>
	<g>
		<g>
			<rect x="105.4" y="53.3" class="st0" width="20.2" height="100"/>
			<path class="st0" d="M124.5,54.5v97.7h-17.9V54.5H124.5 M125.6,53.3h-20.2v100h20.2V53.3L125.6,53.3z"/>
		</g>
		<g>
			<polygon class="st0" points="204.4,111.7 153.7,53.3 143.5,53.3 143.5,153.4 164,153.4 164,95.8 214.3,153.4 224.5,153.4 
				224.5,53.3 204.4,53.3 			"/>
			<path class="st0" d="M223.3,54.5v97.7h-8.5l-50-57.2l-2-2.3v3v56.4h-18.2V54.4h8.5l50.3,58l2,2.3v-3.1V54.4h17.9 M224.5,53.3
				h-20.1v58.4l-50.7-58.4h-10.2v100H164V95.7l50.3,57.6h10.2L224.5,53.3L224.5,53.3z"/>
		</g>
		<g>
			<polygon class="st0" points="238,53.3 238,73.3 257.9,73.3 257.9,153.4 278.2,153.4 278.2,73.3 298,73.3 298,53.3 			"/>
			<path class="st0" d="M296.8,54.5v17.7h-18.6h-1.1v1.1v78.9H259V73.3v-1.1h-1.1h-18.7V54.5H296.8 M298,53.3h-60v20h19.9v80h20.4
				v-80h19.8L298,53.3L298,53.3z"/>
		</g>
	</g>
</g>
</svg>
