<?xml version="1.0" encoding="utf-8"?>
<!-- Generator: Adobe Illustrator 22.0.0, SVG Export Plug-In . SVG Version: 6.00 Build 0)  -->
<svg version="1.1" id="Layer_1" xmlns="http://www.w3.org/2000/svg" xmlns:xlink="http://www.w3.org/1999/xlink" x="0px" y="0px"
	 viewBox="0 0 62.6 72.7" style="enable-background:new 0 0 62.6 72.7;" xml:space="preserve">
<style type="text/css">
	.st0{fill:#FDFDFD;}
	.st1{fill:#2539CC;}
</style>
<g>
	<polygon class="st0" points="15.3,62.1 58.1,30.1 9,9 	"/>
	<path class="st1" d="M15.3,63.6c-0.2,0-0.4,0-0.6-0.1c-0.5-0.2-0.8-0.7-0.9-1.2L7.5,9.2C7.4,8.6,7.7,8.1,8.1,7.8
		c0.4-0.3,1-0.4,1.5-0.2l49.1,21.1c0.5,0.2,0.8,0.7,0.9,1.2s-0.2,1.1-0.6,1.4l-42.8,32C15.9,63.5,15.6,63.6,15.3,63.6z M10.8,11.4
		l5.7,47.9l38.6-28.9L10.8,11.4z"/>
</g>
</svg>
