<?xml version="1.0" encoding="utf-8"?>
<!-- Generator: Adobe Illustrator 22.0.0, SVG Export Plug-In . SVG Version: 6.00 Build 0)  -->
<svg version="1.1" id="Layer_1" xmlns="http://www.w3.org/2000/svg" xmlns:xlink="http://www.w3.org/1999/xlink" x="0px" y="0px"
	 viewBox="0 0 34.5 31.9" style="enable-background:new 0 0 34.5 31.9;" xml:space="preserve">
<style type="text/css">
	.st0{fill:#FDFDFD;}
	.st1{fill:#2539CC;}
</style>
<g>
	<polygon class="st0" points="11.3,25.6 26,14.6 9.2,7.4 	"/>
	<path class="st1" d="M11.3,26.8c-0.2,0-0.3,0-0.5-0.1c-0.4-0.2-0.7-0.6-0.7-1L7.9,7.5C7.9,7.1,8.1,6.7,8.4,6.4
		c0.4-0.3,0.8-0.3,1.2-0.1l16.8,7.2c0.4,0.2,0.7,0.6,0.7,1s-0.1,0.9-0.5,1.1l-14.7,11C11.9,26.7,11.6,26.8,11.3,26.8z M10.7,9.4
		l1.7,13.9l11.2-8.4L10.7,9.4z"/>
</g>
</svg>
