<?xml version="1.0" encoding="utf-8"?>
<!-- Generator: Adobe Illustrator 22.0.0, SVG Export Plug-In . SVG Version: 6.00 Build 0)  -->
<svg version="1.1" id="Layer_1" xmlns="http://www.w3.org/2000/svg" xmlns:xlink="http://www.w3.org/1999/xlink" x="0px" y="0px"
	 viewBox="0 0 72.3 65.7" style="enable-background:new 0 0 72.3 65.7;" xml:space="preserve">
<style type="text/css">
	.st0{fill:#FDFDFD;}
	.st1{fill:#2539CC;}
</style>
<g>
	<polygon class="st0" points="20.2,60.1 63,28.1 13.8,7 	"/>
	<path class="st1" d="M20.2,61.1c-0.1,0-0.3,0-0.4-0.1c-0.3-0.1-0.6-0.4-0.6-0.8L12.9,7.1c0-0.4,0.1-0.7,0.4-0.9
		c0.3-0.2,0.7-0.3,1-0.1l49.1,21.1c0.3,0.1,0.6,0.4,0.6,0.8s-0.1,0.7-0.4,0.9l-42.8,32C20.6,61,20.4,61.1,20.2,61.1z M15,8.6
		l5.9,49.6l40-29.9L15,8.6z"/>
</g>
</svg>
