<?xml version="1.0" encoding="utf-8"?>
<!-- Generator: Adobe Illustrator 22.0.0, SVG Export Plug-In . SVG Version: 6.00 Build 0)  -->
<svg version="1.1" id="Layer_1" xmlns="http://www.w3.org/2000/svg" xmlns:xlink="http://www.w3.org/1999/xlink" x="0px" y="0px"
	 viewBox="0 0 184.3 73.2" style="enable-background:new 0 0 184.3 73.2;" xml:space="preserve">
<style type="text/css">
	.st0{fill:url(#SVGID_1_);}
	.st1{fill:url(#SVGID_2_);}
	.st2{fill:url(#SVGID_3_);}
</style>
<g>
	
		<linearGradient id="SVGID_1_" gradientUnits="userSpaceOnUse" x1="14.5907" y1="266.8242" x2="171.7912" y2="266.8242" gradientTransform="matrix(1 0 0 -1 0 286)">
		<stop  offset="0" style="stop-color:#72FFC9"/>
		<stop  offset="0.1817" style="stop-color:#74FFC0"/>
		<stop  offset="0.4797" style="stop-color:#79FFA7"/>
		<stop  offset="0.8549" style="stop-color:#81FF7F"/>
		<stop  offset="1" style="stop-color:#84FF6E"/>
	</linearGradient>
	<path class="st0" d="M171.8,23.7c-1.7,0-3.4-0.5-5-1.4c-0.7-0.4-1.4-1-2-1.6l-0.4-0.3c-0.1-0.1-0.2-0.2-0.3-0.3
		c-0.9-0.8-2-1.4-3-1.7c-0.2-0.1-0.4-0.1-0.6-0.1c-0.2,0-0.4-0.1-0.6-0.1c-0.1,0-0.2,0-0.3,0h-1.3c-0.1,0-0.2,0-0.3,0
		c-0.2,0-0.4,0-0.6,0.1c-0.2,0-0.4,0.1-0.6,0.1c-1.1,0.3-2.1,0.9-3,1.7c-0.1,0.1-0.2,0.2-0.3,0.3l-0.4,0.3c-4.1,4-9.9,4-14,0
		l-0.4-0.4c-0.1-0.1-0.2-0.2-0.3-0.3c-1.3-1.1-2.8-1.8-4.3-1.9c-0.1,0-0.2,0-0.3,0h-1.3c-0.1,0-0.2,0-0.4,0c-0.3,0-0.6,0.1-0.9,0.1
		c-0.1,0-0.2,0-0.3,0.1c-1,0.3-1.9,0.7-2.7,1.4c-0.2,0.2-0.4,0.3-0.6,0.5l-0.4,0.4c-0.6,0.5-1.2,1-1.8,1.4c-0.3,0.2-0.6,0.4-1,0.5
		c-0.2,0.1-0.3,0.2-0.5,0.2c-1.5,0.6-4.2,0.8-4.5,0.8c-1.8,0-3.5-0.5-5-1.4c-0.7-0.4-1.4-1-2-1.6l-0.4-0.3c-0.1-0.1-0.2-0.2-0.3-0.3
		c-0.9-0.8-2-1.4-3-1.7c-0.2-0.1-0.4-0.1-0.6-0.1c-0.2,0-0.4-0.1-0.6-0.1c-0.1,0-0.2,0-0.3,0h-1.3c-0.1,0-0.2,0-0.3,0
		c-0.2,0-0.4,0-0.6,0.1c-0.2,0-0.4,0.1-0.6,0.1c-1.1,0.3-2.1,0.9-3,1.7c-0.1,0.1-0.2,0.2-0.3,0.3l-0.4,0.3c-1.7,1.6-3.7,2.7-5.9,2.9
		v0.1h-0.9c-0.1,0-0.2,0-0.3,0h-0.3c-1.7,0-3.4-0.5-5-1.4c-0.7-0.4-1.4-1-2-1.6l-0.4-0.3c-0.1-0.1-0.2-0.2-0.3-0.3
		c-0.9-0.8-2-1.4-3-1.7c-0.2-0.1-0.4-0.1-0.6-0.1c-0.2,0-0.4-0.1-0.6-0.1c-0.1,0-0.2,0-0.3,0h-1.5c-0.1,0-0.2,0-0.3,0
		c-0.2,0-0.4,0-0.6,0.1c-0.2,0-0.4,0.1-0.6,0.1c-1.1,0.3-2.1,0.9-3,1.7c-0.1,0.1-0.2,0.2-0.3,0.3l-0.4,0.3c-4.1,4-9.9,4-14,0
		L60,20.1c-0.1-0.1-0.2-0.2-0.3-0.3c-1.3-1.1-2.8-1.8-4.3-1.9c-0.1,0-0.2,0-0.3,0h-1.2c-0.1,0-0.2,0-0.4,0c-0.3,0-0.6,0.1-0.9,0.1
		c-0.1,0-0.2,0-0.3,0.1c-1,0.3-1.9,0.7-2.7,1.4c-0.2,0.2-0.4,0.3-0.6,0.5l-0.4,0.4c-0.6,0.5-1.2,1-1.8,1.4c-0.3,0.2-0.6,0.4-1,0.5
		c-0.2,0.1-0.3,0.2-0.5,0.2c-1.5,0.6-4.2,0.8-4.5,0.8l0,0c-1.8,0-3.5-0.5-5-1.4c-0.7-0.4-1.4-1-2-1.6L33.4,20
		c-0.1-0.1-0.2-0.2-0.3-0.3c-0.9-0.8-2-1.4-3-1.7c-0.2-0.1-0.4-0.1-0.6-0.1s-0.4-0.1-0.6-0.1c-0.1,0-0.2,0-0.3,0h-1.3
		c-0.1,0-0.2,0-0.3,0c-0.2,0-0.4,0-0.6,0.1c-0.2,0-0.4,0.1-0.6,0.1c-1.1,0.3-2.1,0.9-3,1.7c-0.1,0.1-0.2,0.2-0.3,0.3l-0.4,0.3
		c-1.7,1.7-3.8,2.7-5.9,2.9c-0.5,0.1-1.3,0.1-1.4,0.1v-3c0.3,0,0.9,0,1.1,0c1.5-0.2,3-0.9,4.2-2.1l0.4-0.3c0.1-0.1,0.3-0.2,0.4-0.3
		c1.3-1.1,2.7-1.9,4.3-2.3c0.3-0.1,0.6-0.1,0.9-0.2c0.3,0,0.6-0.1,1-0.1c0.2,0,0.3,0,0.5,0h1.3c0.2,0,0.3,0,0.5,0
		c0.3,0,0.6,0,0.9,0.1s0.6,0.1,0.9,0.2c1.5,0.4,3,1.2,4.3,2.3c0.1,0.1,0.3,0.2,0.4,0.3l0.4,0.3c0.5,0.5,1,0.8,1.5,1.2
		c1.1,0.7,2.2,1,3.4,1c0.9,0,2.6-0.2,3.4-0.5c0.1-0.1,0.2-0.1,0.4-0.2c0.2-0.1,0.5-0.2,0.7-0.4c0.5-0.3,0.9-0.7,1.3-1.1l0.4-0.4
		c0.2-0.2,0.5-0.5,0.8-0.7c1.2-1,2.5-1.6,3.8-2c0.2,0,0.3-0.1,0.5-0.1c0.5-0.1,0.9-0.2,1.4-0.2c0.2,0,0.3,0,0.5,0h1.2
		c0.2,0,0.3,0,0.5,0c2.2,0.1,4.3,1,6.1,2.6c0.1,0.1,0.3,0.2,0.4,0.3l0.4,0.4c3,2.9,6.9,2.9,9.8,0l0.4-0.3c0.1-0.1,0.3-0.2,0.4-0.3
		c1.3-1.1,2.7-1.9,4.3-2.3c0.3-0.1,0.6-0.1,0.9-0.2c0.3,0,0.6-0.1,1-0.1c0.2,0,0.3,0,0.5,0h1.3c0.2,0,0.3,0,0.5,0
		c0.3,0,0.6,0,0.9,0.1s0.6,0.1,0.9,0.2c1.5,0.4,3,1.2,4.3,2.3c0.1,0.1,0.3,0.2,0.4,0.3l0.4,0.3c0.5,0.5,1,0.8,1.5,1.2
		c0.9,0.5,1.8,0.9,2.7,1H94c0.3,0,0.7,0,1,0c1.5-0.2,3-0.9,4.2-2.1l0.4-0.3c0.1-0.1,0.3-0.2,0.4-0.4c1.3-1.1,2.7-1.9,4.3-2.3
		c0.3-0.1,0.6-0.1,0.9-0.2c0.3,0,0.6-0.1,1-0.1c0.2,0,0.3,0,0.5,0h1.3c0.2,0,0.3,0,0.5,0c0.3,0,0.6,0,0.9,0.1s0.6,0.1,0.9,0.2
		c1.5,0.4,3,1.2,4.3,2.3c0.1,0.1,0.2,0.2,0.4,0.3l0.4,0.3c0.5,0.5,1,0.8,1.5,1.2c1.1,0.7,2.2,1,3.4,1c0.9,0,2.6-0.2,3.4-0.5
		c0.1-0.1,0.2-0.1,0.4-0.2c0.2-0.1,0.5-0.2,0.7-0.4c0.5-0.3,0.9-0.7,1.3-1.1l0.4-0.4c0.2-0.2,0.5-0.5,0.8-0.7c1.2-1,2.5-1.6,3.8-2
		c0.2,0,0.3-0.1,0.5-0.1c0.5-0.1,0.9-0.2,1.4-0.2c0.2,0,0.3,0,0.5,0h1.2c0.2,0,0.3,0,0.5,0c2.2,0.1,4.3,1,6.1,2.6
		c0.1,0.1,0.3,0.2,0.4,0.3l0.4,0.4c3,2.9,6.9,2.9,9.8,0l0.4-0.3c0.1-0.1,0.3-0.2,0.4-0.3c1.3-1.1,2.7-1.9,4.3-2.3
		c0.3-0.1,0.6-0.1,0.9-0.2c0.3,0,0.6-0.1,1-0.1c0.2,0,0.3,0,0.5,0h1.3c0.2,0,0.3,0,0.5,0c0.3,0,0.6,0,0.9,0.1
		c0.3,0.1,0.6,0.1,0.9,0.2c1.5,0.4,3,1.2,4.3,2.3c0.1,0.1,0.3,0.2,0.4,0.3l0.4,0.3c0.5,0.5,1,0.8,1.5,1.2c1.1,0.7,2.2,1,3.4,1v3.5
		H171.8z"/>
	
		<linearGradient id="SVGID_2_" gradientUnits="userSpaceOnUse" x1="14.5925" y1="251.1743" x2="171.7912" y2="251.1743" gradientTransform="matrix(1 0 0 -1 0 286)">
		<stop  offset="0" style="stop-color:#72FFC9"/>
		<stop  offset="0.1817" style="stop-color:#74FFC0"/>
		<stop  offset="0.4797" style="stop-color:#79FFA7"/>
		<stop  offset="0.8549" style="stop-color:#81FF7F"/>
		<stop  offset="1" style="stop-color:#84FF6E"/>
	</linearGradient>
	<path class="st1" d="M171.8,39.3c-1.7,0-3.4-0.5-5-1.4c-0.7-0.4-1.4-1-2-1.6l-0.4-0.3c-0.1-0.1-0.2-0.2-0.3-0.3
		c-0.9-0.8-2-1.4-3-1.7c-0.2-0.1-0.4-0.1-0.6-0.1c-0.2,0-0.4-0.1-0.6-0.1c-0.1,0-0.2,0-0.3,0h-1.3c-0.1,0-0.2,0-0.3,0
		c-0.2,0-0.4,0-0.6,0.1c-0.2,0-0.4,0.1-0.6,0.1c-1.1,0.3-2.1,0.9-3,1.7c-0.1,0.1-0.2,0.2-0.3,0.3l-0.4,0.3c-4.1,4-9.9,4-14,0
		l-0.4-0.4c-0.1-0.1-0.2-0.2-0.3-0.3c-1.3-1.1-2.8-1.8-4.3-1.9c-0.1,0-0.2,0-0.3,0h-1.3c-0.1,0-0.2,0-0.4,0c-0.3,0-0.6,0.1-0.9,0.1
		c-0.1,0-0.2,0-0.3,0.1c-1,0.3-1.9,0.7-2.7,1.4c-0.2,0.2-0.4,0.3-0.6,0.5l-0.4,0.4c-0.6,0.5-1.2,1-1.8,1.4c-0.3,0.2-0.6,0.4-1,0.5
		c-0.2,0.1-0.3,0.2-0.5,0.2c-1.5,0.6-4.2,0.8-4.5,0.8l0,0c-1.8,0-3.5-0.5-5-1.4c-0.7-0.4-1.4-1-2-1.6l-0.4-0.3
		c-0.1-0.1-0.2-0.2-0.3-0.3c-0.9-0.8-2-1.4-3-1.7c-0.2-0.1-0.4-0.1-0.6-0.1c-0.2,0-0.4-0.1-0.6-0.1c-0.1,0-0.2,0-0.3,0h-1.3
		c-0.1,0-0.2,0-0.3,0c-0.2,0-0.4,0-0.6,0.1c-0.2,0-0.4,0.1-0.6,0.1c-1.1,0.3-2.1,0.9-3,1.7c-0.1,0.1-0.2,0.2-0.3,0.3l-0.4,0.3
		C99,37.7,97,38.8,94.8,39v0.1h-0.9c-0.1,0-0.2,0-0.3,0h-0.2c-1.7,0-3.4-0.5-5-1.4c-0.7-0.4-1.4-1-2-1.6L86,35.8
		c-0.1-0.1-0.2-0.2-0.3-0.3c-0.9-0.8-2-1.4-3-1.7c-0.2-0.1-0.4-0.1-0.6-0.1s-0.4-0.1-0.6-0.1c-0.1,0-0.2,0-0.3,0h-1.6
		c-0.1,0-0.2,0-0.3,0c-0.2,0-0.4,0-0.6,0.1c-0.2,0-0.4,0.1-0.6,0.1c-1.1,0.3-2.1,0.9-3,1.7c-0.1,0.1-0.2,0.2-0.3,0.3l-0.4,0.3
		c-4.1,4-9.9,4-14,0L60,35.7c-0.1-0.1-0.2-0.2-0.3-0.3c-1.3-1.1-2.8-1.8-4.3-1.9c-0.1,0-0.2,0-0.3,0h-1.2c-0.1,0-0.2,0-0.4,0
		c-0.3,0-0.6,0.1-0.9,0.1c-0.1,0-0.2,0-0.3,0.1c-1,0.3-1.9,0.7-2.7,1.4c-0.2,0.2-0.4,0.3-0.6,0.5L48.6,36c-0.6,0.5-1.2,1-1.8,1.4
		c-0.3,0.2-0.6,0.4-1,0.5c-0.2,0.1-0.3,0.2-0.5,0.2c-1.5,0.6-4.2,0.8-4.5,0.8l0,0c-1.8,0-3.5-0.5-5-1.4c-0.7-0.4-1.4-1-2-1.6
		l-0.4-0.3c-0.1-0.1-0.2-0.2-0.3-0.3c-0.9-0.8-2-1.4-3-1.7c-0.2-0.1-0.4-0.1-0.6-0.1s-0.4-0.1-0.6-0.1c-0.1,0-0.2,0-0.3,0h-1.3
		c-0.1,0-0.2,0-0.3,0c-0.2,0-0.4,0-0.6,0.1c-0.2,0-0.4,0.1-0.6,0.1c-1.1,0.3-2.1,0.9-3,1.7c-0.1,0.1-0.2,0.2-0.3,0.3l-0.4,0.3
		c-1.7,1.7-3.8,2.7-5.9,2.9c-0.5,0.1-1.3,0.1-1.4,0.1v-3c0.3,0,0.8,0,1.1,0c1.5-0.2,3-0.9,4.2-2.1l0.4-0.3c0.1-0.1,0.2-0.2,0.4-0.3
		c1.3-1.1,2.7-1.9,4.3-2.3c0.3-0.1,0.6-0.1,0.9-0.2c0.3,0,0.6-0.1,0.9-0.1c0.2,0,0.3,0,0.5,0h1.3c0.2,0,0.3,0,0.5,0
		c0.3,0,0.6,0.1,1,0.1c0.3,0,0.6,0.1,0.9,0.2c1.5,0.4,3,1.2,4.3,2.3c0.1,0.1,0.3,0.2,0.4,0.3l0.4,0.3c0.5,0.5,1,0.8,1.5,1.2
		c1.1,0.7,2.2,1,3.4,1c0.9,0,2.6-0.2,3.4-0.5c0.1,0,0.2-0.1,0.3-0.2c0.2-0.1,0.5-0.2,0.7-0.4c0.5-0.3,0.9-0.7,1.3-1.1l0.4-0.4
		c0.2-0.2,0.5-0.5,0.8-0.7c1.2-1,2.5-1.6,3.8-2c0.2,0,0.3-0.1,0.5-0.1c0.5-0.1,0.9-0.2,1.4-0.2c0.2,0,0.3,0,0.5,0h1.2
		c0.2,0,0.3,0,0.5,0c2.2,0.1,4.3,1,6.1,2.6c0.1,0.1,0.3,0.2,0.4,0.3l0.4,0.4c3,2.9,6.9,2.9,9.8,0l0.4-0.3c0.1-0.1,0.2-0.2,0.4-0.3
		c1.3-1.1,2.7-1.9,4.3-2.3c0.3-0.1,0.6-0.1,0.9-0.2c0.3,0,0.6-0.1,0.9-0.1c0.2,0,0.3,0,0.5,0h1.3c0.2,0,0.3,0,0.5,0
		c0.3,0,0.6,0.1,1,0.1c0.3,0,0.6,0.1,0.9,0.2c1.5,0.4,3,1.2,4.3,2.3c0.1,0.1,0.3,0.2,0.4,0.3l0.4,0.3c0.5,0.5,1,0.8,1.5,1.2
		c0.9,0.5,1.8,0.9,2.8,1h0.7c0.3,0,0.7,0,1,0c1.5-0.2,3-0.9,4.2-2.1l0.4-0.3c0.1-0.1,0.2-0.2,0.4-0.3c1.3-1.1,2.7-1.9,4.3-2.3
		c0.3-0.1,0.6-0.1,0.9-0.2c0.3,0,0.6-0.1,0.9-0.1c0.2,0,0.3,0,0.5,0h1.3c0.2,0,0.3,0,0.5,0c0.3,0,0.6,0.1,1,0.1
		c0.3,0,0.6,0.1,0.9,0.2c1.5,0.4,3,1.2,4.3,2.3c0.1,0.1,0.3,0.2,0.4,0.3l0.4,0.3c0.5,0.5,1,0.8,1.5,1.2c1.1,0.7,2.2,1,3.4,1
		c0.9,0,2.6-0.2,3.4-0.5c0.1,0,0.2-0.1,0.3-0.2c0.2-0.1,0.5-0.2,0.7-0.4c0.5-0.3,0.9-0.7,1.3-1.1l0.4-0.4c0.2-0.2,0.5-0.5,0.8-0.7
		c1.2-1,2.5-1.6,3.8-2c0.2,0,0.3-0.1,0.5-0.1c0.5-0.1,0.9-0.2,1.4-0.2c0.2,0,0.3,0,0.5,0h1.2c0.2,0,0.3,0,0.5,0
		c2.2,0.1,4.3,1,6.1,2.6c0.1,0.1,0.3,0.2,0.4,0.3l0.4,0.4c3,2.9,6.9,2.9,9.8,0l0.4-0.3c0.1-0.1,0.2-0.2,0.4-0.3
		c1.3-1.1,2.7-1.9,4.3-2.3c0.3-0.1,0.6-0.1,0.9-0.2c0.3,0,0.6-0.1,0.9-0.1c0.2,0,0.3,0,0.5,0h1.3c0.2,0,0.3,0,0.5,0
		c0.3,0,0.6,0.1,1,0.1c0.3,0,0.6,0.1,0.9,0.2c1.5,0.4,3,1.2,4.3,2.3c0.1,0.1,0.3,0.2,0.4,0.3l0.4,0.3c0.5,0.5,1,0.8,1.5,1.2
		c1.1,0.7,2.2,1,3.4,1v3.4H171.8z"/>
	
		<linearGradient id="SVGID_3_" gradientUnits="userSpaceOnUse" x1="14.5907" y1="235.5743" x2="171.7912" y2="235.5743" gradientTransform="matrix(1 0 0 -1 0 286)">
		<stop  offset="0" style="stop-color:#72FFC9"/>
		<stop  offset="0.1817" style="stop-color:#74FFC0"/>
		<stop  offset="0.4797" style="stop-color:#79FFA7"/>
		<stop  offset="0.8549" style="stop-color:#81FF7F"/>
		<stop  offset="1" style="stop-color:#84FF6E"/>
	</linearGradient>
	<path class="st2" d="M171.8,54.9c-1.7,0-3.4-0.5-5-1.4c-0.7-0.4-1.4-1-2-1.6l-0.4-0.3c-0.1-0.1-0.2-0.2-0.3-0.3
		c-0.9-0.8-2-1.4-3-1.7c-0.2-0.1-0.4-0.1-0.6-0.1c-0.2,0-0.4-0.1-0.6-0.1c-0.1,0-0.2,0-0.3,0h-1.3c-0.1,0-0.2,0-0.3,0
		c-0.2,0-0.4,0-0.6,0.1c-0.2,0-0.4,0.1-0.6,0.1c-1.1,0.3-2.1,0.9-3,1.7c-0.1,0.1-0.2,0.2-0.3,0.3l-0.4,0.3c-4.1,4-9.9,4-14,0
		l-0.4-0.4c-0.1-0.1-0.2-0.2-0.3-0.3c-1.3-1.1-2.8-1.8-4.3-1.9c-0.1,0-0.2,0-0.3,0h-1.3c-0.1,0-0.2,0-0.4,0c-0.3,0-0.6,0.1-0.9,0.1
		c-0.1,0-0.2,0-0.3,0.1c-1,0.3-1.9,0.7-2.7,1.4c-0.2,0.2-0.4,0.3-0.6,0.5l-0.4,0.4c-0.6,0.5-1.2,1-1.8,1.4c-0.3,0.2-0.6,0.4-1,0.5
		c-0.2,0.1-0.3,0.2-0.5,0.2c-1.5,0.6-4.2,0.8-4.5,0.8l0,0c-1.8,0-3.5-0.5-5-1.4c-0.7-0.4-1.4-1-2-1.6l-0.4-0.3
		c-0.1-0.1-0.2-0.2-0.3-0.3c-0.9-0.8-2-1.4-3-1.7c-0.2-0.1-0.4-0.1-0.6-0.1c-0.2,0-0.4-0.1-0.6-0.1c-0.1,0-0.2,0-0.3,0h-1.3
		c-0.1,0-0.2,0-0.3,0c-0.2,0-0.4,0-0.6,0.1c-0.2,0-0.4,0.1-0.6,0.1c-1.1,0.3-2.1,0.9-3,1.7c-0.1,0.1-0.2,0.2-0.3,0.3l-0.4,0.3
		c-1.7,1.6-3.7,2.7-5.9,2.9v0.1h-0.9c-0.1,0-0.2,0-0.3,0h-0.3c-1.7,0-3.4-0.5-5-1.4c-0.7-0.4-1.4-1-2-1.6l-0.4-0.3
		c-0.1-0.1-0.2-0.2-0.3-0.3c-0.9-0.8-2-1.4-3-1.7c-0.2-0.1-0.4-0.1-0.6-0.1c-0.2,0-0.4-0.1-0.6-0.1c-0.1,0-0.2,0-0.3,0h-1.5
		c-0.1,0-0.2,0-0.3,0c-0.2,0-0.4,0-0.6,0.1c-0.2,0-0.4,0.1-0.6,0.1c-1.1,0.3-2.1,0.9-3,1.7c-0.1,0.1-0.2,0.2-0.3,0.3l-0.4,0.3
		c-4.1,4-9.9,4-14,0L60,51.3c-0.1-0.1-0.2-0.2-0.3-0.3c-1.3-1.1-2.8-1.8-4.3-1.9c-0.1,0-0.2,0-0.3,0h-1.2c-0.1,0-0.2,0-0.4,0
		c-0.3,0-0.6,0.1-0.9,0.1c-0.1,0-0.2,0-0.3,0.1c-1,0.3-1.9,0.7-2.7,1.4c-0.2,0.2-0.4,0.3-0.6,0.5l-0.4,0.4c-0.6,0.5-1.2,1-1.8,1.4
		c-0.3,0.2-0.6,0.4-1,0.5c-0.2,0.1-0.3,0.2-0.5,0.2c-1.5,0.6-4.2,0.8-4.5,0.8l0,0c-1.8,0-3.5-0.5-5-1.4c-0.7-0.4-1.4-1-2-1.6
		l-0.4-0.3c-0.1-0.1-0.2-0.2-0.3-0.3c-0.9-0.8-2-1.4-3-1.7c-0.2-0.1-0.4-0.1-0.6-0.1S29.1,49,28.9,49c-0.1,0-0.2,0-0.3,0h-1.3
		c-0.1,0-0.2,0-0.3,0c-0.2,0-0.4,0-0.6,0.1c-0.2,0-0.4,0.1-0.6,0.1c-1.1,0.3-2.1,0.9-3,1.7c-0.1,0.1-0.2,0.2-0.3,0.3l-0.4,0.3
		c-1.7,1.7-3.8,2.7-5.9,2.9c-0.5,0.1-1.3,0.1-1.4,0.1v-3c0.3,0,0.9,0,1.1,0c1.5-0.2,3-0.9,4.2-2.1l0.4-0.3c0.1-0.1,0.2-0.2,0.4-0.3
		c1.3-1.1,2.7-1.9,4.3-2.3c0.3-0.1,0.6-0.1,0.9-0.2c0.3,0,0.6-0.1,0.9-0.1c0.2,0,0.3,0,0.5,0h1.3c0.2,0,0.3,0,0.5,0
		c0.3,0,0.6,0.1,1,0.1c0.3,0,0.6,0.1,0.9,0.2c1.5,0.4,3,1.2,4.3,2.3c0.1,0.1,0.3,0.2,0.4,0.3l0.4,0.3c0.5,0.5,1,0.8,1.5,1.2
		c1.1,0.7,2.2,1,3.4,1c0.9,0,2.6-0.2,3.4-0.5c0.1-0.1,0.2-0.1,0.4-0.2c0.2-0.1,0.5-0.2,0.7-0.4c0.5-0.3,0.9-0.7,1.3-1.1l0.4-0.4
		c0.2-0.2,0.5-0.5,0.8-0.7c1.2-1,2.5-1.6,3.8-2c0.2,0,0.3-0.1,0.5-0.1c0.5-0.1,0.9-0.2,1.4-0.2c0.2,0,0.3,0,0.5,0h1.2
		c0.2,0,0.3,0,0.5,0c2.2,0.1,4.3,1,6.1,2.6c0.1,0.1,0.3,0.2,0.4,0.3l0.4,0.4c3,2.9,6.9,2.9,9.8,0l0.4-0.3c0.1-0.1,0.2-0.2,0.4-0.3
		c1.3-1.1,2.7-1.9,4.3-2.3c0.3-0.1,0.6-0.1,0.9-0.2c0.3,0,0.6-0.1,0.9-0.1c0.2,0,0.3,0,0.5,0h1.3c0.2,0,0.3,0,0.5,0
		c0.3,0,0.6,0.1,1,0.1c0.3,0,0.6,0.1,0.9,0.2c1.5,0.4,3,1.2,4.3,2.3c0.1,0.1,0.3,0.2,0.4,0.3l0.4,0.3c0.5,0.5,1,0.8,1.5,1.2
		c0.9,0.5,1.8,0.9,2.7,1H94c0.3,0,0.7,0,1,0c1.5-0.2,3-0.9,4.2-2.1l0.4-0.3c0.1-0.1,0.2-0.2,0.4-0.3c1.3-1.1,2.7-1.9,4.3-2.3
		c0.3-0.1,0.6-0.1,0.9-0.2c0.3,0,0.6-0.1,0.9-0.1c0.2,0,0.3,0,0.5,0h1.3c0.2,0,0.3,0,0.5,0c0.3,0,0.6,0.1,1,0.1
		c0.3,0,0.6,0.1,0.9,0.2c1.5,0.4,3,1.2,4.3,2.3c0.1,0.1,0.3,0.2,0.4,0.3l0.4,0.3c0.5,0.5,1,0.8,1.5,1.2c1.1,0.7,2.2,1,3.4,1
		c0.9,0,2.6-0.2,3.4-0.5c0.1-0.1,0.2-0.1,0.4-0.2c0.2-0.1,0.5-0.2,0.7-0.4c0.5-0.3,0.9-0.7,1.3-1.1l0.4-0.4c0.2-0.2,0.5-0.5,0.8-0.7
		c1.2-1,2.5-1.6,3.8-2c0.2,0,0.3-0.1,0.5-0.1c0.5-0.1,0.9-0.2,1.4-0.2c0.2,0,0.3,0,0.5,0h1.2c0.2,0,0.3,0,0.5,0
		c2.2,0.1,4.3,1,6.1,2.6c0.1,0.1,0.3,0.2,0.4,0.3l0.4,0.4c3,2.9,6.9,2.9,9.8,0l0.4-0.3c0.1-0.1,0.2-0.2,0.4-0.3
		c1.3-1.1,2.7-1.9,4.3-2.3c0.3-0.1,0.6-0.1,0.9-0.2c0.3-0.1,0.6-0.1,0.9-0.1c0.2,0,0.3,0,0.5,0h1.3c0.2,0,0.3,0,0.5,0
		c0.3,0,0.6,0.1,1,0.1c0.3,0,0.6,0.1,0.9,0.2c1.5,0.4,3,1.2,4.3,2.3c0.1,0.1,0.3,0.2,0.4,0.3l0.4,0.3c0.5,0.5,1,0.8,1.5,1.2
		c1.1,0.7,2.2,1,3.4,1v3.4H171.8z"/>
</g>
</svg>
