<?xml version="1.0" encoding="utf-8"?>
<!-- Generator: Adobe Illustrator 20.1.0, SVG Export Plug-In . SVG Version: 6.00 Build 0)  -->
<svg version="1.1" id="Layer_1" xmlns="http://www.w3.org/2000/svg" xmlns:xlink="http://www.w3.org/1999/xlink" x="0px" y="0px"
	 viewBox="0 0 140 75" style="enable-background:new 0 0 140 75;" xml:space="preserve">
<style type="text/css">
	.st0{fill:#010202;}
	.st1{fill:none;}
</style>
<g>
	<g>
		<path class="st0" d="M86.7,12.2c-0.5-0.3-1.1-0.4-1.7-0.3c-0.6,0.1-1.1,0.5-1.4,1L70.4,34.4L57.1,12.9c-0.3-0.5-0.8-0.8-1.4-1
			c-0.6-0.1-1.2,0-1.7,0.3c-1,0.6-1.4,2-0.7,3l15.2,24.6c0.4,0.6,1.1,1,1.9,1c0.8,0,1.5-0.4,1.9-1l15.2-24.6
			C88,14.2,87.7,12.8,86.7,12.2z"/>
		<path class="st0" d="M23.2,26.7l7.1-11.3c-5.4-2.2-11.7-0.3-14.9,4.7c-3.6,5.7-1.9,13.2,3.8,16.7c5.7,3.6,13.2,1.9,16.7-3.8
			c0.6-1,2-1.3,2.9-0.7c0.5,0.3,0.8,0.8,0.9,1.3c0.1,0.6,0,1.1-0.3,1.6c-2.3,3.7-6,6.3-10.2,7.2c-4.3,1-8.7,0.2-12.3-2.1
			c-7.6-4.8-9.9-15-5.1-22.6c2.3-3.7,6-6.3,10.2-7.2c4.3-1,8.7-0.2,12.3,2.1c0.5,0.3,0.8,0.8,0.9,1.3c0.1,0.6,0,1.1-0.3,1.6
			l-8.4,13.2c-0.6,1-2,1.3-2.9,0.7C22.8,29,22.5,27.7,23.2,26.7z"/>
		<path class="st0" d="M126.8,23.2c-2.4-2-2.9-3.8-3.6-5.8c-0.8-2.5-1.8-5.4-6.8-6.4c-4.8-0.9-9.6,2.4-12.3,6.1
			c-4.8,6.6-4.8,17.9,2.3,23.2c2.3,1.7,5.8,2.7,9.4,2.7c1.3,0,2.5-0.1,3.7-0.4c4-0.8,7.2-2.9,9-6.1
			C131.7,31.3,131.1,26.8,126.8,23.2z M108.9,37c-5.2-3.8-5-12.6-1.4-17.6c1.6-2.3,4.6-4.6,7.4-4.6c0.3,0,0.6,0,0.9,0.1
			c2.7,0.5,3,1.5,3.7,3.7c0.7,2.2,1.6,4.8,4.8,7.6c2.8,2.3,3,4.8,0.9,8.3c-1.6,2.7-4.3,3.8-6.4,4.2C115.2,39.4,111.2,38.7,108.9,37z
			"/>
	</g>
	<circle class="st0" cx="133.7" cy="14.6" r="3.4"/>
	<g>
		<path class="st0" d="M28.1,59c0.3,0,0.5-0.1,0.7-0.3s0.3-0.5,0.3-0.9h1l0,0c0,0.6-0.2,1.1-0.6,1.5c-0.4,0.4-0.9,0.6-1.5,0.6
			c-0.8,0-1.3-0.3-1.7-0.8c-0.4-0.5-0.6-1.2-0.6-2v-0.8c0-0.8,0.2-1.5,0.6-2c0.4-0.5,1-0.8,1.7-0.8c0.6,0,1.1,0.2,1.5,0.6
			c0.4,0.4,0.6,0.9,0.6,1.6l0,0h-1c0-0.4-0.1-0.7-0.3-1s-0.4-0.4-0.7-0.4c-0.4,0-0.7,0.2-0.9,0.5c-0.2,0.4-0.3,0.8-0.3,1.3v0.8
			c0,0.6,0.1,1,0.3,1.4C27.4,58.9,27.7,59,28.1,59z"/>
		<path class="st0" d="M39.2,56.4c0-0.8,0.2-1.5,0.6-2c0.4-0.5,1-0.8,1.7-0.8c0.7,0,1.3,0.3,1.7,0.8c0.4,0.5,0.6,1.2,0.6,2v0.8
			c0,0.8-0.2,1.5-0.6,2c-0.4,0.5-1,0.8-1.7,0.8c-0.7,0-1.3-0.3-1.7-0.8c-0.4-0.5-0.6-1.2-0.6-2V56.4z M40.3,57.1
			c0,0.6,0.1,1,0.3,1.4s0.5,0.5,0.9,0.5c0.4,0,0.7-0.2,0.9-0.5c0.2-0.4,0.3-0.8,0.3-1.4v-0.8c0-0.6-0.1-1-0.3-1.4
			c-0.2-0.4-0.5-0.5-0.9-0.5c-0.4,0-0.7,0.2-0.9,0.5s-0.3,0.8-0.3,1.4V57.1z"/>
		<path class="st0" d="M54.3,53.7l0.1,0.8c0.2-0.3,0.4-0.5,0.6-0.7c0.3-0.2,0.6-0.2,0.9-0.2c0.3,0,0.6,0.1,0.9,0.3
			c0.2,0.2,0.4,0.5,0.5,0.8c0.2-0.4,0.4-0.6,0.6-0.8c0.3-0.2,0.6-0.3,0.9-0.3c0.5,0,0.9,0.2,1.2,0.6c0.3,0.4,0.4,1.1,0.4,2v3.6h-1.1
			v-3.6c0-0.6-0.1-1.1-0.2-1.3c-0.2-0.3-0.4-0.4-0.7-0.4c-0.3,0-0.5,0.1-0.7,0.3c-0.2,0.2-0.3,0.5-0.4,0.8c0,0,0,0,0,0.1
			c0,0.1,0,0.2,0,0.3v3.8h-1.1v-3.6c0-0.6-0.1-1-0.2-1.3c-0.2-0.3-0.4-0.4-0.7-0.4c-0.2,0-0.4,0.1-0.6,0.2c-0.2,0.1-0.3,0.3-0.4,0.6
			v4.6h-1.1v-6.1H54.3z"/>
		<path class="st0" d="M74.6,57.2c0,0.8-0.2,1.5-0.5,1.9s-0.8,0.7-1.5,0.7c-0.3,0-0.6-0.1-0.8-0.2s-0.4-0.3-0.6-0.5v2.9H70v-8.5h1
			l0.1,0.7c0.2-0.3,0.4-0.5,0.6-0.6c0.2-0.1,0.5-0.2,0.8-0.2c0.6,0,1.1,0.3,1.5,0.8c0.4,0.5,0.5,1.2,0.5,2.1V57.2z M73.4,56.5
			c0-0.6-0.1-1.1-0.3-1.5c-0.2-0.4-0.5-0.6-0.9-0.6c-0.2,0-0.5,0.1-0.6,0.2c-0.2,0.1-0.3,0.3-0.4,0.6v3.1c0.1,0.2,0.2,0.4,0.4,0.5
			C71.8,59,72,59,72.2,59c0.4,0,0.7-0.2,0.9-0.5c0.2-0.3,0.3-0.8,0.3-1.3V56.5z"/>
		<path class="st0" d="M87,59.8c0-0.1-0.1-0.3-0.1-0.4c0-0.1,0-0.3-0.1-0.4c-0.2,0.3-0.4,0.5-0.6,0.7c-0.3,0.2-0.5,0.3-0.9,0.3
			c-0.5,0-0.9-0.2-1.2-0.5c-0.3-0.3-0.4-0.8-0.4-1.3c0-0.6,0.2-1,0.6-1.4c0.4-0.3,1-0.5,1.7-0.5h0.9v-0.6c0-0.4-0.1-0.7-0.2-0.9
			c-0.2-0.2-0.4-0.3-0.7-0.3c-0.3,0-0.5,0.1-0.7,0.3C85,54.9,85,55.1,85,55.4l-1.1,0l0,0c0-0.5,0.2-0.9,0.6-1.3
			c0.4-0.4,0.9-0.6,1.5-0.6c0.6,0,1.1,0.2,1.5,0.5c0.4,0.4,0.6,0.9,0.6,1.5v2.8c0,0.2,0,0.5,0,0.7c0,0.2,0.1,0.4,0.1,0.6H87z
			 M85.6,59c0.3,0,0.5-0.1,0.7-0.2c0.2-0.2,0.4-0.4,0.5-0.6v-1.3H86c-0.4,0-0.6,0.1-0.8,0.3c-0.2,0.2-0.3,0.5-0.3,0.8
			c0,0.3,0.1,0.5,0.2,0.7C85.2,59,85.4,59,85.6,59z"/>
		<path class="st0" d="M98.5,53.7l0.1,0.9c0.2-0.3,0.4-0.6,0.6-0.7c0.3-0.2,0.6-0.3,0.9-0.3c0.5,0,1,0.2,1.2,0.6
			c0.3,0.4,0.4,1,0.4,1.8v3.8h-1.1V56c0-0.6-0.1-1-0.2-1.2c-0.2-0.2-0.4-0.4-0.7-0.4c-0.2,0-0.4,0.1-0.6,0.2
			c-0.2,0.1-0.3,0.3-0.4,0.6v4.5h-1.1v-6.1H98.5z"/>
		<path class="st0" d="M113,57.7l0.1,0.4h0l1.2-4.4h1.2l-2.1,7.1c-0.1,0.4-0.3,0.8-0.6,1.1c-0.2,0.3-0.6,0.4-1.1,0.4
			c-0.1,0-0.2,0-0.3,0c-0.1,0-0.2,0-0.3-0.1l0.1-0.8c0,0,0.1,0,0.2,0c0.1,0,0.1,0,0.2,0c0.2,0,0.4-0.1,0.5-0.3
			c0.1-0.2,0.2-0.4,0.3-0.7l0.2-0.6l-1.9-6.1h1.2L113,57.7z"/>
	</g>
	<rect x="2.8" y="3.9" class="st1" width="134.5" height="67.2"/>
</g>
</svg>
